{
.appVersion = "1075";
copyright = "Copyright (c) 2013-2017 by Alessio Laiso (hello@alessiolaiso.com). Licensed under the SIL Open Font License, Version 1.1";
customParameters = (
{
name = license;

glyphs = (
{
glyphname = .notdef;
lastChange = "2017-11-28 23:36:01 +0000";
layers = (
{
layerId = "3F211455-7DB7-4737-9D97-BF0B219628E9";
paths = (
{
closed = 1;
nodes = (
"202 546 LINE",
"204 542 OFFCURVE",
"207 541 OFFCURVE",
"212 541 CURVE SMOOTH",
"214 541 OFFCURVE",
"219 543 OFFCURVE",
"223 547 CURVE SMOOTH",
"227 551 OFFCURVE",
"233 555 OFFCURVE",
"241 560 CURVE SMOOTH",
"249 565 OFFCURVE",
"258 569 OFFCURVE",
"269 573 CURVE SMOOTH",
"280 577 OFFCURVE",
"293 578 OFFCURVE",
"308 578 CURVE SMOOTH",
"320 578 OFFCURVE",
"331 577 OFFCURVE",
"342 573 CURVE SMOOTH",
"352 569 OFFCURVE",
"361 564 OFFCURVE",
"369 558 CURVE SMOOTH",
"377 552 OFFCURVE",
"383 543 OFFCURVE",
"388 534 CURVE SMOOTH",
"393 525 OFFCURVE",
"395 514 OFFCURVE",
"395 502 CURVE SMOOTH",
"395 486 OFFCURVE",
"393 473 OFFCURVE",
"387 462 CURVE SMOOTH",
"381 451 OFFCURVE",
"374 441 OFFCURVE",
"366 432 CURVE SMOOTH",
"358 423 OFFCURVE",
"348 416 OFFCURVE",
"338 409 CURVE SMOOTH",
"328 402 OFFCURVE",
"319 395 OFFCURVE",
"311 388 CURVE SMOOTH",
"303 381 OFFCURVE",
"296 373 OFFCURVE",
"291 365 CURVE SMOOTH",
"286 357 OFFCURVE",
"283 348 OFFCURVE",
"284 338 CURVE",
"287 277 LINE",
"320 277 LINE",
"324 334 LINE",
"325 342 OFFCURVE",
"329 350 OFFCURVE",
"335 356 CURVE SMOOTH",
"341 362 OFFCURVE",
"349 369 OFFCURVE",
"357 376 CURVE SMOOTH",
"365 383 OFFCURVE",
"374 389 OFFCURVE",
"384 397 CURVE SMOOTH",
"394 405 OFFCURVE",
"403 413 OFFCURVE",
"411 423 CURVE SMOOTH",
"419 433 OFFCURVE",
"425 445 OFFCURVE",
"431 458 CURVE SMOOTH",
"437 471 OFFCURVE",
"440 487 OFFCURVE",
"440 505 CURVE SMOOTH",
"440 522 OFFCURVE",
"436 538 OFFCURVE",
"430 552 CURVE SMOOTH",
"424 566 OFFCURVE",
"415 577 OFFCURVE",
"403 587 CURVE SMOOTH",
"391 597 OFFCURVE",
"378 605 OFFCURVE",
"362 610 CURVE SMOOTH",
"346 615 OFFCURVE",
"330 618 OFFCURVE",
"312 618 CURVE SMOOTH",
"298 618 OFFCURVE",
"285 616 OFFCURVE",
"273 613 CURVE SMOOTH",
"261 610 OFFCURVE",
"250 607 OFFCURVE",
"240 602 CURVE SMOOTH",
"230 597 OFFCURVE",
"221 592 OFFCURVE",
"213 586 CURVE SMOOTH",
"205 580 OFFCURVE",
"197 574 OFFCURVE",
"190 567 CURVE"
);
},
{
closed = 1;
nodes = (
"264 122 OFFCURVE",
"267 113 OFFCURVE",
"274 105 CURVE SMOOTH",
"281 97 OFFCURVE",
"291 94 OFFCURVE",
"302 94 CURVE SMOOTH",
"313 94 OFFCURVE",
"322 97 OFFCURVE",
"329 105 CURVE SMOOTH",
"336 113 OFFCURVE",
"340 122 OFFCURVE",
"340 133 CURVE SMOOTH",
"340 144 OFFCURVE",
"336 152 OFFCURVE",
"329 160 CURVE SMOOTH",
"322 168 OFFCURVE",
"313 172 OFFCURVE",
"302 172 CURVE SMOOTH",
"291 172 OFFCURVE",
"281 168 OFFCURVE",
"274 160 CURVE SMOOTH",
"267 152 OFFCURVE",
"264 144 OFFCURVE",
"264 133 CURVE SMOOTH"
);
},
{
closed = 1;
nodes = (
"82 708 LINE",
"82 0 LINE",
"548 0 LINE",
"548 708 LINE"
);
},
{
closed = 1;
nodes = (
"100 18 LINE",
"100 690 LINE",
"529 690 LINE",
"529 18 LINE"
);
}
);
width = 630;
}
);
note = .notdef;
},
{
glyphname = exclam;
lastChange = "2017-11-28 23:36:01 +0000";
layers = (
{
layerId = "3F211455-7DB7-4737-9D97-BF0B219628E9";
paths = (
{
closed = 1;
nodes = (
"129 708 LINE",
"83 708 LINE",
"83 422 LINE",
"89 244 LINE",
"122 244 LINE",
"129 422 LINE"
);
},
{
closed = 1;
nodes = (
"131 -8 OFFCURVE",
"152 13 OFFCURVE",
"152 39 CURVE SMOOTH",
"152 64 OFFCURVE",
"131 85 OFFCURVE",
"106 85 CURVE SMOOTH",
"80 85 OFFCURVE",
"59 64 OFFCURVE",
"59 39 CURVE SMOOTH",
"59 13 OFFCURVE",
"80 -8 OFFCURVE",
"106 -8 CURVE SMOOTH"
);
}
);
width = 213;
}
);
note = exclam;
unicode = 0021;
},
{
glyphname = quotedbl;
lastChange = "2017-11-28 23:36:01 +0000";
layers = (
{
layerId = "3F211455-7DB7-4737-9D97-BF0B219628E9";
paths = (
{
closed = 1;
nodes = (
"112 708 LINE",
"70 708 LINE",
"70 562 LINE",
"75 485 LINE",
"76 479 OFFCURVE",
"78 467 OFFCURVE",
"91 467 CURVE SMOOTH",
"99 467 OFFCURVE",
"106 470 OFFCURVE",
"108 485 CURVE",
"112 562 LINE"
);
},
{
closed = 1;
nodes = (
"257 708 LINE",
"216 708 LINE",
"216 562 LINE",
"220 485 LINE",
"221 479 OFFCURVE",
"223 467 OFFCURVE",
"236 467 CURVE SMOOTH",
"247 467 OFFCURVE",
"250 473 OFFCURVE",
"252 485 CURVE",
"257 562 LINE"
);
}
);
width = 327;
}
);
leftKerningGroup = ordfeminine;
note = quotedbl;
rightKerningGroup = ordfeminine;
unicode = 0022;
},
{
glyphname = numbersign;
lastChange = "2017-11-28 23:36:01 +0000";
layers = (
{
layerId = "3F211455-7DB7-4737-9D97-BF0B219628E9";
paths = (
{
closed = 1;
nodes = (
"367 222 LINE",
"498 222 LINE",
"500 244 LINE",
"500 253 OFFCURVE",
"494 256 OFFCURVE",
"484 256 CURVE SMOOTH",
"372 256 LINE",
"413 451 LINE",
"505 451 LINE SMOOTH",
"518 451 OFFCURVE",
"526 457 OFFCURVE",
"528 468 CURVE",
"530 486 LINE",
"418 486 LINE",
"462 686 LINE",
"465 699 OFFCURVE",
"460 708 OFFCURVE",
"446 708 CURVE SMOOTH",
"426 708 LINE",
"378 486 LINE",
"229 486 LINE",
"276 708 LINE",
"256 708 LINE SMOOTH",
"244 708 OFFCURVE",
"234 699 OFFCURVE",
"232 688 CURVE",
"189 486 LINE",
"82 486 LINE SMOOTH",
"69 486 OFFCURVE",
"61 481 OFFCURVE",
"60 470 CURVE SMOOTH",
"58 451 LINE",
"184 451 LINE",
"143 256 LINE",
"34 256 LINE",
"32 248 LINE",
"28 232 OFFCURVE",
"32 222 OFFCURVE",
"46 222 CURVE SMOOTH",
"138 222 LINE",
"91 0 LINE",
"112 0 LINE SMOOTH",
"122 0 OFFCURVE",
"130 3 OFFCURVE",
"135 20 CURVE",
"178 222 LINE",
"327 222 LINE",
"284 22 LINE",
"282 12 OFFCURVE",
"283 0 OFFCURVE",
"300 0 CURVE SMOOTH",
"320 0 LINE"
);
},
{
closed = 1;
nodes = (
"183 256 LINE",
"224 451 LINE",
"373 451 LINE",
"332 256 LINE"
);
}
);
width = 560;
}
);
note = numbersign;
unicode = 0023;
},
{
glyphname = dollar;
lastChange = "2017-11-28 23:36:01 +0000";
layers = (
{
layerId = "3F211455-7DB7-4737-9D97-BF0B219628E9";
paths = (
{
closed = 1;
nodes = (
"215 -128 LINE",
"233 -128 LINE SMOOTH",
"243 -128 OFFCURVE",
"247 -121 OFFCURVE",
"248 -113 CURVE",
"253 -8 LINE",
"382 0 OFFCURVE",
"467 83 OFFCURVE",
"467 206 CURVE SMOOTH",
"467 315 OFFCURVE",
"392 349 OFFCURVE",
"273 387 CURVE",
"287 673 LINE",
"328 669 OFFCURVE",
"384 648 OFFCURVE",
"408 624 CURVE SMOOTH",
"419 613 OFFCURVE",
"428 613 OFFCURVE",
"436 624 CURVE",
"447 641 LINE",
"403 685 OFFCURVE",
"351 709 OFFCURVE",
"289 713 CURVE",
"295 814 LINE",
"277 814 LINE SMOOTH",
"267 814 OFFCURVE",
"262 805 OFFCURVE",
"262 798 CURVE",
"257 714 LINE",
"150 710 OFFCURVE",
"60 644 OFFCURVE",
"60 532 CURVE SMOOTH",
"60 427 OFFCURVE",
"127 384 OFFCURVE",
"240 350 CURVE",
"224 32 LINE",
"165 36 OFFCURVE",
"105 66 OFFCURVE",
"65 106 CURVE SMOOTH",
"57 114 OFFCURVE",
"48 114 OFFCURVE",
"40 104 CURVE",
"26 84 LINE",
"74 30 OFFCURVE",
"142 -4 OFFCURVE",
"221 -8 CURVE"
);
},
{
closed = 1;
nodes = (
"422 102 OFFCURVE",
"355 39 OFFCURVE",
"256 32 CURVE",
"271 341 LINE",
"359 315 OFFCURVE",
"422 282 OFFCURVE",
"422 199 CURVE SMOOTH"
);
},
{
closed = 1;
nodes = (
"104 614 OFFCURVE",
"166 670 OFFCURVE",
"256 674 CURVE",
"242 398 LINE",
"156 425 OFFCURVE",
"104 461 OFFCURVE",
"104 536 CURVE SMOOTH"
);
}
);
width = 503;
}
);
note = dollar;
unicode = 0024;
},
{
glyphname = percent;
lastChange = "2017-11-28 23:36:01 +0000";
layers = (
{
layerId = "3F211455-7DB7-4737-9D97-BF0B219628E9";
paths = (
{
closed = 1;
nodes = (
"342 641 OFFCURVE",
"288 716 OFFCURVE",
"194 716 CURVE SMOOTH",
"101 716 OFFCURVE",
"45 644 OFFCURVE",
"45 538 CURVE SMOOTH",
"45 434 OFFCURVE",
"99 361 OFFCURVE",
"194 361 CURVE SMOOTH",
"285 361 OFFCURVE",
"342 437 OFFCURVE",
"342 538 CURVE SMOOTH"
);
},
{
closed = 1;
nodes = (
"304 456 OFFCURVE",
"272 393 OFFCURVE",
"194 393 CURVE SMOOTH",
"120 393 OFFCURVE",
"84 450 OFFCURVE",
"84 538 CURVE SMOOTH",
"84 620 OFFCURVE",
"116 683 OFFCURVE",
"194 683 CURVE SMOOTH",
"267 683 OFFCURVE",
"304 627 OFFCURVE",
"304 538 CURVE SMOOTH"
);
},
{
closed = 1;
nodes = (
"104 0 LINE",
"138 0 LINE SMOOTH",
"145 0 OFFCURVE",
"151 3 OFFCURVE",
"155 9 CURVE",
"663 708 LINE",
"630 708 LINE SMOOTH",
"622 708 OFFCURVE",
"615 704 OFFCURVE",
"611 698 CURVE"
);
},
{
closed = 1;
nodes = (
"724 272 OFFCURVE",
"671 346 OFFCURVE",
"576 346 CURVE SMOOTH",
"479 346 OFFCURVE",
"427 270 OFFCURVE",
"427 168 CURVE SMOOTH",
"427 67 OFFCURVE",
"480 -8 OFFCURVE",
"576 -8 CURVE SMOOTH",
"669 -8 OFFCURVE",
"724 65 OFFCURVE",
"724 168 CURVE SMOOTH"
);
},
{
closed = 1;
nodes = (
"686 87 OFFCURVE",
"654 24 OFFCURVE",
"576 24 CURVE SMOOTH",
"503 24 OFFCURVE",
"465 82 OFFCURVE",
"465 168 CURVE SMOOTH",
"465 251 OFFCURVE",
"500 314 OFFCURVE",
"576 314 CURVE SMOOTH",
"649 314 OFFCURVE",
"686 257 OFFCURVE",
"686 168 CURVE SMOOTH"
);
}
);
width = 764;
}
);
note = percent;
unicode = 0025;
},
{
glyphname = ampersand;
lastChange = "2017-11-28 23:36:01 +0000";
layers = (
{
layerId = "3F211455-7DB7-4737-9D97-BF0B219628E9";
paths = (
{
closed = 1;
nodes = (
"218 716 OFFCURVE",
"138 654 OFFCURVE",
"138 552 CURVE SMOOTH",
"138 493 OFFCURVE",
"161 447 OFFCURVE",
"208 394 CURVE",
"118 360 OFFCURVE",
"40 280 OFFCURVE",
"40 181 CURVE SMOOTH",
"40 68 OFFCURVE",
"132 -8 OFFCURVE",
"243 -8 CURVE SMOOTH",
"340 -8 OFFCURVE",
"429 37 OFFCURVE",
"494 112 CURVE",
"596 11 LINE SMOOTH",
"601 6 OFFCURVE",
"605 3 OFFCURVE",
"609 2 CURVE SMOOTH",
"613 1 OFFCURVE",
"618 0 OFFCURVE",
"624 0 CURVE SMOOTH",
"668 0 LINE",
"520 146 LINE",
"557 199 OFFCURVE",
"583 274 OFFCURVE",
"585 338 CURVE",
"558 338 LINE SMOOTH",
"549 338 OFFCURVE",
"546 332 OFFCURVE",
"544 324 CURVE",
"537 270 OFFCURVE",
"519 220 OFFCURVE",
"491 174 CURVE",
"268 394 LINE SMOOTH",
"219 443 OFFCURVE",
"182 489 OFFCURVE",
"182 553 CURVE SMOOTH",
"182 625 OFFCURVE",
"235 678 OFFCURVE",
"316 678 CURVE SMOOTH",
"376 678 OFFCURVE",
"426 635 OFFCURVE",
"438 580 CURVE SMOOTH",
"439 577 OFFCURVE",
"443 568 OFFCURVE",
"455 570 CURVE",
"481 574 LINE",
"477 657 OFFCURVE",
"398 716 OFFCURVE",
"316 716 CURVE SMOOTH"
);
},
{
closed = 1;
nodes = (
"88 266 OFFCURVE",
"149 336 OFFCURVE",
"231 369 CURVE",
"466 138 LINE",
"411 71 OFFCURVE",
"341 31 OFFCURVE",
"250 31 CURVE SMOOTH",
"164 31 OFFCURVE",
"88 91 OFFCURVE",
"88 184 CURVE SMOOTH"
);
}
);
width = 692;
}
);
note = ampersand;
unicode = 0026;
},
{
glyphname = quotesingle;
lastChange = "2017-11-28 23:36:01 +0000";
layers = (
{
layerId = "3F211455-7DB7-4737-9D97-BF0B219628E9";
paths = (
{
closed = 1;
nodes = (
"112 708 LINE",
"70 708 LINE",
"70 562 LINE",
"75 485 LINE",
"76 479 OFFCURVE",
"78 467 OFFCURVE",
"91 467 CURVE SMOOTH",
"99 467 OFFCURVE",
"106 470 OFFCURVE",
"108 485 CURVE",
"112 562 LINE"
);
}
);
width = 183;
}
);
leftKerningGroup = ordfeminine;
note = quotesingle;
rightKerningGroup = ordfeminine;
unicode = 0027;
},
{
glyphname = parenleft;
lastChange = "2017-11-28 23:36:01 +0000";
layers = (
{
layerId = "3F211455-7DB7-4737-9D97-BF0B219628E9";
paths = (
{
closed = 1;
nodes = (
"96 463 OFFCURVE",
"137 603 OFFCURVE",
"216 729 CURVE",
"220 737 OFFCURVE",
"220 744 OFFCURVE",
"213 750 CURVE",
"192 763 LINE",
"101 625 OFFCURVE",
"54 484 OFFCURVE",
"54 315 CURVE SMOOTH",
"54 153 OFFCURVE",
"101 3 OFFCURVE",
"192 -133 CURVE",
"213 -120 LINE",
"221 -115 OFFCURVE",
"221 -107 OFFCURVE",
"216 -98 CURVE",
"138 27 OFFCURVE",
"96 163 OFFCURVE",
"96 315 CURVE SMOOTH"
);
}
);
width = 251;
}
);
note = parenleft;
unicode = 0028;
},
{
glyphname = parenright;
lastChange = "2017-11-28 23:36:01 +0000";
layers = (
{
layerId = "3F211455-7DB7-4737-9D97-BF0B219628E9";
paths = (
{
closed = 1;
nodes = (
"156 166 OFFCURVE",
"115 29 OFFCURVE",
"36 -98 CURVE",
"33 -104 OFFCURVE",
"33 -114 OFFCURVE",
"40 -120 CURVE",
"60 -132 LINE",
"154 14 OFFCURVE",
"198 140 OFFCURVE",
"198 315 CURVE SMOOTH",
"198 485 OFFCURVE",
"154 617 OFFCURVE",
"60 763 CURVE",
"40 750 LINE",
"34 746 OFFCURVE",
"32 738 OFFCURVE",
"36 729 CURVE",
"115 602 OFFCURVE",
"156 463 OFFCURVE",
"156 315 CURVE SMOOTH"
);
}
);
width = 252;
}
);
note = parenright;
unicode = 0029;
},
{
glyphname = asterisk;
lastChange = "2017-11-28 23:36:01 +0000";
layers = (
{
layerId = "3F211455-7DB7-4737-9D97-BF0B219628E9";
paths = (
{
closed = 1;
nodes = (
"176 448 LINE",
"202 448 LINE",
"202 556 LINE SMOOTH",
"202 563 OFFCURVE",
"199 575 OFFCURVE",
"195 586 CURVE",
"198 581 OFFCURVE",
"211 570 OFFCURVE",
"219 565 CURVE SMOOTH",
"314 510 LINE",
"327 532 LINE",
"232 588 LINE SMOOTH",
"225 592 OFFCURVE",
"214 595 OFFCURVE",
"203 597 CURVE",
"218 601 OFFCURVE",
"221 602 OFFCURVE",
"232 608 CURVE SMOOTH",
"326 662 LINE",
"313 684 LINE",
"219 630 LINE SMOOTH",
"209 624 OFFCURVE",
"202 618 OFFCURVE",
"195 608 CURVE",
"198 615 OFFCURVE",
"202 632 OFFCURVE",
"202 640 CURVE SMOOTH",
"202 746 LINE",
"176 746 LINE",
"176 639 LINE SMOOTH",
"176 631 OFFCURVE",
"177 619 OFFCURVE",
"183 607 CURVE",
"178 613 OFFCURVE",
"167 625 OFFCURVE",
"158 630 CURVE SMOOTH",
"64 685 LINE",
"51 662 LINE",
"146 607 LINE SMOOTH",
"153 603 OFFCURVE",
"166 598 OFFCURVE",
"175 597 CURVE",
"171 596 OFFCURVE",
"153 591 OFFCURVE",
"146 587 CURVE SMOOTH",
"52 532 LINE",
"64 510 LINE",
"158 565 LINE SMOOTH",
"168 571 OFFCURVE",
"172 572 OFFCURVE",
"182 585 CURVE",
"178 576 OFFCURVE",
"176 566 OFFCURVE",
"176 555 CURVE SMOOTH"
);
}
);
width = 378;
}
);
leftKerningGroup = quotedbl;
note = asterisk;
rightKerningGroup = quotedbl;
unicode = 002A;
},
{
glyphname = plus;
lastChange = "2017-11-28 23:36:01 +0000";
layers = (
{
layerId = "3F211455-7DB7-4737-9D97-BF0B219628E9";
paths = (
{
closed = 1;
nodes = (
"300 579 LINE",
"260 579 LINE",
"260 354 LINE",
"46 354 LINE",
"46 317 LINE",
"260 317 LINE",
"260 90 LINE",
"300 90 LINE",
"300 317 LINE",
"515 317 LINE",
"515 354 LINE",
"300 354 LINE"
);
}
);
width = 561;
}
);
note = plus;
unicode = 002B;
},
{
glyphname = comma;
lastChange = "2017-11-28 23:36:01 +0000";
layers = (
{
layerId = "3F211455-7DB7-4737-9D97-BF0B219628E9";
paths = (
{
closed = 1;
nodes = (
"144 85 OFFCURVE",
"116 85 CURVE SMOOTH",
"92 85 OFFCURVE",
"72 66 OFFCURVE",
"72 42 CURVE SMOOTH",
"72 18 OFFCURVE",
"92 -2 OFFCURVE",
"116 -2 CURVE SMOOTH",
"121 -2 OFFCURVE",
"126 -1 OFFCURVE",
"130 0 CURVE",
"129 -25 OFFCURVE",
"103 -77 OFFCURVE",
"79 -101 CURVE SMOOTH",
"73 -107 OFFCURVE",
"72 -113 OFFCURVE",
"78 -119 CURVE",
"86 -126 LINE",
"129 -83 OFFCURVE",
"161 -31 OFFCURVE",
"161 32 CURVE SMOOTH",
"161 62 OFFCURVE"
);
}
);
width = 228;
}
);
leftKerningGroup = comma;
note = comma;
rightKerningGroup = comma;
unicode = 002C;
},
{
glyphname = hyphen;
lastChange = "2017-11-28 23:36:01 +0000";
layers = (
{
layerId = "3F211455-7DB7-4737-9D97-BF0B219628E9";
paths = (
{
closed = 1;
nodes = (
"70 317 LINE",
"70 276 LINE",
"302 276 LINE",
"302 317 LINE"
);
}
);
width = 370;
}
);
leftKerningGroup = emdash;
note = hyphen;
rightKerningGroup = emdash;
unicode = 002D;
},
{
glyphname = period;
lastChange = "2017-11-28 23:36:01 +0000";
layers = (
{
layerId = "3F211455-7DB7-4737-9D97-BF0B219628E9";
paths = (
{
closed = 1;
nodes = (
"142 -8 OFFCURVE",
"162 13 OFFCURVE",
"162 39 CURVE SMOOTH",
"162 64 OFFCURVE",
"142 85 OFFCURVE",
"116 85 CURVE SMOOTH",
"90 85 OFFCURVE",
"70 64 OFFCURVE",
"70 39 CURVE SMOOTH",
"70 13 OFFCURVE",
"90 -8 OFFCURVE",
"116 -8 CURVE SMOOTH"
);
}
);
width = 230;
}
);
leftKerningGroup = comma;
note = period;
rightKerningGroup = comma;
unicode = 002E;
},
{
glyphname = slash;
lastChange = "2017-11-28 23:36:01 +0000";
layers = (
{
layerId = "3F211455-7DB7-4737-9D97-BF0B219628E9";
paths = (
{
closed = 1;
nodes = (
"382 728 LINE",
"362 728 LINE SMOOTH",
"349 728 OFFCURVE",
"340 721 OFFCURVE",
"335 709 CURVE SMOOTH",
"24 -42 LINE",
"44 -42 LINE SMOOTH",
"53 -42 OFFCURVE",
"66 -37 OFFCURVE",
"72 -22 CURVE SMOOTH"
);
}
);
width = 413;
}
);
note = slash;
unicode = 002F;
},
{
glyphname = zero;
lastChange = "2017-11-28 23:36:01 +0000";
layers = (
{
layerId = "3F211455-7DB7-4737-9D97-BF0B219628E9";
paths = (
{
closed = 1;
nodes = (
"562 553 OFFCURVE",
"481 716 OFFCURVE",
"308 716 CURVE SMOOTH",
"132 716 OFFCURVE",
"54 550 OFFCURVE",
"54 354 CURVE SMOOTH",
"54 153 OFFCURVE",
"135 -8 OFFCURVE",
"308 -8 CURVE SMOOTH",
"482 -8 OFFCURVE",
"562 159 OFFCURVE",
"562 354 CURVE SMOOTH"
);
},
{
closed = 1;
nodes = (
"512 191 OFFCURVE",
"459 32 OFFCURVE",
"308 32 CURVE SMOOTH",
"161 32 OFFCURVE",
"104 181 OFFCURVE",
"104 354 CURVE SMOOTH",
"104 518 OFFCURVE",
"157 676 OFFCURVE",
"307 676 CURVE SMOOTH",
"453 676 OFFCURVE",
"512 527 OFFCURVE",
"512 354 CURVE SMOOTH"
);
}
);
width = 617;
}
);
note = zero;
unicode = 0030;
},
{
glyphname = one;
lastChange = "2017-11-28 23:36:01 +0000";
layers = (
{
layerId = "3F211455-7DB7-4737-9D97-BF0B219628E9";
paths = (
{
closed = 1;
nodes = (
"426 0 LINE",
"426 16 LINE SMOOTH",
"426 25 OFFCURVE",
"420 30 OFFCURVE",
"409 31 CURVE",
"271 38 LINE",
"271 710 LINE",
"234 710 LINE",
"30 530 LINE",
"44 510 LINE SMOOTH",
"50 502 OFFCURVE",
"63 502 OFFCURVE",
"69 508 CURVE",
"225 647 LINE",
"223 38 LINE",
"77 31 LINE",
"66 30 OFFCURVE",
"61 25 OFFCURVE",
"61 16 CURVE SMOOTH",
"61 0 LINE"
);
}
);
width = 451;
}
);
note = one;
unicode = 0031;
},
{
glyphname = two;
lastChange = "2017-11-28 23:36:01 +0000";
layers = (
{
layerId = "3F211455-7DB7-4737-9D97-BF0B219628E9";
paths = (
{
closed = 1;
nodes = (
"469 134 LINE SMOOTH",
"455 134 OFFCURVE",
"449 126 OFFCURVE",
"448 110 CURVE",
"442 45 LINE",
"171 45 LINE SMOOTH",
"154 45 OFFCURVE",
"122 42 OFFCURVE",
"103 37 CURVE",
"324 263 LINE SMOOTH",
"413 356 OFFCURVE",
"477 422 OFFCURVE",
"477 525 CURVE SMOOTH",
"477 640 OFFCURVE",
"398 715 OFFCURVE",
"274 715 CURVE SMOOTH",
"156 715 OFFCURVE",
"71 647 OFFCURVE",
"55 524 CURVE",
"80 521 LINE SMOOTH",
"94 519 OFFCURVE",
"101 525 OFFCURVE",
"104 537 CURVE",
"122 625 OFFCURVE",
"185 675 OFFCURVE",
"271 675 CURVE SMOOTH",
"365 675 OFFCURVE",
"428 616 OFFCURVE",
"428 523 CURVE SMOOTH",
"428 440 OFFCURVE",
"373 367 OFFCURVE",
"288 282 CURVE SMOOTH",
"46 38 LINE SMOOTH",
"41 32 OFFCURVE",
"37 24 OFFCURVE",
"37 16 CURVE SMOOTH",
"37 0 LINE",
"493 0 LINE",
"493 134 LINE"
);
}
);
width = 543;
}
);
note = two;
unicode = 0032;
},
{
glyphname = three;
lastChange = "2017-11-28 23:36:01 +0000";
layers = (
{
layerId = "3F211455-7DB7-4737-9D97-BF0B219628E9";
paths = (
{
closed = 1;
nodes = (
"156 716 OFFCURVE",
"72 642 OFFCURVE",
"56 524 CURVE",
"86 520 LINE SMOOTH",
"96 520 OFFCURVE",
"102 526 OFFCURVE",
"105 538 CURVE SMOOTH",
"126 624 OFFCURVE",
"186 675 OFFCURVE",
"274 675 CURVE SMOOTH",
"366 675 OFFCURVE",
"427 619 OFFCURVE",
"427 529 CURVE SMOOTH",
"427 429 OFFCURVE",
"347 383 OFFCURVE",
"240 380 CURVE",
"240 346 LINE",
"359 346 OFFCURVE",
"444 307 OFFCURVE",
"444 193 CURVE SMOOTH",
"444 103 OFFCURVE",
"365 32 OFFCURVE",
"264 32 CURVE SMOOTH",
"169 32 OFFCURVE",
"114 77 OFFCURVE",
"82 171 CURVE SMOOTH",
"77 184 OFFCURVE",
"62 185 OFFCURVE",
"52 181 CURVE",
"34 173 LINE",
"69 51 OFFCURVE",
"131 -8 OFFCURVE",
"264 -8 CURVE SMOOTH",
"390 -8 OFFCURVE",
"492 76 OFFCURVE",
"492 194 CURVE SMOOTH",
"492 292 OFFCURVE",
"433 350 OFFCURVE",
"334 369 CURVE",
"420 390 OFFCURVE",
"474 451 OFFCURVE",
"474 537 CURVE SMOOTH",
"474 648 OFFCURVE",
"387 716 OFFCURVE",
"276 716 CURVE SMOOTH"
);
}
);
width = 541;
}
);
note = three;
unicode = 0033;
},
{
glyphname = four;
lastChange = "2017-11-28 23:36:01 +0000";
layers = (
{
layerId = "3F211455-7DB7-4737-9D97-BF0B219628E9";
paths = (
{
closed = 1;
nodes = (
"432 241 LINE",
"432 708 LINE",
"389 708 LINE",
"34 238 LINE",
"38 215 LINE",
"40 206 OFFCURVE",
"47 203 OFFCURVE",
"55 203 CURVE SMOOTH",
"388 203 LINE",
"388 0 LINE",
"432 0 LINE",
"432 203 LINE",
"548 203 LINE SMOOTH",
"553 203 OFFCURVE",
"561 204 OFFCURVE",
"561 215 CURVE SMOOTH",
"561 241 LINE"
);
},
{
closed = 1;
nodes = (
"388 241 LINE",
"86 241 LINE",
"391 649 LINE",
"390 641 OFFCURVE",
"388 620 OFFCURVE",
"388 612 CURVE SMOOTH"
);
}
);
width = 589;
}
);
note = four;
unicode = 0034;
},
{
glyphname = five;
lastChange = "2017-11-28 23:36:01 +0000";
layers = (
{
layerId = "3F211455-7DB7-4737-9D97-BF0B219628E9";
paths = (
{
closed = 1;
nodes = (
"442 708 LINE",
"124 708 LINE",
"68 394 LINE",
"99 384 LINE",
"137 395 OFFCURVE",
"191 404 OFFCURVE",
"227 404 CURVE SMOOTH",
"342 404 OFFCURVE",
"412 343 OFFCURVE",
"412 230 CURVE SMOOTH",
"412 114 OFFCURVE",
"334 34 OFFCURVE",
"218 34 CURVE SMOOTH",
"175 34 OFFCURVE",
"116 51 OFFCURVE",
"80 74 CURVE SMOOTH",
"66 83 OFFCURVE",
"53 86 OFFCURVE",
"44 73 CURVE",
"32 55 LINE",
"79 17 OFFCURVE",
"147 -8 OFFCURVE",
"216 -8 CURVE SMOOTH",
"358 -8 OFFCURVE",
"460 91 OFFCURVE",
"460 232 CURVE SMOOTH",
"460 362 OFFCURVE",
"374 444 OFFCURVE",
"236 444 CURVE SMOOTH",
"201 444 OFFCURVE",
"148 437 OFFCURVE",
"115 428 CURVE",
"158 664 LINE",
"414 664 LINE SMOOTH",
"430 664 OFFCURVE",
"442 671 OFFCURVE",
"442 687 CURVE SMOOTH"
);
}
);
width = 508;
}
);
note = five;
unicode = 0035;
},
{
glyphname = six;
lastChange = "2017-11-28 23:36:01 +0000";
layers = (
{
layerId = "3F211455-7DB7-4737-9D97-BF0B219628E9";
paths = (
{
closed = 1;
nodes = (
"228 423 OFFCURVE",
"175 402 OFFCURVE",
"131 358 CURVE",
"155 399 OFFCURVE",
"164 407 OFFCURVE",
"183 432 CURVE SMOOTH",
"394 708 LINE",
"352 708 LINE SMOOTH",
"341 708 OFFCURVE",
"332 704 OFFCURVE",
"326 696 CURVE SMOOTH",
"134 436 LINE SMOOTH",
"85 370 OFFCURVE",
"44 300 OFFCURVE",
"44 225 CURVE SMOOTH",
"44 85 OFFCURVE",
"128 -8 OFFCURVE",
"266 -8 CURVE SMOOTH",
"400 -8 OFFCURVE",
"499 80 OFFCURVE",
"499 213 CURVE SMOOTH",
"499 337 OFFCURVE",
"414 423 OFFCURVE",
"290 423 CURVE SMOOTH"
);
},
{
closed = 1;
nodes = (
"90 313 OFFCURVE",
"175 386 OFFCURVE",
"276 386 CURVE SMOOTH",
"383 386 OFFCURVE",
"452 316 OFFCURVE",
"452 210 CURVE SMOOTH",
"452 107 OFFCURVE",
"378 32 OFFCURVE",
"265 32 CURVE SMOOTH",
"157 32 OFFCURVE",
"90 106 OFFCURVE",
"90 214 CURVE SMOOTH"
);
}
);
width = 539;
}
);
note = six;
unicode = 0036;
},
{
glyphname = seven;
lastChange = "2017-11-28 23:36:01 +0000";
layers = (
{
layerId = "3F211455-7DB7-4737-9D97-BF0B219628E9";
paths = (
{
closed = 1;
nodes = (
"44 707 LINE",
"44 573 LINE",
"68 573 LINE SMOOTH",
"82 573 OFFCURVE",
"88 581 OFFCURVE",
"89 597 CURVE",
"93 664 LINE",
"464 664 LINE",
"123 0 LINE",
"155 0 LINE SMOOTH",
"169 0 OFFCURVE",
"177 6 OFFCURVE",
"184 18 CURVE",
"508 661 LINE",
"511 666 OFFCURVE",
"514 679 OFFCURVE",
"514 686 CURVE SMOOTH",
"514 708 LINE"
);
}
);
width = 550;
}
);
note = seven;
unicode = 0037;
},
{
glyphname = eight;
lastChange = "2017-11-28 23:36:01 +0000";
layers = (
{
layerId = "3F211455-7DB7-4737-9D97-BF0B219628E9";
paths = (
{
closed = 1;
nodes = (
"407 -8 OFFCURVE",
"507 62 OFFCURVE",
"507 187 CURVE SMOOTH",
"507 286 OFFCURVE",
"448 349 OFFCURVE",
"353 370 CURVE",
"432 391 OFFCURVE",
"482 454 OFFCURVE",
"482 535 CURVE SMOOTH",
"482 646 OFFCURVE",
"392 716 OFFCURVE",
"278 716 CURVE SMOOTH",
"160 716 OFFCURVE",
"73 645 OFFCURVE",
"73 535 CURVE SMOOTH",
"73 455 OFFCURVE",
"117 394 OFFCURVE",
"202 370 CURVE",
"106 350 OFFCURVE",
"48 286 OFFCURVE",
"48 187 CURVE SMOOTH",
"48 63 OFFCURVE",
"147 -8 OFFCURVE",
"277 -8 CURVE SMOOTH"
);
},
{
closed = 1;
nodes = (
"172 30 OFFCURVE",
"96 89 OFFCURVE",
"96 188 CURVE SMOOTH",
"96 292 OFFCURVE",
"171 348 OFFCURVE",
"277 348 CURVE SMOOTH",
"384 348 OFFCURVE",
"458 291 OFFCURVE",
"458 188 CURVE SMOOTH",
"458 89 OFFCURVE",
"381 30 OFFCURVE",
"278 30 CURVE SMOOTH"
);
},
{
closed = 1;
nodes = (
"183 387 OFFCURVE",
"119 445 OFFCURVE",
"119 534 CURVE SMOOTH",
"119 619 OFFCURVE",
"182 678 OFFCURVE",
"277 678 CURVE SMOOTH",
"370 678 OFFCURVE",
"435 622 OFFCURVE",
"435 534 CURVE SMOOTH",
"435 442 OFFCURVE",
"370 387 OFFCURVE",
"277 387 CURVE SMOOTH"
);
}
);
width = 553;
}
);
note = eight;
unicode = 0038;
},
{
glyphname = nine;
lastChange = "2017-11-28 23:36:01 +0000";
layers = (
{
layerId = "3F211455-7DB7-4737-9D97-BF0B219628E9";
paths = (
{
closed = 1;
nodes = (
"306 301 OFFCURVE",
"364 324 OFFCURVE",
"404 368 CURVE",
"400 361 OFFCURVE",
"371 319 OFFCURVE",
"352 292 CURVE SMOOTH",
"144 0 LINE",
"186 0 LINE SMOOTH",
"197 0 OFFCURVE",
"206 4 OFFCURVE",
"211 12 CURVE",
"396 284 LINE SMOOTH",
"446 355 OFFCURVE",
"483 421 OFFCURVE",
"483 494 CURVE SMOOTH",
"483 622 OFFCURVE",
"396 716 OFFCURVE",
"270 716 CURVE SMOOTH",
"145 716 OFFCURVE",
"44 626 OFFCURVE",
"44 503 CURVE SMOOTH",
"44 388 OFFCURVE",
"122 301 OFFCURVE",
"245 301 CURVE SMOOTH"
);
},
{
closed = 1;
nodes = (
"437 411 OFFCURVE",
"360 338 OFFCURVE",
"258 338 CURVE SMOOTH",
"157 338 OFFCURVE",
"92 405 OFFCURVE",
"92 506 CURVE SMOOTH",
"92 604 OFFCURVE",
"162 676 OFFCURVE",
"269 676 CURVE SMOOTH",
"369 676 OFFCURVE",
"437 602 OFFCURVE",
"437 502 CURVE SMOOTH"
);
}
);
width = 531;
}
);
note = nine;
unicode = 0039;
},
{
glyphname = colon;
lastChange = "2017-11-28 23:36:01 +0000";
layers = (
{
layerId = "3F211455-7DB7-4737-9D97-BF0B219628E9";
paths = (
{
closed = 1;
nodes = (
"140 391 OFFCURVE",
"161 412 OFFCURVE",
"161 438 CURVE SMOOTH",
"161 463 OFFCURVE",
"140 484 OFFCURVE",
"115 484 CURVE SMOOTH",
"89 484 OFFCURVE",
"68 463 OFFCURVE",
"68 438 CURVE SMOOTH",
"68 412 OFFCURVE",
"89 391 OFFCURVE",
"115 391 CURVE SMOOTH"
);
},
{
closed = 1;
nodes = (
"140 -8 OFFCURVE",
"161 13 OFFCURVE",
"161 39 CURVE SMOOTH",
"161 64 OFFCURVE",
"140 85 OFFCURVE",
"115 85 CURVE SMOOTH",
"89 85 OFFCURVE",
"68 64 OFFCURVE",
"68 39 CURVE SMOOTH",
"68 13 OFFCURVE",
"89 -8 OFFCURVE",
"115 -8 CURVE SMOOTH"
);
}
);
width = 228;
}
);
note = colon;
unicode = 003A;
},
{
glyphname = semicolon;
lastChange = "2017-11-28 23:36:01 +0000";
layers = (
{
layerId = "3F211455-7DB7-4737-9D97-BF0B219628E9";
paths = (
{
closed = 1;
nodes = (
"140 390 OFFCURVE",
"161 411 OFFCURVE",
"161 437 CURVE SMOOTH",
"161 462 OFFCURVE",
"140 483 OFFCURVE",
"115 483 CURVE SMOOTH",
"89 483 OFFCURVE",
"68 462 OFFCURVE",
"68 437 CURVE SMOOTH",
"68 411 OFFCURVE",
"89 390 OFFCURVE",
"115 390 CURVE SMOOTH"
);
},
{
closed = 1;
nodes = (
"144 85 OFFCURVE",
"116 85 CURVE SMOOTH",
"92 85 OFFCURVE",
"72 66 OFFCURVE",
"72 42 CURVE SMOOTH",
"72 18 OFFCURVE",
"92 -2 OFFCURVE",
"116 -2 CURVE SMOOTH",
"121 -2 OFFCURVE",
"126 -1 OFFCURVE",
"130 0 CURVE",
"129 -25 OFFCURVE",
"103 -77 OFFCURVE",
"79 -101 CURVE SMOOTH",
"73 -107 OFFCURVE",
"72 -113 OFFCURVE",
"78 -119 CURVE",
"86 -126 LINE",
"129 -83 OFFCURVE",
"161 -31 OFFCURVE",
"161 32 CURVE SMOOTH",
"161 62 OFFCURVE"
);
}
);
width = 229;
}
);
note = semicolon;
unicode = 003B;
},
{
glyphname = less;
lastChange = "2017-11-28 23:36:01 +0000";
layers = (
{
layerId = "3F211455-7DB7-4737-9D97-BF0B219628E9";
paths = (
{
closed = 1;
nodes = (
"46 346 LINE",
"46 326 LINE",
"422 132 LINE",
"422 165 LINE SMOOTH",
"422 169 OFFCURVE",
"419 175 OFFCURVE",
"408 182 CURVE",
"132 323 LINE SMOOTH",
"122 328 OFFCURVE",
"110 332 OFFCURVE",
"96 335 CURVE",
"109 338 OFFCURVE",
"121 342 OFFCURVE",
"132 348 CURVE SMOOTH",
"408 488 LINE",
"412 490 OFFCURVE",
"422 496 OFFCURVE",
"422 506 CURVE SMOOTH",
"422 538 LINE"
);
}
);
width = 475;
}
);
note = less;
unicode = 003C;
},
{
glyphname = equal;
lastChange = "2017-11-28 23:36:01 +0000";
layers = (
{
layerId = "3F211455-7DB7-4737-9D97-BF0B219628E9";
paths = (
{
closed = 1;
nodes = (
"70 278 LINE",
"70 241 LINE",
"483 241 LINE",
"483 278 LINE"
);
},
{
closed = 1;
nodes = (
"70 434 LINE",
"70 398 LINE",
"483 398 LINE",
"483 434 LINE"
);
}
);
width = 551;
}
);
note = equal;
unicode = 003D;
},
{
glyphname = greater;
lastChange = "2017-11-28 23:36:01 +0000";
layers = (
{
layerId = "3F211455-7DB7-4737-9D97-BF0B219628E9";
paths = (
{
closed = 1;
nodes = (
"54 132 LINE",
"428 326 LINE",
"428 346 LINE",
"54 538 LINE",
"54 506 LINE SMOOTH",
"54 499 OFFCURVE",
"57 493 OFFCURVE",
"66 488 CURVE",
"344 348 LINE SMOOTH",
"355 342 OFFCURVE",
"367 339 OFFCURVE",
"379 336 CURVE",
"366 333 OFFCURVE",
"354 328 OFFCURVE",
"344 323 CURVE SMOOTH",
"66 183 LINE",
"59 179 OFFCURVE",
"54 174 OFFCURVE",
"54 165 CURVE SMOOTH"
);
}
);
width = 475;
}
);
note = greater;
unicode = 003E;
},
{
glyphname = question;
lastChange = "2017-11-28 23:36:01 +0000";
layers = (
{
layerId = "3F211455-7DB7-4737-9D97-BF0B219628E9";
paths = (
{
closed = 1;
nodes = (
"42 632 LINE",
"49 622 OFFCURVE",
"60 624 OFFCURVE",
"68 629 CURVE SMOOTH",
"101 650 OFFCURVE",
"143 676 OFFCURVE",
"192 676 CURVE SMOOTH",
"261 676 OFFCURVE",
"322 635 OFFCURVE",
"322 562 CURVE SMOOTH",
"322 507 OFFCURVE",
"290 461 OFFCURVE",
"242 427 CURVE SMOOTH",
"199 397 OFFCURVE",
"162 368 OFFCURVE",
"162 331 CURVE SMOOTH",
"164 243 LINE",
"196 243 LINE",
"202 325 LINE SMOOTH",
"205 355 OFFCURVE",
"233 372 OFFCURVE",
"286 414 CURVE",
"338 451 OFFCURVE",
"367 502 OFFCURVE",
"367 564 CURVE SMOOTH",
"367 654 OFFCURVE",
"289 716 OFFCURVE",
"196 716 CURVE SMOOTH",
"138 716 OFFCURVE",
"78 692 OFFCURVE",
"32 646 CURVE"
);
},
{
closed = 1;
nodes = (
"205 -8 OFFCURVE",
"225 13 OFFCURVE",
"225 39 CURVE SMOOTH",
"225 64 OFFCURVE",
"205 85 OFFCURVE",
"179 85 CURVE SMOOTH",
"153 85 OFFCURVE",
"133 64 OFFCURVE",
"133 39 CURVE SMOOTH",
"133 13 OFFCURVE",
"153 -8 OFFCURVE",
"179 -8 CURVE SMOOTH"
);
}
);
width = 411;
}
);
note = question;
unicode = 003F;
},
{
glyphname = at;
lastChange = "2017-11-28 23:36:01 +0000";
layers = (
{
layerId = "3F211455-7DB7-4737-9D97-BF0B219628E9";
paths = (
{
closed = 1;
nodes = (
"692 94 OFFCURVE",
"763 209 OFFCURVE",
"763 339 CURVE SMOOTH",
"763 536 OFFCURVE",
"618 666 OFFCURVE",
"422 666 CURVE SMOOTH",
"213 666 OFFCURVE",
"48 495 OFFCURVE",
"48 274 CURVE SMOOTH",
"48 39 OFFCURVE",
"205 -119 OFFCURVE",
"440 -119 CURVE SMOOTH",
"539 -119 OFFCURVE",
"634 -95 OFFCURVE",
"712 -42 CURVE",
"704 -29 LINE SMOOTH",
"699 -20 OFFCURVE",
"690 -18 OFFCURVE",
"680 -24 CURVE",
"613 -67 OFFCURVE",
"526 -86 OFFCURVE",
"440 -86 CURVE SMOOTH",
"230 -86 OFFCURVE",
"84 55 OFFCURVE",
"84 274 CURVE SMOOTH",
"84 474 OFFCURVE",
"229 632 OFFCURVE",
"422 632 CURVE SMOOTH",
"605 632 OFFCURVE",
"728 520 OFFCURVE",
"728 339 CURVE SMOOTH",
"728 236 OFFCURVE",
"679 126 OFFCURVE",
"583 126 CURVE SMOOTH",
"540 126 OFFCURVE",
"517 144 OFFCURVE",
"517 196 CURVE SMOOTH",
"517 211 OFFCURVE",
"523 253 OFFCURVE",
"528 270 CURVE SMOOTH",
"574 444 LINE",
"555 454 OFFCURVE",
"514 462 OFFCURVE",
"482 462 CURVE SMOOTH",
"347 462 OFFCURVE",
"238 353 OFFCURVE",
"238 222 CURVE SMOOTH",
"238 152 OFFCURVE",
"273 96 OFFCURVE",
"348 96 CURVE SMOOTH",
"409 96 OFFCURVE",
"453 129 OFFCURVE",
"487 184 CURVE",
"489 126 OFFCURVE",
"519 94 OFFCURVE",
"577 94 CURVE SMOOTH"
);
},
{
closed = 1;
nodes = (
"305 129 OFFCURVE",
"277 168 OFFCURVE",
"277 223 CURVE SMOOTH",
"277 329 OFFCURVE",
"364 430 OFFCURVE",
"476 430 CURVE SMOOTH",
"500 430 OFFCURVE",
"505 428 OFFCURVE",
"530 422 CURVE",
"490 268 LINE SMOOTH",
"471 195 OFFCURVE",
"433 129 OFFCURVE",
"357 129 CURVE SMOOTH"
);
}
);
width = 811;
}
);
leftKerningGroup = O;
note = at;
rightKerningGroup = O;
unicode = 0040;
},
{
glyphname = A;
lastChange = "2017-11-28 23:36:01 +0000";
layers = (
{
anchors = (
{
name = bottom;
position = "{386, 0}";
},
{
name = ogonek;
position = "{759, 10}";
},
{
name = top;
position = "{386, 708}";
}
);
components = (
{
name = SerfiBottomSymmetrical;
transform = "{1, 0, 0, 1, 91, 0}";
},
{
name = SerfiBottomSymmetrical;
transform = "{1, 0, 0, 1, 639, 0}";
}
);
layerId = "3F211455-7DB7-4737-9D97-BF0B219628E9";
paths = (
{
closed = 1;
nodes = (
"126 0 LINE",
"216 232 LINE",
"558 232 LINE",
"648 0 LINE",
"704 0 LINE",
"414 708 LINE",
"387 708 LINE",
"360 708 LINE",
"70 0 LINE"
);
},
{
closed = 1;
nodes = (
"371 614 LINE",
"387 659 LINE",
"403 614 LINE",
"542 270 LINE",
"232 270 LINE"
);
}
);
width = 771;
}
);
leftKerningGroup = A;
note = A;
rightKerningGroup = A;
unicode = 0041;
},
{
glyphname = B;
lastChange = "2017-11-28 23:36:01 +0000";
layers = (
{
anchors = (
{
name = top;
position = "{319, 708}";
}
);
components = (
{
name = SerfiBottomSymmetrical;
transform = "{-1, 0, 0, -1, 169, 708}";
},
{
name = SerfiBottomSymmetrical;
transform = "{1, 0, 0, 1, 123, 0}";
}
);
layerId = "3F211455-7DB7-4737-9D97-BF0B219628E9";
paths = (
{
closed = 1;
nodes = (
"364 0 LINE SMOOTH",
"464 0 OFFCURVE",
"551 32 OFFCURVE",
"587 112 CURVE SMOOTH",
"598 136 OFFCURVE",
"603 163 OFFCURVE",
"603 193 CURVE SMOOTH",
"603 293 OFFCURVE",
"534 347 OFFCURVE",
"429 362 CURVE",
"513 384 OFFCURVE",
"574 446 OFFCURVE",
"574 528 CURVE SMOOTH",
"574 611 OFFCURVE",
"531 673 OFFCURVE",
"443 696 CURVE SMOOTH",
"413 704 OFFCURVE",
"378 708 OFFCURVE",
"338 708 CURVE SMOOTH",
"135 708 LINE",
"135 0 LINE"
);
},
{
closed = 1;
nodes = (
"186 339 LINE",
"364 339 LINE SMOOTH",
"469 339 OFFCURVE",
"552 292 OFFCURVE",
"552 194 CURVE SMOOTH",
"552 91 OFFCURVE",
"480 41 OFFCURVE",
"363 41 CURVE SMOOTH",
"186 41 LINE"
);
},
{
closed = 1;
nodes = (
"186 668 LINE",
"338 668 LINE SMOOTH",
"451 668 OFFCURVE",
"523 628 OFFCURVE",
"523 523 CURVE SMOOTH",
"523 430 OFFCURVE",
"445 376 OFFCURVE",
"339 376 CURVE SMOOTH",
"186 376 LINE"
);
}
);
width = 638;
}
);
note = B;
unicode = 0042;
},
{
glyphname = C;
lastChange = "2017-11-28 23:36:01 +0000";
layers = (
{
anchors = (
{
name = bottom;
position = "{322, 0}";
},
{
name = top;
position = "{383, 708}";
}
);
components = (
{
name = SerifUpLeft;
transform = "{-1, 0, 0, -1, 609, 665}";
}
);
layerId = "3F211455-7DB7-4737-9D97-BF0B219628E9";
paths = (
{
closed = 1;
nodes = (
"525 699 OFFCURVE",
"449 715 OFFCURVE",
"383 715 CURVE SMOOTH",
"177 715 OFFCURVE",
"37 569 OFFCURVE",
"37 354 CURVE SMOOTH",
"37 146 OFFCURVE",
"166 -8 OFFCURVE",
"369 -8 CURVE SMOOTH",
"468 -8 OFFCURVE",
"555 24 OFFCURVE",
"622 94 CURVE",
"602 115 LINE SMOOTH",
"596 121 OFFCURVE",
"590 119 OFFCURVE",
"584 114 CURVE",
"523 58 OFFCURVE",
"458 36 OFFCURVE",
"373 36 CURVE SMOOTH",
"200 36 OFFCURVE",
"90 166 OFFCURVE",
"90 354 CURVE SMOOTH",
"90 539 OFFCURVE",
"202 671 OFFCURVE",
"383 671 CURVE SMOOTH",
"449 671 OFFCURVE",
"512 657 OFFCURVE",
"592 624 CURVE",
"609 665 LINE"
);
}
);
width = 644;
}
);
leftKerningGroup = C;
note = C;
unicode = 0043;
},
{
glyphname = D;
lastChange = "2017-11-28 23:36:01 +0000";
layers = (
{
anchors = (
{
name = bottom;
position = "{380, 0}";
},
{
name = center;
position = "{380, 354}";
},
{
name = top;
position = "{380, 708}";
}
);
layerId = "3F211455-7DB7-4737-9D97-BF0B219628E9";
paths = (
{
closed = 1;
nodes = (
"718 560 OFFCURVE",
"590 708 OFFCURVE",
"380 708 CURVE SMOOTH",
"50 708 LINE",
"50 689 LINE SMOOTH",
"50 678 OFFCURVE",
"57 672 OFFCURVE",
"70 671 CURVE",
"135 669 LINE",
"135 40 LINE",
"70 38 LINE",
"57 37 OFFCURVE",
"50 31 OFFCURVE",
"50 20 CURVE SMOOTH",
"50 0 LINE",
"135 0 LINE",
"380 0 LINE SMOOTH",
"590 0 OFFCURVE",
"718 145 OFFCURVE",
"718 354 CURVE SMOOTH"
);
},
{
closed = 1;
nodes = (
"665 171 OFFCURVE",
"565 41 OFFCURVE",
"380 41 CURVE SMOOTH",
"186 41 LINE",
"186 667 LINE",
"380 667 LINE SMOOTH",
"562 667 OFFCURVE",
"665 539 OFFCURVE",
"665 354 CURVE SMOOTH"
);
}
);
width = 760;
}
);
note = D;
unicode = 0044;
},
{
glyphname = E;
lastChange = "2017-11-28 23:36:01 +0000";
layers = (
{
anchors = (
{
name = bottom;
position = "{311, 0}";
},
{
name = ogonek;
position = "{560, 10}";
},
{
name = top;
position = "{311, 708}";
}
);
layerId = "3F211455-7DB7-4737-9D97-BF0B219628E9";
paths = (
{
closed = 1;
nodes = (
"50 708 LINE",
"50 689 LINE SMOOTH",
"50 678 OFFCURVE",
"57 672 OFFCURVE",
"70 671 CURVE",
"135 669 LINE",
"135 40 LINE",
"70 38 LINE",
"57 37 OFFCURVE",
"51 31 OFFCURVE",
"51 20 CURVE SMOOTH",
"51 0 LINE",
"559 0 LINE",
"559 147 LINE",
"534 147 LINE SMOOTH",
"520 147 OFFCURVE",
"514 138 OFFCURVE",
"513 122 CURVE",
"509 43 LINE",
"186 43 LINE",
"186 338 LINE",
"468 338 LINE",
"468 379 LINE",
"186 379 LINE",
"186 666 LINE",
"509 666 LINE",
"513 586 LINE",
"514 570 OFFCURVE",
"520 562 OFFCURVE",
"534 562 CURVE SMOOTH",
"559 562 LINE",
"559 708 LINE"
);
}
);
width = 622;
}
);
note = E;
unicode = 0045;
},
{
glyphname = F;
lastChange = "2017-11-28 23:36:01 +0000";
layers = (
{
anchors = (
{
name = bottom;
position = "{298, 0}";
},
{
name = top;
position = "{298, 708}";
}
);
layerId = "3F211455-7DB7-4737-9D97-BF0B219628E9";
paths = (
{
closed = 1;
nodes = (
"50 708 LINE",
"50 689 LINE SMOOTH",
"50 678 OFFCURVE",
"57 672 OFFCURVE",
"70 671 CURVE",
"135 669 LINE",
"135 40 LINE",
"70 38 LINE",
"57 37 OFFCURVE",
"50 31 OFFCURVE",
"50 20 CURVE SMOOTH",
"50 0 LINE",
"270 0 LINE",
"270 20 LINE SMOOTH",
"270 31 OFFCURVE",
"264 37 OFFCURVE",
"251 38 CURVE",
"186 40 LINE",
"186 325 LINE",
"450 325 LINE",
"450 368 LINE",
"186 368 LINE",
"186 666 LINE",
"515 666 LINE",
"519 586 LINE",
"520 570 OFFCURVE",
"527 562 OFFCURVE",
"541 562 CURVE SMOOTH",
"565 562 LINE",
"565 708 LINE"
);
}
);
width = 595;
}
);
note = F;
unicode = 0046;
},
{
glyphname = G;
lastChange = "2017-11-28 23:36:01 +0000";
layers = (
{
anchors = (
{
name = bottom;
position = "{349, 0}";
},
{
name = top;
position = "{375, 708}";
}
);
layerId = "3F211455-7DB7-4737-9D97-BF0B219628E9";
paths = (
{
closed = 1;
nodes = (
"453 321 LINE",
"453 293 LINE SMOOTH",
"453 290 OFFCURVE",
"456 282 OFFCURVE",
"466 282 CURVE SMOOTH",
"602 282 LINE",
"602 91 LINE",
"526 48 OFFCURVE",
"471 34 OFFCURVE",
"384 34 CURVE SMOOTH",
"199 34 OFFCURVE",
"89 166 OFFCURVE",
"89 354 CURVE SMOOTH",
"89 540 OFFCURVE",
"200 671 OFFCURVE",
"390 671 CURVE SMOOTH",
"474 671 OFFCURVE",
"541 660 OFFCURVE",
"590 637 CURVE",
"595 529 LINE",
"596 513 OFFCURVE",
"603 505 OFFCURVE",
"617 505 CURVE SMOOTH",
"641 505 LINE",
"641 665 LINE",
"580 693 OFFCURVE",
"468 715 OFFCURVE",
"392 715 CURVE SMOOTH",
"173 715 OFFCURVE",
"37 573 OFFCURVE",
"37 354 CURVE SMOOTH",
"37 140 OFFCURVE",
"172 -8 OFFCURVE",
"380 -8 CURVE SMOOTH",
"488 -8 OFFCURVE",
"562 13 OFFCURVE",
"648 70 CURVE",
"648 321 LINE"
);
}
);
width = 698;
}
);
leftKerningGroup = C;
note = G;
unicode = 0047;
},
{
glyphname = H;
lastChange = "2017-11-28 23:36:01 +0000";
layers = (
{
anchors = (
{
name = bottom;
position = "{406, 0}";
},
{
name = center;
position = "{406, 354}";
},
{
name = top;
position = "{406, 708}";
}
);
layerId = "3F211455-7DB7-4737-9D97-BF0B219628E9";
paths = (
{
closed = 1;
nodes = (
"745 671 LINE",
"758 672 OFFCURVE",
"765 678 OFFCURVE",
"765 689 CURVE SMOOTH",
"765 708 LINE",
"545 708 LINE",
"545 689 LINE SMOOTH",
"545 678 OFFCURVE",
"552 672 OFFCURVE",
"565 671 CURVE",
"629 669 LINE",
"629 378 LINE",
"186 378 LINE",
"186 669 LINE",
"251 671 LINE",
"264 672 OFFCURVE",
"270 678 OFFCURVE",
"270 689 CURVE SMOOTH",
"270 708 LINE",
"50 708 LINE",
"50 689 LINE SMOOTH",
"50 678 OFFCURVE",
"57 672 OFFCURVE",
"70 671 CURVE",
"135 669 LINE",
"135 40 LINE",
"70 38 LINE",
"57 37 OFFCURVE",
"50 31 OFFCURVE",
"50 20 CURVE SMOOTH",
"50 0 LINE",
"270 0 LINE",
"270 20 LINE SMOOTH",
"270 31 OFFCURVE",
"264 37 OFFCURVE",
"251 38 CURVE",
"186 40 LINE",
"186 339 LINE",
"629 339 LINE",
"629 40 LINE",
"565 38 LINE",
"552 37 OFFCURVE",
"545 31 OFFCURVE",
"545 20 CURVE SMOOTH",
"545 0 LINE",
"765 0 LINE",
"765 20 LINE SMOOTH",
"765 31 OFFCURVE",
"758 37 OFFCURVE",
"745 38 CURVE",
"681 40 LINE",
"681 669 LINE"
);
}
);
width = 811;
}
);
note = H;
unicode = 0048;
},
{
glyphname = I;
lastChange = "2017-11-28 23:36:01 +0000";
layers = (
{
anchors = (
{
name = bottom;
position = "{158, 0}";
},
{
name = ogonek;
position = "{251, 10}";
},
{
name = top;
position = "{158, 708}";
}
);
layerId = "3F211455-7DB7-4737-9D97-BF0B219628E9";
paths = (
{
closed = 1;
nodes = (
"251 670 LINE",
"264 671 OFFCURVE",
"270 677 OFFCURVE",
"270 688 CURVE SMOOTH",
"270 708 LINE",
"50 708 LINE",
"50 688 LINE SMOOTH",
"50 677 OFFCURVE",
"57 671 OFFCURVE",
"70 670 CURVE",
"135 668 LINE",
"135 40 LINE",
"70 38 LINE",
"57 37 OFFCURVE",
"50 31 OFFCURVE",
"50 20 CURVE SMOOTH",
"50 0 LINE",
"270 0 LINE",
"270 20 LINE SMOOTH",
"270 31 OFFCURVE",
"264 37 OFFCURVE",
"251 38 CURVE",
"186 40 LINE",
"186 668 LINE"
);
}
);
width = 316;
}
);
note = I;
unicode = 0049;
},
{
glyphname = J;
lastChange = "2017-11-28 23:36:01 +0000";
layers = (
{
anchors = (
{
name = bottom;
position = "{225, 0}";
},
{
name = top;
position = "{316, 708}";
}
);
layerId = "3F211455-7DB7-4737-9D97-BF0B219628E9";
paths = (
{
closed = 1;
nodes = (
"199 708 LINE",
"199 688 LINE SMOOTH",
"199 677 OFFCURVE",
"206 671 OFFCURVE",
"219 670 CURVE",
"291 668 LINE",
"291 235 LINE SMOOTH",
"291 112 OFFCURVE",
"239 35 OFFCURVE",
"127 35 CURVE SMOOTH",
"111 35 OFFCURVE",
"86 39 OFFCURVE",
"65 44 CURVE SMOOTH",
"50 47 OFFCURVE",
"47 45 OFFCURVE",
"43 29 CURVE",
"38 7 LINE",
"65 -1 OFFCURVE",
"104 -8 OFFCURVE",
"131 -8 CURVE SMOOTH",
"268 -8 OFFCURVE",
"342 85 OFFCURVE",
"342 236 CURVE SMOOTH",
"342 668 LINE",
"407 670 LINE",
"420 671 OFFCURVE",
"427 677 OFFCURVE",
"427 688 CURVE SMOOTH",
"427 708 LINE"
);
}
);
width = 450;
}
);
leftKerningGroup = J;
note = J;
rightKerningGroup = J;
unicode = 004A;
},
{
glyphname = K;
lastChange = "2017-11-28 23:36:01 +0000";
layers = (
{
anchors = (
{
name = bottom;
position = "{359, 0}";
},
{
name = top;
position = "{359, 708}";
}
);
layerId = "3F211455-7DB7-4737-9D97-BF0B219628E9";
paths = (
{
closed = 1;
nodes = (
"618 39 LINE",
"330 340 LINE",
"321 350 OFFCURVE",
"310 360 OFFCURVE",
"294 365 CURVE",
"301 367 OFFCURVE",
"316 377 OFFCURVE",
"327 390 CURVE",
"598 669 LINE",
"636 670 LINE",
"649 671 OFFCURVE",
"656 677 OFFCURVE",
"656 688 CURVE SMOOTH",
"656 708 LINE",
"448 708 LINE",
"448 688 LINE SMOOTH",
"448 677 OFFCURVE",
"455 671 OFFCURVE",
"468 670 CURVE",
"540 669 LINE",
"278 400 LINE SMOOTH",
"264 386 OFFCURVE",
"254 381 OFFCURVE",
"227 381 CURVE SMOOTH",
"185 381 LINE",
"185 669 LINE",
"250 671 LINE",
"263 672 OFFCURVE",
"269 678 OFFCURVE",
"269 689 CURVE SMOOTH",
"269 708 LINE",
"50 708 LINE",
"50 689 LINE SMOOTH",
"50 678 OFFCURVE",
"57 672 OFFCURVE",
"70 671 CURVE",
"134 669 LINE",
"134 40 LINE",
"70 38 LINE",
"57 37 OFFCURVE",
"50 31 OFFCURVE",
"50 20 CURVE SMOOTH",
"50 0 LINE",
"269 0 LINE",
"269 20 LINE SMOOTH",
"269 31 OFFCURVE",
"263 37 OFFCURVE",
"250 38 CURVE",
"185 40 LINE",
"185 341 LINE",
"231 341 LINE SMOOTH",
"252 341 OFFCURVE",
"266 339 OFFCURVE",
"285 320 CURVE SMOOTH",
"560 39 LINE",
"484 38 LINE",
"471 37 OFFCURVE",
"464 31 OFFCURVE",
"464 20 CURVE SMOOTH",
"464 0 LINE",
"677 0 LINE",
"677 20 LINE SMOOTH",
"677 31 OFFCURVE",
"670 37 OFFCURVE",
"657 38 CURVE"
);
}
);
width = 718;
}
);
note = K;
unicode = 004B;
},
{
glyphname = L;
lastChange = "2017-11-28 23:36:01 +0000";
layers = (
{
anchors = (
{
name = bottom;
position = "{291, 0}";
},
{
name = center;
position = "{291, 354}";
},
{
name = top;
position = "{163, 708}";
},
{
name = topright;
position = "{291, 498}";
}
);
components = (
{
name = SerfiBottomSymmetrical;
transform = "{1, 0, 0, 1, 122, 0}";
}
);
layerId = "3F211455-7DB7-4737-9D97-BF0B219628E9";
paths = (
{
closed = 1;
nodes = (
"530 0 LINE",
"530 44 LINE",
"186 44 LINE",
"186 708 LINE",
"135 708 LINE",
"135 0 LINE"
);
},
{
closed = 1;
nodes = (
"530 131 LINE",
"506 131 LINE SMOOTH",
"492 131 OFFCURVE",
"486 122 OFFCURVE",
"485 106 CURVE",
"478 21 LINE",
"530 0 LINE"
);
},
{
closed = 1;
nodes = (
"175 668 LINE",
"251 670 LINE",
"263 671 OFFCURVE",
"270 675 OFFCURVE",
"270 688 CURVE SMOOTH",
"270 708 LINE SMOOTH",
"50 708 LINE",
"50 688 LINE SMOOTH",
"50 675 OFFCURVE",
"57 671 OFFCURVE",
"69 670 CURVE",
"148 668 LINE"
);
}
);
width = 582;
}
);
note = L;
unicode = 004C;
},
{
glyphname = M;
lastChange = "2017-11-28 23:36:01 +0000";
layers = (
{
anchors = (
{
name = bottom;
position = "{482, 0}";
},
{
name = top;
position = "{482, 708}";
}
);
layerId = "3F211455-7DB7-4737-9D97-BF0B219628E9";
paths = (
{
closed = 1;
nodes = (
"898 671 LINE",
"911 672 OFFCURVE",
"918 678 OFFCURVE",
"918 689 CURVE SMOOTH",
"918 708 LINE",
"834 708 LINE",
"798 708 LINE SMOOTH",
"787 708 OFFCURVE",
"785 707 OFFCURVE",
"779 699 CURVE",
"501 207 LINE SMOOTH",
"501 207 OFFCURVE",
"492 187 OFFCURVE",
"488 176 CURVE",
"484 187 OFFCURVE",
"480 197 OFFCURVE",
"475 206 CURVE SMOOTH",
"189 699 LINE",
"183 708 OFFCURVE",
"181 708 OFFCURVE",
"170 708 CURVE SMOOTH",
"135 708 LINE",
"50 708 LINE",
"50 689 LINE SMOOTH",
"50 678 OFFCURVE",
"57 672 OFFCURVE",
"70 671 CURVE",
"135 669 LINE",
"135 40 LINE",
"70 38 LINE",
"57 37 OFFCURVE",
"50 31 OFFCURVE",
"50 20 CURVE SMOOTH",
"50 0 LINE",
"266 0 LINE",
"266 20 LINE SMOOTH",
"266 31 OFFCURVE",
"259 37 OFFCURVE",
"246 38 CURVE",
"179 40 LINE",
"179 604 LINE SMOOTH",
"179 613 OFFCURVE",
"179 622 OFFCURVE",
"178 632 CURVE",
"464 136 LINE SMOOTH",
"469 127 OFFCURVE",
"476 123 OFFCURVE",
"484 123 CURVE SMOOTH",
"492 123 LINE SMOOTH",
"501 123 OFFCURVE",
"507 127 OFFCURVE",
"512 136 CURVE SMOOTH",
"790 632 LINE",
"789 622 OFFCURVE",
"789 613 OFFCURVE",
"789 604 CURVE SMOOTH",
"789 40 LINE",
"722 38 LINE",
"709 37 OFFCURVE",
"702 31 OFFCURVE",
"702 20 CURVE SMOOTH",
"702 0 LINE",
"918 0 LINE",
"918 20 LINE SMOOTH",
"918 31 OFFCURVE",
"911 37 OFFCURVE",
"898 38 CURVE",
"834 40 LINE",
"834 669 LINE"
);
}
);
width = 964;
}
);
note = M;
unicode = 004D;
},
{
glyphname = N;
lastChange = "2017-11-28 23:36:01 +0000";
layers = (
{
anchors = (
{
name = bottom;
position = "{395, 0}";
},
{
name = top;
position = "{395, 708}";
}
);
layerId = "3F211455-7DB7-4737-9D97-BF0B219628E9";
paths = (
{
closed = 1;
nodes = (
"549 708 LINE",
"549 689 LINE SMOOTH",
"549 678 OFFCURVE",
"556 672 OFFCURVE",
"569 671 CURVE",
"636 669 LINE",
"636 114 LINE SMOOTH",
"636 105 OFFCURVE",
"636 95 OFFCURVE",
"637 85 CURVE",
"179 698 LINE SMOOTH",
"175 703 OFFCURVE",
"172 708 OFFCURVE",
"160 708 CURVE SMOOTH",
"50 708 LINE",
"50 688 LINE SMOOTH",
"50 677 OFFCURVE",
"57 671 OFFCURVE",
"70 670 CURVE",
"135 668 LINE",
"135 40 LINE",
"70 38 LINE",
"57 37 OFFCURVE",
"50 31 OFFCURVE",
"50 20 CURVE SMOOTH",
"50 0 LINE",
"266 0 LINE",
"266 20 LINE SMOOTH",
"266 31 OFFCURVE",
"259 37 OFFCURVE",
"246 38 CURVE",
"179 40 LINE",
"179 595 LINE SMOOTH",
"179 604 OFFCURVE",
"179 614 OFFCURVE",
"178 624 CURVE",
"638 10 LINE SMOOTH",
"643 3 OFFCURVE",
"648 0 OFFCURVE",
"656 0 CURVE SMOOTH",
"681 0 LINE",
"681 669 LINE",
"745 671 LINE",
"758 672 OFFCURVE",
"765 678 OFFCURVE",
"765 689 CURVE SMOOTH",
"765 708 LINE"
);
}
);
width = 789;
}
);
note = N;
unicode = 004E;
},
{
glyphname = O;
lastChange = "2017-11-28 23:36:01 +0000";
layers = (
{
anchors = (
{
name = bottom;
position = "{377, 0}";
},
{
name = center;
position = "{377, 354}";
},
{
name = ogonek;
position = "{678, 10}";
},
{
name = top;
position = "{377, 708}";
},
{
name = topright;
position = "{733, 708}";
}
);
layerId = "3F211455-7DB7-4737-9D97-BF0B219628E9";
paths = (
{
closed = 1;
nodes = (
"712 560 OFFCURVE",
"583 716 OFFCURVE",
"374 716 CURVE SMOOTH",
"169 716 OFFCURVE",
"37 563 OFFCURVE",
"37 354 CURVE SMOOTH",
"37 144 OFFCURVE",
"169 -8 OFFCURVE",
"374 -8 CURVE SMOOTH",
"581 -8 OFFCURVE",
"712 143 OFFCURVE",
"712 354 CURVE SMOOTH"
);
},
{
closed = 1;
nodes = (
"658 165 OFFCURVE",
"554 37 OFFCURVE",
"374 37 CURVE SMOOTH",
"193 37 OFFCURVE",
"90 169 OFFCURVE",
"90 354 CURVE SMOOTH",
"90 541 OFFCURVE",
"197 672 OFFCURVE",
"374 672 CURVE SMOOTH",
"551 672 OFFCURVE",
"658 544 OFFCURVE",
"658 354 CURVE SMOOTH"
);
}
);
width = 753;
}
);
leftKerningGroup = C;
note = O;
rightKerningGroup = D;
unicode = 004F;
},
{
glyphname = P;
lastChange = "2017-11-28 23:36:01 +0000";
layers = (
{
anchors = (
{
name = bottom;
position = "{297, 0}";
},
{
name = top;
position = "{297, 708}";
}
);
layerId = "3F211455-7DB7-4737-9D97-BF0B219628E9";
paths = (
{
closed = 1;
nodes = (
"464 708 OFFCURVE",
"307 708 CURVE SMOOTH",
"50 708 LINE",
"50 689 LINE SMOOTH",
"50 678 OFFCURVE",
"57 672 OFFCURVE",
"70 671 CURVE",
"135 669 LINE",
"135 40 LINE",
"70 38 LINE",
"57 37 OFFCURVE",
"50 31 OFFCURVE",
"50 20 CURVE SMOOTH",
"50 0 LINE",
"270 0 LINE",
"270 20 LINE SMOOTH",
"270 31 OFFCURVE",
"263 37 OFFCURVE",
"250 38 CURVE",
"186 40 LINE",
"186 285 LINE",
"307 285 LINE SMOOTH",
"449 285 OFFCURVE",
"558 363 OFFCURVE",
"558 497 CURVE SMOOTH",
"558 641 OFFCURVE"
);
},
{
closed = 1;
nodes = (
"424 326 OFFCURVE",
"307 326 CURVE SMOOTH",
"186 326 LINE",
"186 668 LINE",
"307 668 LINE SMOOTH",
"430 668 OFFCURVE",
"507 614 OFFCURVE",
"507 498 CURVE SMOOTH",
"507 392 OFFCURVE"
);
}
);
width = 593;
}
);
note = P;
unicode = 0050;
},
{
glyphname = Q;
lastChange = "2017-11-28 23:36:01 +0000";
layers = (
{
anchors = (
{
name = bottom;
position = "{380, 0}";
},
{
name = top;
position = "{380, 708}";
}
);
layerId = "3F211455-7DB7-4737-9D97-BF0B219628E9";
paths = (
{
closed = 1;
nodes = (
"711 560 OFFCURVE",
"582 716 OFFCURVE",
"374 716 CURVE SMOOTH",
"168 716 OFFCURVE",
"36 563 OFFCURVE",
"36 354 CURVE SMOOTH",
"36 143 OFFCURVE",
"168 -8 OFFCURVE",
"374 -8 CURVE SMOOTH",
"415 -8 OFFCURVE",
"479 4 OFFCURVE",
"514 19 CURVE",
"665 -144 LINE",
"670 -150 OFFCURVE",
"681 -156 OFFCURVE",
"697 -156 CURVE SMOOTH",
"740 -156 LINE",
"556 41 LINE",
"661 107 OFFCURVE",
"711 223 OFFCURVE",
"711 354 CURVE SMOOTH"
);
},
{
closed = 1;
nodes = (
"658 165 OFFCURVE",
"554 37 OFFCURVE",
"374 37 CURVE SMOOTH",
"193 37 OFFCURVE",
"89 168 OFFCURVE",
"89 354 CURVE SMOOTH",
"89 539 OFFCURVE",
"195 672 OFFCURVE",
"374 672 CURVE SMOOTH",
"551 672 OFFCURVE",
"658 545 OFFCURVE",
"658 354 CURVE SMOOTH"
);
}
);
width = 759;
}
);
leftKerningGroup = C;
note = Q;
rightKerningGroup = Q;
unicode = 0051;
},
{
glyphname = R;
lastChange = "2017-11-28 23:36:01 +0000";
layers = (
{
anchors = (
{
name = bottom;
position = "{338, 0}";
},
{
name = top;
position = "{295, 707}";
}
);
layerId = "3F211455-7DB7-4737-9D97-BF0B219628E9";
paths = (
{
closed = 1;
nodes = (
"583 39 LINE",
"371 306 LINE SMOOTH",
"365 314 OFFCURVE",
"357 321 OFFCURVE",
"349 326 CURVE",
"465 337 OFFCURVE",
"550 411 OFFCURVE",
"550 522 CURVE SMOOTH",
"550 656 OFFCURVE",
"453 708 OFFCURVE",
"307 708 CURVE SMOOTH",
"51 708 LINE",
"51 689 LINE SMOOTH",
"51 678 OFFCURVE",
"57 672 OFFCURVE",
"70 671 CURVE",
"135 669 LINE",
"135 40 LINE",
"70 38 LINE",
"57 37 OFFCURVE",
"50 31 OFFCURVE",
"50 20 CURVE SMOOTH",
"50 0 LINE",
"270 0 LINE",
"270 20 LINE SMOOTH",
"270 31 OFFCURVE",
"263 37 OFFCURVE",
"250 38 CURVE",
"186 40 LINE",
"186 320 LINE",
"270 320 LINE SMOOTH",
"295 320 OFFCURVE",
"303 318 OFFCURVE",
"318 300 CURVE",
"545 13 LINE SMOOTH",
"550 7 OFFCURVE",
"556 0 OFFCURVE",
"570 0 CURVE",
"640 0 LINE",
"640 20 LINE SMOOTH",
"640 31 OFFCURVE",
"634 37 OFFCURVE",
"621 38 CURVE"
);
},
{
closed = 1;
nodes = (
"186 358 LINE",
"186 668 LINE",
"307 668 LINE SMOOTH",
"419 668 OFFCURVE",
"500 629 OFFCURVE",
"500 518 CURVE SMOOTH",
"500 414 OFFCURVE",
"418 358 OFFCURVE",
"300 358 CURVE SMOOTH"
);
}
);
width = 676;
}
);
note = R;
unicode = 0052;
},
{
glyphname = S;
lastChange = "2017-11-28 23:36:01 +0000";
layers = (
{
anchors = (
{
name = bottom;
position = "{257, 0}";
},
{
name = top;
position = "{257, 708}";
}
);
components = (
{
name = SerifUpLeft;
transform = "{1, 0, 0, 1, 57, 31}";
},
{
name = SerifUpLeft;
transform = "{-1, 0, 0, -1, 458, 674}";
}
);
layerId = "3F211455-7DB7-4737-9D97-BF0B219628E9";
paths = (
{
closed = 1;
nodes = (
"375 -8 OFFCURVE",
"474 74 OFFCURVE",
"474 207 CURVE SMOOTH",
"474 311 OFFCURVE",
"405 351 OFFCURVE",
"296 386 CURVE SMOOTH",
"190 420 OFFCURVE",
"118 449 OFFCURVE",
"118 536 CURVE SMOOTH",
"118 617 OFFCURVE",
"184 673 OFFCURVE",
"276 673 CURVE SMOOTH",
"324 673 OFFCURVE",
"368 665 OFFCURVE",
"408 648 CURVE",
"440 636 LINE",
"458 674 LINE",
"395 701 OFFCURVE",
"335 715 OFFCURVE",
"276 715 CURVE SMOOTH",
"160 715 OFFCURVE",
"71 644 OFFCURVE",
"71 533 CURVE SMOOTH",
"71 428 OFFCURVE",
"134 386 OFFCURVE",
"249 350 CURVE SMOOTH",
"356 316 OFFCURVE",
"426 293 OFFCURVE",
"426 199 CURVE SMOOTH",
"426 100 OFFCURVE",
"358 35 OFFCURVE",
"249 35 CURVE SMOOTH",
"176 35 OFFCURVE",
"143 46 OFFCURVE",
"77 76 CURVE",
"57 31 LINE",
"118 5 OFFCURVE",
"181 -8 OFFCURVE",
"247 -8 CURVE SMOOTH"
);
}
);
width = 514;
}
);
leftKerningGroup = S;
note = S;
rightKerningGroup = S;
unicode = 0053;
},
{
glyphname = T;
lastChange = "2017-11-28 23:36:01 +0000";
layers = (
{
anchors = (
{
name = bottom;
position = "{268, 0}";
},
{
name = center;
position = "{312, 354}";
},
{
name = top;
position = "{312, 708}";
}
);
layerId = "3F211455-7DB7-4737-9D97-BF0B219628E9";
paths = (
{
closed = 1;
nodes = (
"30 708 LINE",
"30 562 LINE",
"55 562 LINE SMOOTH",
"69 562 OFFCURVE",
"75 570 OFFCURVE",
"76 586 CURVE",
"80 665 LINE",
"287 665 LINE",
"287 40 LINE",
"223 38 LINE",
"210 37 OFFCURVE",
"203 31 OFFCURVE",
"203 20 CURVE SMOOTH",
"203 0 LINE",
"423 0 LINE",
"423 20 LINE SMOOTH",
"423 31 OFFCURVE",
"416 37 OFFCURVE",
"403 38 CURVE",
"338 40 LINE",
"338 665 LINE",
"544 665 LINE",
"548 586 LINE",
"549 570 OFFCURVE",
"556 562 OFFCURVE",
"570 562 CURVE SMOOTH",
"594 562 LINE",
"594 708 LINE"
);
}
);
width = 623;
}
);
leftKerningGroup = T;
note = T;
rightKerningGroup = T;
unicode = 0054;
},
{
glyphname = U;
lastChange = "2017-11-28 23:36:01 +0000";
layers = (
{
anchors = (
{
name = bottom;
position = "{376, 0}";
},
{
name = ogonek;
position = "{509, 10}";
},
{
name = top;
position = "{376, 708}";
},
{
name = topright;
position = "{731, 708}";
}
);
layerId = "3F211455-7DB7-4737-9D97-BF0B219628E9";
paths = (
{
closed = 1;
nodes = (
"496 708 LINE",
"496 689 LINE SMOOTH",
"496 678 OFFCURVE",
"503 672 OFFCURVE",
"516 671 CURVE",
"593 669 LINE",
"593 270 LINE SMOOTH",
"593 138 OFFCURVE",
"511 36 OFFCURVE",
"376 36 CURVE SMOOTH",
"242 36 OFFCURVE",
"159 137 OFFCURVE",
"159 270 CURVE SMOOTH",
"159 669 LINE",
"236 671 LINE",
"249 672 OFFCURVE",
"256 678 OFFCURVE",
"256 689 CURVE SMOOTH",
"256 708 LINE",
"24 708 LINE",
"24 689 LINE SMOOTH",
"24 678 OFFCURVE",
"30 672 OFFCURVE",
"43 671 CURVE",
"108 669 LINE",
"108 270 LINE SMOOTH",
"108 110 OFFCURVE",
"211 -8 OFFCURVE",
"376 -8 CURVE SMOOTH",
"538 -8 OFFCURVE",
"644 110 OFFCURVE",
"644 270 CURVE SMOOTH",
"644 669 LINE",
"708 671 LINE",
"721 672 OFFCURVE",
"728 678 OFFCURVE",
"728 689 CURVE SMOOTH",
"728 708 LINE"
);
}
);
width = 751;
}
);
leftKerningGroup = U;
note = U;
rightKerningGroup = J;
unicode = 0055;
},
{
glyphname = V;
lastChange = "2017-11-28 23:36:01 +0000";
layers = (
{
anchors = (
{
name = bottom;
position = "{382, 0}";
},
{
name = top;
position = "{382, 708}";
}
);
layerId = "3F211455-7DB7-4737-9D97-BF0B219628E9";
paths = (
{
closed = 1;
nodes = (
"549 708 LINE",
"549 689 LINE SMOOTH",
"549 678 OFFCURVE",
"555 672 OFFCURVE",
"568 671 CURVE",
"626 669 LINE",
"397 107 LINE SMOOTH",
"391 92 OFFCURVE",
"386 76 OFFCURVE",
"382 58 CURVE",
"378 75 OFFCURVE",
"373 92 OFFCURVE",
"367 107 CURVE SMOOTH",
"136 669 LINE",
"194 671 LINE",
"207 672 OFFCURVE",
"214 678 OFFCURVE",
"214 689 CURVE SMOOTH",
"214 708 LINE",
"24 708 LINE",
"24 689 LINE SMOOTH",
"24 678 OFFCURVE",
"31 672 OFFCURVE",
"44 671 CURVE",
"83 669 LINE",
"359 0 LINE",
"404 0 LINE",
"680 669 LINE",
"718 671 LINE",
"731 672 OFFCURVE",
"738 678 OFFCURVE",
"738 689 CURVE SMOOTH",
"738 708 LINE"
);
}
);
width = 763;
}
);
leftKerningGroup = V;
note = V;
rightKerningGroup = V;
unicode = 0056;
},
{
glyphname = W;
lastChange = "2017-11-28 23:36:01 +0000";
layers = (
{
anchors = (
{
name = bottom;
position = "{552, 0}";
},
{
name = top;
position = "{552, 708}";
}
);
layerId = "3F211455-7DB7-4737-9D97-BF0B219628E9";
paths = (
{
closed = 1;
nodes = (
"889 708 LINE",
"889 689 LINE SMOOTH",
"889 678 OFFCURVE",
"895 672 OFFCURVE",
"908 671 CURVE",
"970 669 LINE",
"800 113 LINE SMOOTH",
"796 100 OFFCURVE",
"793 83 OFFCURVE",
"790 68 CURVE",
"787 83 OFFCURVE",
"783 100 OFFCURVE",
"779 113 CURVE",
"579 695 LINE",
"576 702 OFFCURVE",
"573 708 OFFCURVE",
"560 708 CURVE SMOOTH",
"546 708 LINE SMOOTH",
"536 708 OFFCURVE",
"528 701 OFFCURVE",
"527 695 CURVE",
"327 112 LINE",
"324 102 OFFCURVE",
"320 82 OFFCURVE",
"316 67 CURVE",
"313 82 OFFCURVE",
"309 102 OFFCURVE",
"306 113 CURVE SMOOTH",
"136 669 LINE",
"194 671 LINE",
"207 672 OFFCURVE",
"214 678 OFFCURVE",
"214 689 CURVE SMOOTH",
"214 708 LINE",
"24 708 LINE",
"24 689 LINE SMOOTH",
"24 678 OFFCURVE",
"31 672 OFFCURVE",
"44 671 CURVE",
"79 669 LINE",
"290 0 LINE",
"335 0 LINE",
"545 614 LINE SMOOTH",
"548 622 OFFCURVE",
"550 630 OFFCURVE",
"552 639 CURVE",
"554 630 OFFCURVE",
"556 622 OFFCURVE",
"559 614 CURVE SMOOTH",
"768 0 LINE",
"814 0 LINE",
"1024 669 LINE",
"1059 671 LINE",
"1072 672 OFFCURVE",
"1078 678 OFFCURVE",
"1078 689 CURVE SMOOTH",
"1078 708 LINE"
);
}
);
width = 1103;
}
);
leftKerningGroup = V;
note = W;
rightKerningGroup = V;
unicode = 0057;
},
{
glyphname = X;
lastChange = "2017-11-28 23:36:01 +0000";
layers = (
{
layerId = "3F211455-7DB7-4737-9D97-BF0B219628E9";
paths = (
{
closed = 1;
nodes = (
"662 38 LINE SMOOTH",
"659 38 OFFCURVE",
"654 39 OFFCURVE",
"649 39 CURVE SMOOTH",
"644 39 OFFCURVE",
"638 40 OFFCURVE",
"631 40 CURVE",
"404 366 LINE",
"621 669 LINE",
"661 671 LINE",
"674 672 OFFCURVE",
"681 678 OFFCURVE",
"681 689 CURVE SMOOTH",
"681 708 LINE",
"483 708 LINE",
"483 689 LINE SMOOTH",
"483 678 OFFCURVE",
"490 672 OFFCURVE",
"503 671 CURVE",
"564 669 LINE",
"377 403 LINE SMOOTH",
"375 400 OFFCURVE",
"372 393 OFFCURVE",
"370 387 CURVE",
"176 669 LINE",
"231 671 LINE",
"244 672 OFFCURVE",
"250 678 OFFCURVE",
"250 689 CURVE SMOOTH",
"250 708 LINE",
"56 708 LINE",
"56 689 LINE SMOOTH",
"56 678 OFFCURVE",
"63 672 OFFCURVE",
"76 671 CURVE",
"117 669 LINE",
"332 363 LINE",
"105 40 LINE",
"64 38 LINE",
"51 37 OFFCURVE",
"44 31 OFFCURVE",
"44 20 CURVE SMOOTH",
"44 0 LINE",
"243 0 LINE",
"243 20 LINE SMOOTH",
"243 31 OFFCURVE",
"236 37 OFFCURVE",
"223 38 CURVE",
"161 40 LINE",
"361 324 LINE",
"364 329 OFFCURVE",
"367 333 OFFCURVE",
"368 338 CURVE",
"572 40 LINE",
"561 40 OFFCURVE",
"551 39 OFFCURVE",
"542 39 CURVE SMOOTH",
"533 39 OFFCURVE",
"526 38 OFFCURVE",
"523 38 CURVE SMOOTH",
"516 38 LINE",
"503 37 OFFCURVE",
"496 31 OFFCURVE",
"496 20 CURVE SMOOTH",
"496 0 LINE",
"604 0 LINE",
"608 0 LINE",
"644 0 LINE",
"659 0 LINE",
"688 0 LINE",
"688 20 LINE SMOOTH",
"688 31 OFFCURVE",
"681 37 OFFCURVE",
"668 38 CURVE"
);
}
);
width = 732;
}
);
leftKerningGroup = X;
note = X;
rightKerningGroup = K;
unicode = 0058;
},
{
glyphname = Y;
lastChange = "2017-11-28 23:36:01 +0000";
layers = (
{
anchors = (
{
name = bottom;
position = "{344, 0}";
},
{
name = top;
position = "{344, 708}";
}
);
layerId = "3F211455-7DB7-4737-9D97-BF0B219628E9";
paths = (
{
closed = 1;
nodes = (
"478 708 LINE",
"478 689 LINE SMOOTH",
"478 678 OFFCURVE",
"485 672 OFFCURVE",
"498 671 CURVE",
"550 669 LINE",
"365 370 LINE SMOOTH",
"356 356 OFFCURVE",
"354 349 OFFCURVE",
"344 326 CURVE",
"336 345 OFFCURVE",
"333 354 OFFCURVE",
"323 370 CURVE SMOOTH",
"137 669 LINE",
"189 671 LINE",
"202 672 OFFCURVE",
"209 678 OFFCURVE",
"209 689 CURVE SMOOTH",
"209 708 LINE",
"24 708 LINE",
"24 689 LINE SMOOTH",
"24 678 OFFCURVE",
"31 672 OFFCURVE",
"44 671 CURVE",
"81 669 LINE",
"318 292 LINE",
"318 40 LINE",
"254 38 LINE",
"241 37 OFFCURVE",
"234 31 OFFCURVE",
"234 20 CURVE SMOOTH",
"234 0 LINE",
"453 0 LINE",
"453 20 LINE SMOOTH",
"453 31 OFFCURVE",
"447 37 OFFCURVE",
"434 38 CURVE",
"369 40 LINE",
"369 292 LINE",
"606 669 LINE",
"643 671 LINE",
"656 672 OFFCURVE",
"663 678 OFFCURVE",
"663 689 CURVE SMOOTH",
"663 708 LINE"
);
}
);
width = 687;
}
);
leftKerningGroup = Y;
note = Y;
rightKerningGroup = Y;
unicode = 0059;
},
{
glyphname = Z;
lastChange = "2017-11-28 23:36:01 +0000";
layers = (
{
anchors = (
{
name = bottom;
position = "{317, 0}";
},
{
name = top;
position = "{317, 708}";
}
);
components = (
{
name = SerifUpRight;
transform = "{1, 0, 0, 1, 571, 0}";
},
{
name = SerifUpRight;
transform = "{-1, 0, 0, -1, 64, 708}";
}
);
layerId = "3F211455-7DB7-4737-9D97-BF0B219628E9";
paths = (
{
closed = 1;
nodes = (
"571 0 LINE",
"571 42 LINE",
"119 42 LINE",
"568 670 LINE SMOOTH",
"573 677 OFFCURVE",
"575 684 OFFCURVE",
"575 691 CURVE SMOOTH",
"575 708 LINE",
"64 708 LINE",
"64 666 LINE",
"507 666 LINE",
"57 36 LINE SMOOTH",
"53 30 OFFCURVE",
"52 25 OFFCURVE",
"52 19 CURVE SMOOTH",
"52 0 LINE"
);
}
);
width = 633;
}
);
leftKerningGroup = Z;
note = Z;
rightKerningGroup = uni01F1;
unicode = 005A;
},
{
glyphname = bracketleft;
lastChange = "2017-11-28 23:36:01 +0000";
layers = (
{
layerId = "3F211455-7DB7-4737-9D97-BF0B219628E9";
paths = (
{
closed = 1;
nodes = (
"85 -132 LINE",
"244 -132 LINE",
"244 -114 LINE SMOOTH",
"244 -102 OFFCURVE",
"237 -100 OFFCURVE",
"228 -100 CURVE SMOOTH",
"126 -100 LINE",
"126 726 LINE",
"228 726 LINE SMOOTH",
"238 726 OFFCURVE",
"244 731 OFFCURVE",
"244 740 CURVE SMOOTH",
"244 758 LINE",
"85 758 LINE"
);
}
);
width = 269;
}
);
note = bracketleft;
unicode = 005B;
},
{
glyphname = backslash;
lastChange = "2017-11-28 23:36:01 +0000";
layers = (
{
layerId = "3F211455-7DB7-4737-9D97-BF0B219628E9";
paths = (
{
closed = 1;
nodes = (
"32 728 LINE",
"343 -22 LINE SMOOTH",
"348 -35 OFFCURVE",
"359 -42 OFFCURVE",
"372 -42 CURVE SMOOTH",
"391 -42 LINE",
"80 709 LINE SMOOTH",
"75 721 OFFCURVE",
"66 728 OFFCURVE",
"53 728 CURVE SMOOTH"
);
}
);
width = 414;
}
);
note = backslash;
unicode = 005C;
},
{
glyphname = bracketright;
lastChange = "2017-11-28 23:36:01 +0000";
layers = (
{
layerId = "3F211455-7DB7-4737-9D97-BF0B219628E9";
paths = (
{
closed = 1;
nodes = (
"25 -132 LINE",
"184 -132 LINE",
"184 758 LINE",
"25 758 LINE",
"25 740 LINE SMOOTH",
"25 732 OFFCURVE",
"31 726 OFFCURVE",
"40 726 CURVE SMOOTH",
"143 726 LINE",
"143 -100 LINE",
"40 -100 LINE SMOOTH",
"31 -100 OFFCURVE",
"25 -106 OFFCURVE",
"25 -114 CURVE SMOOTH"
);
}
);
width = 268;
}
);
note = bracketright;
unicode = 005D;
},
{
glyphname = asciicircum;
lastChange = "2017-11-28 23:36:01 +0000";
layers = (
{
layerId = "3F211455-7DB7-4737-9D97-BF0B219628E9";
paths = (
{
closed = 1;
nodes = (
"212 708 LINE",
"42 400 LINE",
"78 400 LINE SMOOTH",
"86 400 OFFCURVE",
"90 406 OFFCURVE",
"94 412 CURVE",
"214 630 LINE",
"220 640 OFFCURVE",
"222 646 OFFCURVE",
"228 661 CURVE",
"233 646 OFFCURVE",
"237 640 OFFCURVE",
"242 630 CURVE",
"362 412 LINE",
"365 408 OFFCURVE",
"368 400 OFFCURVE",
"379 400 CURVE SMOOTH",
"413 400 LINE",
"242 708 LINE"
);
}
);
width = 455;
}
);
note = asciicircum;
unicode = 005E;
},
{
glyphname = underscore;
lastChange = "2017-11-28 23:36:01 +0000";
layers = (
{
layerId = "3F211455-7DB7-4737-9D97-BF0B219628E9";
paths = (
{
closed = 1;
nodes = (
"482 -102 LINE",
"88 -102 LINE",
"88 -136 LINE",
"482 -136 LINE"
);
}
);
width = 570;
}
);
note = underscore;
unicode = 005F;
},
{
glyphname = grave;
lastChange = "2017-11-28 23:36:01 +0000";
layers = (
{
anchors = (
{
name = _top;
position = "{207, 499}";
}
);
layerId = "3F211455-7DB7-4737-9D97-BF0B219628E9";
paths = (
{
closed = 1;
nodes = (
"58 716 LINE",
"167 589 LINE",
"171 585 OFFCURVE",
"174 580 OFFCURVE",
"186 580 CURVE SMOOTH",
"212 580 LINE",
"134 700 LINE SMOOTH",
"128 709 OFFCURVE",
"120 716 OFFCURVE",
"104 716 CURVE SMOOTH"
);
}
);
width = 271;
}
);
note = grave;
unicode = 0060;
},
{
glyphname = a;
lastChange = "2017-11-28 23:36:01 +0000";
layers = (
{
anchors = (
{
name = bottom;
position = "{257, 0}";
},
{
name = ogonek;
position = "{462, 10}";
},
{
name = top;
position = "{246, 498}";
}
);
layerId = "3F211455-7DB7-4737-9D97-BF0B219628E9";
paths = (
{
closed = 1;
nodes = (
"404 39 LINE",
"404 324 LINE SMOOTH",
"404 431 OFFCURVE",
"353 506 OFFCURVE",
"244 506 CURVE SMOOTH",
"173 506 OFFCURVE",
"117 479 OFFCURVE",
"65 427 CURVE",
"73 412 LINE SMOOTH",
"79 400 OFFCURVE",
"92 399 OFFCURVE",
"107 414 CURVE SMOOTH",
"135 442 OFFCURVE",
"190 467 OFFCURVE",
"239 467 CURVE SMOOTH",
"319 467 OFFCURVE",
"357 416 OFFCURVE",
"357 324 CURVE SMOOTH",
"357 272 LINE",
"224 271 OFFCURVE",
"40 240 OFFCURVE",
"40 121 CURVE SMOOTH",
"40 40 OFFCURVE",
"95 -8 OFFCURVE",
"173 -8 CURVE SMOOTH",
"254 -8 OFFCURVE",
"298 21 OFFCURVE",
"359 78 CURVE",
"366 14 LINE",
"368 5 OFFCURVE",
"375 0 OFFCURVE",
"385 0 CURVE SMOOTH",
"386 0 LINE",
"470 0 LINE",
"470 20 LINE SMOOTH",
"470 31 OFFCURVE",
"463 37 OFFCURVE",
"450 38 CURVE"
);
},
{
closed = 1;
nodes = (
"357 111 LINE",
"303 57 OFFCURVE",
"263 27 OFFCURVE",
"185 27 CURVE SMOOTH",
"124 27 OFFCURVE",
"86 61 OFFCURVE",
"86 122 CURVE SMOOTH",
"86 218 OFFCURVE",
"246 239 OFFCURVE",
"357 240 CURVE"
);
}
);
width = 513;
}
);
leftKerningGroup = a;
note = a;
unicode = 0061;
},
{
glyphname = b;
lastChange = "2017-11-28 23:36:01 +0000";
layers = (
{
layerId = "3F211455-7DB7-4737-9D97-BF0B219628E9";
paths = (
{
closed = 1;
nodes = (
"452 506 OFFCURVE",
"316 506 CURVE SMOOTH",
"248 506 OFFCURVE",
"189 473 OFFCURVE",
"142 411 CURVE",
"141 728 LINE",
"94 728 LINE",
"22 728 LINE",
"22 708 LINE SMOOTH",
"22 697 OFFCURVE",
"28 691 OFFCURVE",
"41 690 CURVE",
"94 688 LINE",
"94 47 LINE",
"94 22 LINE",
"182 3 OFFCURVE",
"248 -6 OFFCURVE",
"293 -6 CURVE SMOOTH",
"430 -6 OFFCURVE",
"510 103 OFFCURVE",
"510 252 CURVE SMOOTH",
"510 402 OFFCURVE"
);
},
{
closed = 1;
nodes = (
"406 31 OFFCURVE",
"284 31 CURVE SMOOTH",
"258 31 OFFCURVE",
"210 38 OFFCURVE",
"141 52 CURVE",
"141 371 LINE",
"182 429 OFFCURVE",
"236 468 OFFCURVE",
"302 468 CURVE SMOOTH",
"416 468 OFFCURVE",
"461 383 OFFCURVE",
"461 252 CURVE SMOOTH",
"461 126 OFFCURVE"
);
}
);
width = 547;
}
);
note = b;
unicode = 0062;
},
{
glyphname = c;
lastChange = "2017-11-28 23:36:01 +0000";
layers = (
{
anchors = (
{
name = bottom;
position = "{230, 0}";
},
{
name = top;
position = "{251, 498}";
}
);
layerId = "3F211455-7DB7-4737-9D97-BF0B219628E9";
paths = (
{
closed = 1;
nodes = (
"409 80 LINE",
"405 86 OFFCURVE",
"396 88 OFFCURVE",
"385 77 CURVE SMOOTH",
"358 50 OFFCURVE",
"308 31 OFFCURVE",
"259 31 CURVE SMOOTH",
"146 31 OFFCURVE",
"87 122 OFFCURVE",
"87 249 CURVE SMOOTH",
"87 376 OFFCURVE",
"147 468 OFFCURVE",
"266 468 CURVE SMOOTH",
"291 468 OFFCURVE",
"319 462 OFFCURVE",
"351 451 CURVE",
"352 430 OFFCURVE",
"357 374 OFFCURVE",
"357 373 CURVE",
"358 357 OFFCURVE",
"365 349 OFFCURVE",
"379 349 CURVE SMOOTH",
"403 349 LINE",
"403 474 LINE",
"351 495 OFFCURVE",
"300 505 OFFCURVE",
"263 505 CURVE SMOOTH",
"117 505 OFFCURVE",
"38 397 OFFCURVE",
"38 249 CURVE SMOOTH",
"38 104 OFFCURVE",
"116 -7 OFFCURVE",
"252 -7 CURVE SMOOTH",
"312 -7 OFFCURVE",
"382 14 OFFCURVE",
"422 64 CURVE"
);
}
);
width = 459;
}
);
leftKerningGroup = c;
note = c;
unicode = 0063;
},
{
glyphname = d;
lastChange = "2017-11-28 23:36:01 +0000";
layers = (
{
anchors = (
{
name = bottom;
position = "{280, 0}";
},
{
name = center;
position = "{280, 249}";
},
{
name = top;
position = "{280, 498}";
},
{
name = topright;
position = "{479, 498}";
}
);
layerId = "3F211455-7DB7-4737-9D97-BF0B219628E9";
paths = (
{
closed = 1;
nodes = (
"521 20 LINE SMOOTH",
"521 31 OFFCURVE",
"515 37 OFFCURVE",
"502 38 CURVE",
"454 39 LINE",
"454 728 LINE",
"335 728 LINE",
"335 708 LINE SMOOTH",
"335 697 OFFCURVE",
"342 691 OFFCURVE",
"355 690 CURVE",
"407 688 LINE",
"407 433 LINE",
"370 483 OFFCURVE",
"318 506 OFFCURVE",
"255 506 CURVE SMOOTH",
"116 506 OFFCURVE",
"38 393 OFFCURVE",
"38 248 CURVE SMOOTH",
"38 97 OFFCURVE",
"95 -6 OFFCURVE",
"232 -6 CURVE SMOOTH",
"306 -6 OFFCURVE",
"363 29 OFFCURVE",
"409 92 CURVE",
"414 13 LINE",
"415 4 OFFCURVE",
"420 0 OFFCURVE",
"428 0 CURVE SMOOTH",
"521 0 LINE"
);
},
{
closed = 1;
nodes = (
"407 129 LINE",
"366 71 OFFCURVE",
"312 32 OFFCURVE",
"246 32 CURVE SMOOTH",
"132 32 OFFCURVE",
"87 115 OFFCURVE",
"87 248 CURVE SMOOTH",
"87 371 OFFCURVE",
"141 469 OFFCURVE",
"264 469 CURVE SMOOTH",
"326 469 OFFCURVE",
"372 443 OFFCURVE",
"407 391 CURVE"
);
}
);
width = 560;
}
);
leftKerningGroup = c;
note = d;
unicode = 0064;
},
{
glyphname = e;
lastChange = "2017-11-28 23:36:01 +0000";
layers = (
{
anchors = (
{
name = bottom;
position = "{249, 0}";
},
{
name = ogonek;
position = "{447, 10}";
},
{
name = top;
position = "{263, 498}";
}
);
layerId = "3F211455-7DB7-4737-9D97-BF0B219628E9";
paths = (
{
closed = 1;
nodes = (
"123 506 OFFCURVE",
"38 400 OFFCURVE",
"38 259 CURVE SMOOTH",
"38 109 OFFCURVE",
"113 -6 OFFCURVE",
"266 -6 CURVE SMOOTH",
"329 -6 OFFCURVE",
"414 19 OFFCURVE",
"450 64 CURVE",
"437 80 LINE",
"433 86 OFFCURVE",
"423 88 OFFCURVE",
"411 77 CURVE SMOOTH",
"380 51 OFFCURVE",
"320 31 OFFCURVE",
"270 31 CURVE SMOOTH",
"143 31 OFFCURVE",
"86 125 OFFCURVE",
"86 268 CURVE",
"445 268 LINE SMOOTH",
"452 268 OFFCURVE",
"459 272 OFFCURVE",
"459 287 CURVE SMOOTH",
"459 414 OFFCURVE",
"386 506 OFFCURVE",
"263 506 CURVE SMOOTH"
);
},
{
closed = 1;
nodes = (
"357 470 OFFCURVE",
"416 402 OFFCURVE",
"416 299 CURVE",
"88 299 LINE",
"100 403 OFFCURVE",
"161 470 OFFCURVE",
"264 470 CURVE SMOOTH"
);
}
);
width = 497;
}
);
leftKerningGroup = c;
note = e;
rightKerningGroup = e;
unicode = 0065;
},
{
glyphname = f;
lastChange = "2017-11-28 23:36:01 +0000";
layers = (
{
layerId = "3F211455-7DB7-4737-9D97-BF0B219628E9";
paths = (
{
closed = 1;
nodes = (
"261 0 LINE",
"261 20 LINE SMOOTH",
"261 31 OFFCURVE",
"254 37 OFFCURVE",
"241 38 CURVE",
"177 40 LINE",
"177 446 LINE",
"337 446 LINE",
"337 482 LINE",
"176 482 LINE",
"176 543 LINE SMOOTH",
"176 622 OFFCURVE",
"204 679 OFFCURVE",
"288 679 CURVE SMOOTH",
"294 679 OFFCURVE",
"318 677 OFFCURVE",
"325 676 CURVE SMOOTH",
"331 675 OFFCURVE",
"340 678 OFFCURVE",
"340 683 CURVE",
"341 706 LINE",
"321 713 OFFCURVE",
"303 716 OFFCURVE",
"282 716 CURVE SMOOTH",
"180 716 OFFCURVE",
"130 646 OFFCURVE",
"130 545 CURVE SMOOTH",
"130 482 LINE",
"45 482 LINE",
"45 462 LINE SMOOTH",
"45 454 OFFCURVE",
"49 451 OFFCURVE",
"59 450 CURVE SMOOTH",
"130 445 LINE",
"130 40 LINE",
"67 38 LINE",
"54 37 OFFCURVE",
"47 31 OFFCURVE",
"47 20 CURVE SMOOTH",
"47 0 LINE"
);
}
);
width = 383;
}
);
note = f;
unicode = 0066;
},
{
glyphname = g;
lastChange = "2017-11-28 23:36:01 +0000";
layers = (
{
anchors = (
{
name = bottom;
position = "{246, -197}";
},
{
name = top;
position = "{258, 498}";
}
);
layerId = "3F211455-7DB7-4737-9D97-BF0B219628E9";
paths = (
{
closed = 1;
nodes = (
"140 506 OFFCURVE",
"60 448 OFFCURVE",
"60 346 CURVE SMOOTH",
"60 289 OFFCURVE",
"87 240 OFFCURVE",
"135 212 CURVE",
"108 198 OFFCURVE",
"74 164 OFFCURVE",
"74 128 CURVE SMOOTH",
"74 94 OFFCURVE",
"88 74 OFFCURVE",
"128 60 CURVE",
"74 42 OFFCURVE",
"30 6 OFFCURVE",
"30 -52 CURVE SMOOTH",
"30 -143 OFFCURVE",
"136 -186 OFFCURVE",
"242 -186 CURVE SMOOTH",
"355 -186 OFFCURVE",
"466 -126 OFFCURVE",
"466 -27 CURVE SMOOTH",
"466 58 OFFCURVE",
"392 75 OFFCURVE",
"291 80 CURVE SMOOTH",
"181 85 OFFCURVE",
"115 87 OFFCURVE",
"115 140 CURVE SMOOTH",
"115 164 OFFCURVE",
"136 186 OFFCURVE",
"160 200 CURVE",
"183 191 OFFCURVE",
"209 188 OFFCURVE",
"238 188 CURVE SMOOTH",
"340 188 OFFCURVE",
"415 247 OFFCURVE",
"415 346 CURVE SMOOTH",
"415 382 OFFCURVE",
"407 410 OFFCURVE",
"386 440 CURVE",
"462 446 LINE SMOOTH",
"471 447 OFFCURVE",
"476 451 OFFCURVE",
"476 459 CURVE SMOOTH",
"476 476 LINE",
"348 476 LINE",
"319 495 OFFCURVE",
"277 506 OFFCURVE",
"238 506 CURVE SMOOTH"
);
},
{
closed = 1;
nodes = (
"423 -107 OFFCURVE",
"337 -150 OFFCURVE",
"243 -150 CURVE SMOOTH",
"169 -150 OFFCURVE",
"73 -124 OFFCURVE",
"73 -47 CURVE SMOOTH",
"73 -3 OFFCURVE",
"107 30 OFFCURVE",
"161 51 CURVE",
"185 47 OFFCURVE",
"226 44 OFFCURVE",
"274 42 CURVE SMOOTH",
"342 38 OFFCURVE",
"423 32 OFFCURVE",
"423 -34 CURVE SMOOTH"
);
},
{
closed = 1;
nodes = (
"158 220 OFFCURVE",
"104 267 OFFCURVE",
"104 345 CURVE SMOOTH",
"104 425 OFFCURVE",
"157 471 OFFCURVE",
"238 471 CURVE SMOOTH",
"317 471 OFFCURVE",
"372 423 OFFCURVE",
"372 346 CURVE SMOOTH",
"372 267 OFFCURVE",
"318 220 OFFCURVE",
"238 220 CURVE SMOOTH"
);
}
);
width = 516;
}
);
leftKerningGroup = c;
note = g;
rightKerningGroup = g;
unicode = 0067;
},
{
glyphname = h;
lastChange = "2017-11-28 23:36:01 +0000";
layers = (
{
layerId = "3F211455-7DB7-4737-9D97-BF0B219628E9";
paths = (
{
closed = 1;
nodes = (
"512 40 LINE",
"512 318 LINE SMOOTH",
"512 433 OFFCURVE",
"458 505 OFFCURVE",
"347 505 CURVE SMOOTH",
"276 505 OFFCURVE",
"220 474 OFFCURVE",
"169 412 CURVE",
"169 727 LINE",
"49 727 LINE",
"49 708 LINE SMOOTH",
"49 697 OFFCURVE",
"56 691 OFFCURVE",
"69 690 CURVE",
"121 688 LINE",
"121 40 LINE",
"69 38 LINE",
"56 37 OFFCURVE",
"49 31 OFFCURVE",
"49 20 CURVE SMOOTH",
"49 0 LINE",
"241 0 LINE",
"241 20 LINE SMOOTH",
"241 31 OFFCURVE",
"234 37 OFFCURVE",
"221 38 CURVE",
"169 40 LINE",
"169 373 LINE",
"210 428 OFFCURVE",
"265 467 OFFCURVE",
"335 467 CURVE SMOOTH",
"425 467 OFFCURVE",
"465 411 OFFCURVE",
"465 318 CURVE SMOOTH",
"465 0 LINE",
"584 0 LINE",
"584 20 LINE SMOOTH",
"584 31 OFFCURVE",
"578 37 OFFCURVE",
"565 38 CURVE"
);
}
);
width = 624;
}
);
note = h;
unicode = 0068;
},
{
glyphname = i;
lastChange = "2017-11-28 23:36:01 +0000";
layers = (
{
layerId = "3F211455-7DB7-4737-9D97-BF0B219628E9";
paths = (
{
closed = 1;
nodes = (
"170 40 LINE",
"170 498 LINE",
"50 498 LINE",
"50 478 LINE SMOOTH",
"50 467 OFFCURVE",
"57 461 OFFCURVE",
"70 460 CURVE",
"122 458 LINE",
"122 40 LINE",
"70 38 LINE",
"57 37 OFFCURVE",
"50 31 OFFCURVE",
"50 20 CURVE SMOOTH",
"50 0 LINE",
"242 0 LINE",
"242 20 LINE SMOOTH",
"242 31 OFFCURVE",
"235 37 OFFCURVE",
"222 38 CURVE"
);
},
{
closed = 1;
nodes = (
"170 625 OFFCURVE",
"189 645 OFFCURVE",
"189 670 CURVE SMOOTH",
"189 694 OFFCURVE",
"170 713 OFFCURVE",
"146 713 CURVE SMOOTH",
"121 713 OFFCURVE",
"102 694 OFFCURVE",
"102 670 CURVE SMOOTH",
"102 645 OFFCURVE",
"121 625 OFFCURVE",
"146 625 CURVE SMOOTH"
);
}
);
width = 282;
}
);
note = i;
unicode = 0069;
},
{
glyphname = j;
lastChange = "2017-11-28 23:36:01 +0000";
layers = (
{
layerId = "3F211455-7DB7-4737-9D97-BF0B219628E9";
paths = (
{
closed = 1;
nodes = (
"51 498 LINE",
"51 479 LINE SMOOTH",
"51 468 OFFCURVE",
"58 462 OFFCURVE",
"71 461 CURVE",
"123 459 LINE",
"123 -63 LINE SMOOTH",
"123 -118 OFFCURVE",
"99 -148 OFFCURVE",
"44 -148 CURVE SMOOTH",
"38 -148 OFFCURVE",
"24 -146 OFFCURVE",
"22 -146 CURVE SMOOTH",
"8 -144 OFFCURVE",
"5 -150 OFFCURVE",
"5 -157 CURVE",
"4 -174 LINE",
"17 -182 OFFCURVE",
"34 -184 OFFCURVE",
"52 -184 CURVE SMOOTH",
"126 -184 OFFCURVE",
"171 -138 OFFCURVE",
"171 -63 CURVE SMOOTH",
"171 498 LINE"
);
},
{
closed = 1;
nodes = (
"171 624 OFFCURVE",
"191 644 OFFCURVE",
"191 669 CURVE SMOOTH",
"191 693 OFFCURVE",
"171 713 OFFCURVE",
"147 713 CURVE SMOOTH",
"123 713 OFFCURVE",
"103 693 OFFCURVE",
"103 669 CURVE SMOOTH",
"103 644 OFFCURVE",
"123 624 OFFCURVE",
"147 624 CURVE SMOOTH"
);
}
);
width = 252;
}
);
leftKerningGroup = j;
note = j;
unicode = 006A;
},
{
glyphname = k;
lastChange = "2017-11-28 23:36:01 +0000";
layers = (
{
anchors = (
{
name = bottom;
position = "{282, 0}";
},
{
name = top;
position = "{282, 498}";
}
);
layerId = "3F211455-7DB7-4737-9D97-BF0B219628E9";
paths = (
{
closed = 1;
nodes = (
"467 39 LINE",
"272 251 LINE",
"266 258 OFFCURVE",
"255 267 OFFCURVE",
"247 272 CURVE",
"253 278 OFFCURVE",
"262 284 OFFCURVE",
"267 289 CURVE SMOOTH",
"445 458 LINE",
"481 460 LINE",
"494 461 OFFCURVE",
"500 467 OFFCURVE",
"500 478 CURVE SMOOTH",
"500 498 LINE",
"346 498 LINE",
"346 478 LINE SMOOTH",
"346 467 OFFCURVE",
"353 461 OFFCURVE",
"366 460 CURVE",
"391 459 LINE",
"219 295 LINE SMOOTH",
"212 288 OFFCURVE",
"202 284 OFFCURVE",
"192 284 CURVE SMOOTH",
"169 284 LINE",
"169 727 LINE",
"49 727 LINE",
"49 708 LINE SMOOTH",
"49 697 OFFCURVE",
"56 691 OFFCURVE",
"69 690 CURVE",
"121 688 LINE",
"121 40 LINE",
"69 38 LINE",
"56 37 OFFCURVE",
"49 31 OFFCURVE",
"49 20 CURVE SMOOTH",
"49 0 LINE",
"241 0 LINE",
"241 20 LINE SMOOTH",
"241 31 OFFCURVE",
"234 37 OFFCURVE",
"221 38 CURVE",
"169 40 LINE",
"169 251 LINE",
"191 251 LINE SMOOTH",
"210 251 OFFCURVE",
"215 249 OFFCURVE",
"229 235 CURVE SMOOTH",
"438 12 LINE SMOOTH",
"442 8 OFFCURVE",
"449 0 OFFCURVE",
"461 0 CURVE",
"525 0 LINE",
"525 20 LINE SMOOTH",
"525 31 OFFCURVE",
"518 37 OFFCURVE",
"505 38 CURVE"
);
}
);
width = 564;
}
);
leftKerningGroup = k;
note = k;
rightKerningGroup = k;
unicode = 006B;
},
{
glyphname = l;
lastChange = "2017-11-28 23:36:01 +0000";
layers = (
{
anchors = (
{
name = bottom;
position = "{150, 0}";
},
{
name = center;
position = "{140, 249}";
},
{
name = top;
position = "{140, 708}";
},
{
name = topright;
position = "{182, 498}";
}
);
layerId = "3F211455-7DB7-4737-9D97-BF0B219628E9";
paths = (
{
closed = 1;
nodes = (
"169 40 LINE",
"169 728 LINE",
"49 728 LINE",
"49 708 LINE SMOOTH",
"49 697 OFFCURVE",
"56 691 OFFCURVE",
"69 690 CURVE",
"121 688 LINE",
"121 40 LINE",
"69 38 LINE",
"56 37 OFFCURVE",
"49 31 OFFCURVE",
"49 20 CURVE SMOOTH",
"49 0 LINE",
"241 0 LINE",
"241 20 LINE SMOOTH",
"241 31 OFFCURVE",
"234 37 OFFCURVE",
"221 38 CURVE"
);
}
);
width = 279;
}
);
note = l;
unicode = 006C;
},
{
glyphname = m;
lastChange = "2017-11-28 23:36:01 +0000";
layers = (
{
layerId = "3F211455-7DB7-4737-9D97-BF0B219628E9";
paths = (
{
closed = 1;
nodes = (
"769 40 LINE",
"769 318 LINE SMOOTH",
"769 427 OFFCURVE",
"719 505 OFFCURVE",
"610 505 CURVE SMOOTH",
"532 505 OFFCURVE",
"472 460 OFFCURVE",
"451 385 CURVE",
"435 461 OFFCURVE",
"395 505 OFFCURVE",
"320 505 CURVE SMOOTH",
"258 505 OFFCURVE",
"213 473 OFFCURVE",
"169 413 CURVE",
"165 486 LINE",
"164 494 OFFCURVE",
"159 498 OFFCURVE",
"150 498 CURVE SMOOTH",
"52 498 LINE",
"52 479 LINE SMOOTH",
"52 468 OFFCURVE",
"58 462 OFFCURVE",
"71 461 CURVE",
"124 459 LINE",
"124 40 LINE",
"71 38 LINE",
"58 37 OFFCURVE",
"52 31 OFFCURVE",
"52 20 CURVE SMOOTH",
"52 0 LINE",
"243 0 LINE",
"243 20 LINE SMOOTH",
"243 31 OFFCURVE",
"237 37 OFFCURVE",
"224 38 CURVE",
"171 40 LINE",
"171 376 LINE",
"202 426 OFFCURVE",
"249 467 OFFCURVE",
"308 467 CURVE SMOOTH",
"389 467 OFFCURVE",
"421 406 OFFCURVE",
"421 318 CURVE SMOOTH",
"421 0 LINE",
"541 0 LINE",
"541 20 LINE SMOOTH",
"541 31 OFFCURVE",
"534 37 OFFCURVE",
"521 38 CURVE",
"469 40 LINE",
"469 318 LINE SMOOTH",
"469 405 OFFCURVE",
"516 467 OFFCURVE",
"600 467 CURVE SMOOTH",
"684 467 OFFCURVE",
"722 407 OFFCURVE",
"722 318 CURVE SMOOTH",
"722 0 LINE",
"841 0 LINE",
"841 20 LINE SMOOTH",
"841 31 OFFCURVE",
"835 37 OFFCURVE",
"822 38 CURVE"
);
}
);
width = 883;
}
);
leftKerningGroup = k;
note = m;
unicode = 006D;
},
{
glyphname = n;
lastChange = "2017-11-28 23:36:01 +0000";
layers = (
{
anchors = (
{
name = bottom;
position = "{315, 0}";
},
{
name = top;
position = "{337, 498}";
}
);
components = (
{
name = SerifSpur;
transform = "{1, 0, 0, 1, 124, 498}";
}
);
layerId = "3F211455-7DB7-4737-9D97-BF0B219628E9";
paths = (
{
closed = 1;
nodes = (
"243 0 LINE",
"243 20 LINE SMOOTH",
"243 31 OFFCURVE",
"237 37 OFFCURVE",
"224 38 CURVE",
"171 40 LINE",
"171 373 LINE",
"214 430 OFFCURVE",
"270 467 OFFCURVE",
"337 467 CURVE SMOOTH",
"429 467 OFFCURVE",
"467 407 OFFCURVE",
"467 318 CURVE SMOOTH",
"467 0 LINE",
"587 0 LINE",
"587 20 LINE SMOOTH",
"587 31 OFFCURVE",
"580 37 OFFCURVE",
"567 38 CURVE",
"515 40 LINE",
"515 318 LINE SMOOTH",
"515 431 OFFCURVE",
"460 505 OFFCURVE",
"349 505 CURVE SMOOTH",
"274 505 OFFCURVE",
"214 467 OFFCURVE",
"169 410 CURVE",
"165 486 LINE",
"164 494 OFFCURVE",
"159 498 OFFCURVE",
"150 498 CURVE SMOOTH",
"124 498 LINE",
"124 459 LINE",
"124 40 LINE",
"71 38 LINE",
"58 37 OFFCURVE",
"52 31 OFFCURVE",
"52 20 CURVE SMOOTH",
"52 0 LINE"
);
}
);
width = 629;
}
);
leftKerningGroup = k;
note = n;
unicode = 006E;
},
{
glyphname = o;
lastChange = "2017-11-28 23:36:01 +0000";
layers = (
{
anchors = (
{
name = bottom;
position = "{265, 0}";
},
{
name = center;
position = "{265, 249}";
},
{
name = ogonek;
position = "{477, 10}";
},
{
name = top;
position = "{265, 498}";
},
{
name = topright;
position = "{510, 498}";
}
);
layerId = "3F211455-7DB7-4737-9D97-BF0B219628E9";
paths = (
{
closed = 1;
nodes = (
"120 506 OFFCURVE",
"38 400 OFFCURVE",
"38 249 CURVE SMOOTH",
"38 98 OFFCURVE",
"119 -6 OFFCURVE",
"266 -6 CURVE SMOOTH",
"409 -6 OFFCURVE",
"492 95 OFFCURVE",
"492 249 CURVE SMOOTH",
"492 401 OFFCURVE",
"410 506 OFFCURVE",
"266 506 CURVE SMOOTH"
);
},
{
closed = 1;
nodes = (
"142 31 OFFCURVE",
"88 121 OFFCURVE",
"88 249 CURVE SMOOTH",
"88 380 OFFCURVE",
"144 468 OFFCURVE",
"266 468 CURVE SMOOTH",
"388 468 OFFCURVE",
"443 376 OFFCURVE",
"443 249 CURVE SMOOTH",
"443 120 OFFCURVE",
"387 31 OFFCURVE",
"266 31 CURVE SMOOTH"
);
}
);
width = 530;
}
);
leftKerningGroup = c;
note = o;
rightKerningGroup = b;
unicode = 006F;
},
{
glyphname = p;
lastChange = "2017-11-28 23:36:01 +0000";
layers = (
{
layerId = "3F211455-7DB7-4737-9D97-BF0B219628E9";
paths = (
{
closed = 1;
nodes = (
"509 402 OFFCURVE",
"451 506 OFFCURVE",
"315 506 CURVE SMOOTH",
"244 506 OFFCURVE",
"183 468 OFFCURVE",
"139 408 CURVE",
"134 486 LINE",
"134 496 OFFCURVE",
"130 498 OFFCURVE",
"119 498 CURVE SMOOTH",
"21 498 LINE",
"21 479 LINE SMOOTH",
"21 468 OFFCURVE",
"28 462 OFFCURVE",
"41 461 CURVE",
"93 459 LINE",
"93 -136 LINE",
"41 -138 LINE",
"28 -139 OFFCURVE",
"21 -145 OFFCURVE",
"21 -156 CURVE SMOOTH",
"21 -176 LINE",
"213 -176 LINE",
"213 -156 LINE SMOOTH",
"213 -145 OFFCURVE",
"206 -139 OFFCURVE",
"193 -138 CURVE",
"141 -136 LINE",
"141 67 LINE",
"179 16 OFFCURVE",
"228 -6 OFFCURVE",
"293 -6 CURVE SMOOTH",
"429 -6 OFFCURVE",
"509 104 OFFCURVE",
"509 252 CURVE SMOOTH"
);
},
{
closed = 1;
nodes = (
"460 126 OFFCURVE",
"405 31 OFFCURVE",
"283 31 CURVE SMOOTH",
"221 31 OFFCURVE",
"175 57 OFFCURVE",
"141 109 CURVE",
"141 370 LINE",
"182 431 OFFCURVE",
"233 467 OFFCURVE",
"302 467 CURVE SMOOTH",
"415 467 OFFCURVE",
"460 383 OFFCURVE",
"460 252 CURVE SMOOTH"
);
}
);
width = 548;
}
);
note = p;
unicode = 0070;
},
{
glyphname = q;
lastChange = "2017-11-28 23:36:01 +0000";
layers = (
{
layerId = "3F211455-7DB7-4737-9D97-BF0B219628E9";
paths = (
{
closed = 1;
nodes = (
"457 -137 LINE",
"457 452 LINE",
"457 477 LINE",
"369 496 OFFCURVE",
"303 505 OFFCURVE",
"258 505 CURVE SMOOTH",
"119 505 OFFCURVE",
"40 391 OFFCURVE",
"40 247 CURVE SMOOTH",
"40 100 OFFCURVE",
"98 -6 OFFCURVE",
"234 -6 CURVE SMOOTH",
"306 -6 OFFCURVE",
"364 29 OFFCURVE",
"409 88 CURVE",
"409 -137 LINE",
"357 -139 LINE",
"344 -140 OFFCURVE",
"337 -146 OFFCURVE",
"337 -157 CURVE SMOOTH",
"337 -176 LINE",
"529 -176 LINE",
"529 -157 LINE SMOOTH",
"529 -146 OFFCURVE",
"522 -140 OFFCURVE",
"509 -139 CURVE"
);
},
{
closed = 1;
nodes = (
"409 128 LINE",
"367 68 OFFCURVE",
"317 32 OFFCURVE",
"248 32 CURVE SMOOTH",
"135 32 OFFCURVE",
"90 116 OFFCURVE",
"90 247 CURVE SMOOTH",
"90 375 OFFCURVE",
"146 468 OFFCURVE",
"267 468 CURVE SMOOTH",
"293 468 OFFCURVE",
"340 461 OFFCURVE",
"409 447 CURVE"
);
}
);
width = 538;
}
);
leftKerningGroup = c;
note = q;
rightKerningGroup = q;
unicode = 0071;
},
{
glyphname = r;
lastChange = "2017-11-28 23:36:01 +0000";
layers = (
{
anchors = (
{
name = bottom;
position = "{149, 0}";
},
{
name = top;
position = "{218, 498}";
}
);
components = (
{
name = SerifSpur;
transform = "{1, 0, 0, 1, 124, 498}";
},
{
name = SerfiBottomSymmetrical;
transform = "{1, 0, 0, 1, 124, 0}";
}
);
layerId = "3F211455-7DB7-4737-9D97-BF0B219628E9";
paths = (
{
closed = 1;
nodes = (
"388 444 OFFCURVE",
"397 452 OFFCURVE",
"400 462 CURVE SMOOTH",
"409 487 LINE",
"387 499 OFFCURVE",
"358 506 OFFCURVE",
"332 506 CURVE SMOOTH",
"254 506 OFFCURVE",
"202 460 OFFCURVE",
"169 377 CURVE",
"165 483 LINE",
"165 489 OFFCURVE",
"163 493 OFFCURVE",
"161 495 CURVE SMOOTH",
"159 497 OFFCURVE",
"155 498 OFFCURVE",
"149 498 CURVE",
"124 498 LINE",
"124 459 LINE",
"124 40 LINE",
"124 0 LINE",
"171 0 LINE",
"171 40 LINE",
"171 323 LINE",
"199 406 OFFCURVE",
"245 459 OFFCURVE",
"323 459 CURVE SMOOTH",
"349 459 OFFCURVE",
"364 453 OFFCURVE",
"377 448 CURVE"
);
}
);
width = 436;
}
);
leftKerningGroup = k;
note = r;
rightKerningGroup = r;
unicode = 0072;
},
{
glyphname = s;
lastChange = "2017-11-28 23:36:01 +0000";
layers = (
{
anchors = (
{
name = bottom;
position = "{176, 0}";
},
{
name = top;
position = "{214, 498}";
}
);
layerId = "3F211455-7DB7-4737-9D97-BF0B219628E9";
paths = (
{
closed = 1;
nodes = (
"388 217 OFFCURVE",
"328 251 OFFCURVE",
"249 274 CURVE SMOOTH",
"171 297 OFFCURVE",
"111 316 OFFCURVE",
"111 374 CURVE SMOOTH",
"111 433 OFFCURVE",
"169 469 OFFCURVE",
"231 469 CURVE SMOOTH",
"257 469 OFFCURVE",
"283 465 OFFCURVE",
"310 456 CURVE",
"316 384 LINE",
"317 368 OFFCURVE",
"324 360 OFFCURVE",
"338 360 CURVE SMOOTH",
"362 360 LINE",
"362 479 LINE",
"310 497 OFFCURVE",
"266 505 OFFCURVE",
"230 505 CURVE SMOOTH",
"142 505 OFFCURVE",
"66 453 OFFCURVE",
"66 371 CURVE SMOOTH",
"66 297 OFFCURVE",
"122 266 OFFCURVE",
"204 243 CURVE SMOOTH",
"282 220 OFFCURVE",
"343 199 OFFCURVE",
"343 138 CURVE SMOOTH",
"343 69 OFFCURVE",
"287 27 OFFCURVE",
"215 27 CURVE SMOOTH",
"177 27 OFFCURVE",
"145 32 OFFCURVE",
"118 43 CURVE",
"112 117 LINE",
"111 133 OFFCURVE",
"104 141 OFFCURVE",
"90 141 CURVE SMOOTH",
"66 141 LINE",
"66 20 LINE",
"114 2 OFFCURVE",
"163 -8 OFFCURVE",
"213 -8 CURVE SMOOTH",
"312 -8 OFFCURVE",
"388 50 OFFCURVE",
"388 146 CURVE SMOOTH"
);
}
);
width = 427;
}
);
leftKerningGroup = s;
note = s;
unicode = 0073;
},
{
glyphname = t;
lastChange = "2017-11-28 23:36:01 +0000";
layers = (
{
anchors = (
{
name = bottom;
position = "{155, 0}";
},
{
name = center;
position = "{178, 249}";
},
{
name = top;
position = "{178, 498}";
},
{
name = topright;
position = "{169, 498}";
}
);
layerId = "3F211455-7DB7-4737-9D97-BF0B219628E9";
paths = (
{
closed = 1;
nodes = (
"247 -8 OFFCURVE",
"291 10 OFFCURVE",
"317 38 CURVE",
"306 56 LINE",
"303 61 OFFCURVE",
"296 66 OFFCURVE",
"286 59 CURVE SMOOTH",
"271 48 OFFCURVE",
"245 31 OFFCURVE",
"218 31 CURVE SMOOTH",
"176 31 OFFCURVE",
"149 59 OFFCURVE",
"149 109 CURVE SMOOTH",
"149 446 LINE",
"306 446 LINE",
"306 482 LINE",
"149 482 LINE",
"149 672 LINE",
"126 672 LINE SMOOTH",
"119 672 OFFCURVE",
"114 664 OFFCURVE",
"114 660 CURVE",
"102 482 LINE",
"17 476 LINE",
"17 458 LINE SMOOTH",
"17 450 OFFCURVE",
"23 446 OFFCURVE",
"30 446 CURVE SMOOTH",
"101 446 LINE",
"101 106 LINE SMOOTH",
"101 33 OFFCURVE",
"136 -8 OFFCURVE",
"208 -8 CURVE SMOOTH"
);
}
);
width = 355;
}
);
note = t;
unicode = 0074;
},
{
glyphname = u;
lastChange = "2017-11-28 23:36:01 +0000";
layers = (
{
anchors = (
{
name = bottom;
position = "{299, 0}";
},
{
name = ogonek;
position = "{538, 10}";
},
{
name = top;
position = "{270, 498}";
},
{
name = topright;
position = "{578, 498}";
}
);
layerId = "3F211455-7DB7-4737-9D97-BF0B219628E9";
paths = (
{
closed = 1;
nodes = (
"484 40 LINE",
"484 498 LINE",
"436 497 LINE",
"364 497 LINE",
"364 478 LINE SMOOTH",
"364 467 OFFCURVE",
"371 461 OFFCURVE",
"384 460 CURVE",
"436 458 LINE",
"436 124 LINE",
"394 68 OFFCURVE",
"335 30 OFFCURVE",
"270 30 CURVE SMOOTH",
"181 30 OFFCURVE",
"140 88 OFFCURVE",
"140 180 CURVE SMOOTH",
"140 498 LINE",
"92 497 LINE",
"20 497 LINE",
"20 478 LINE SMOOTH",
"20 467 OFFCURVE",
"27 461 OFFCURVE",
"40 460 CURVE",
"92 458 LINE",
"92 180 LINE SMOOTH",
"92 70 OFFCURVE",
"146 -8 OFFCURVE",
"258 -8 CURVE SMOOTH",
"330 -8 OFFCURVE",
"392 28 OFFCURVE",
"439 87 CURVE",
"443 13 LINE",
"443 4 OFFCURVE",
"449 0 OFFCURVE",
"458 0 CURVE SMOOTH",
"556 0 LINE",
"556 20 LINE SMOOTH",
"556 31 OFFCURVE",
"549 37 OFFCURVE",
"536 38 CURVE"
);
}
);
width = 598;
}
);
leftKerningGroup = k;
note = u;
unicode = 0075;
},
{
glyphname = v;
lastChange = "2017-11-28 23:36:01 +0000";
layers = (
{
layerId = "3F211455-7DB7-4737-9D97-BF0B219628E9";
paths = (
{
closed = 1;
nodes = (
"379 498 LINE",
"379 479 LINE SMOOTH",
"379 468 OFFCURVE",
"386 462 OFFCURVE",
"399 461 CURVE",
"451 459 LINE",
"298 93 LINE SMOOTH",
"294 84 OFFCURVE",
"288 61 OFFCURVE",
"285 50 CURVE",
"283 61 OFFCURVE",
"277 84 OFFCURVE",
"273 93 CURVE",
"120 459 LINE",
"172 461 LINE",
"185 462 OFFCURVE",
"192 468 OFFCURVE",
"192 479 CURVE SMOOTH",
"192 498 LINE",
"18 498 LINE",
"18 479 LINE SMOOTH",
"18 468 OFFCURVE",
"24 462 OFFCURVE",
"37 461 CURVE",
"70 460 LINE",
"264 0 LINE",
"306 0 LINE",
"499 460 LINE",
"534 461 LINE",
"547 462 OFFCURVE",
"554 468 OFFCURVE",
"554 479 CURVE SMOOTH",
"554 498 LINE"
);
}
);
width = 579;
}
);
leftKerningGroup = v;
note = v;
rightKerningGroup = v;
unicode = 0076;
},
{
glyphname = w;
lastChange = "2017-11-28 23:36:01 +0000";
layers = (
{
anchors = (
{
name = bottom;
position = "{420, 0}";
},
{
name = top;
position = "{420, 498}";
}
);
layerId = "3F211455-7DB7-4737-9D97-BF0B219628E9";
paths = (
{
closed = 1;
nodes = (
"640 497 LINE",
"640 478 LINE SMOOTH",
"640 467 OFFCURVE",
"647 461 OFFCURVE",
"660 460 CURVE",
"711 458 LINE",
"594 93 LINE",
"591 78 OFFCURVE",
"586 61 OFFCURVE",
"584 50 CURVE",
"581 61 OFFCURVE",
"577 78 OFFCURVE",
"572 93 CURVE SMOOTH",
"440 489 LINE",
"438 496 OFFCURVE",
"433 500 OFFCURVE",
"426 500 CURVE SMOOTH",
"406 500 LINE SMOOTH",
"399 500 OFFCURVE",
"394 496 OFFCURVE",
"392 489 CURVE",
"259 93 LINE SMOOTH",
"256 83 OFFCURVE",
"249 61 OFFCURVE",
"246 50 CURVE",
"244 61 OFFCURVE",
"239 83 OFFCURVE",
"237 93 CURVE",
"120 458 LINE",
"172 460 LINE",
"185 461 OFFCURVE",
"192 467 OFFCURVE",
"192 478 CURVE SMOOTH",
"192 497 LINE",
"18 497 LINE",
"18 478 LINE SMOOTH",
"18 467 OFFCURVE",
"24 461 OFFCURVE",
"37 460 CURVE",
"70 459 LINE",
"224 0 LINE",
"257 0 LINE SMOOTH",
"263 0 OFFCURVE",
"267 4 OFFCURVE",
"269 11 CURVE",
"407 415 LINE",
"409 424 OFFCURVE",
"412 433 OFFCURVE",
"415 444 CURVE",
"417 433 OFFCURVE",
"420 424 OFFCURVE",
"423 415 CURVE",
"559 11 LINE",
"561 4 OFFCURVE",
"566 0 OFFCURVE",
"571 0 CURVE SMOOTH",
"606 0 LINE",
"759 459 LINE",
"794 460 LINE",
"807 461 OFFCURVE",
"814 467 OFFCURVE",
"814 478 CURVE SMOOTH",
"814 497 LINE"
);
}
);
width = 839;
}
);
leftKerningGroup = v;
note = w;
rightKerningGroup = v;
unicode = 0077;
},
{
glyphname = x;
lastChange = "2017-11-28 23:36:01 +0000";
layers = (
{
layerId = "3F211455-7DB7-4737-9D97-BF0B219628E9";
paths = (
{
closed = 1;
nodes = (
"466 39 LINE",
"312 257 LINE",
"458 460 LINE",
"489 461 LINE",
"502 462 OFFCURVE",
"509 468 OFFCURVE",
"509 479 CURVE SMOOTH",
"509 498 LINE",
"361 498 LINE",
"361 479 LINE SMOOTH",
"361 468 OFFCURVE",
"368 462 OFFCURVE",
"381 461 CURVE",
"407 460 LINE",
"291 294 LINE SMOOTH",
"287 288 OFFCURVE",
"283 282 OFFCURVE",
"282 276 CURVE",
"156 460 LINE",
"180 461 LINE",
"193 462 OFFCURVE",
"200 468 OFFCURVE",
"200 479 CURVE SMOOTH",
"200 498 LINE",
"52 498 LINE",
"52 479 LINE SMOOTH",
"52 468 OFFCURVE",
"59 462 OFFCURVE",
"72 461 CURVE",
"103 460 LINE",
"248 255 LINE",
"95 39 LINE",
"68 38 LINE",
"55 37 OFFCURVE",
"48 31 OFFCURVE",
"48 20 CURVE SMOOTH",
"48 0 LINE",
"196 0 LINE",
"196 20 LINE SMOOTH",
"196 31 OFFCURVE",
"189 37 OFFCURVE",
"176 38 CURVE",
"146 39 LINE",
"272 216 LINE",
"275 221 OFFCURVE",
"277 225 OFFCURVE",
"279 232 CURVE",
"413 39 LINE",
"385 38 LINE",
"372 37 OFFCURVE",
"366 31 OFFCURVE",
"366 20 CURVE SMOOTH",
"366 0 LINE",
"513 0 LINE",
"513 20 LINE SMOOTH",
"513 31 OFFCURVE",
"507 37 OFFCURVE",
"494 38 CURVE"
);
}
);
width = 564;
}
);
leftKerningGroup = x;
note = x;
rightKerningGroup = k;
unicode = 0078;
},
{
glyphname = y;
lastChange = "2017-11-28 23:36:01 +0000";
layers = (
{
anchors = (
{
name = bottom;
position = "{289, 0}";
},
{
name = top;
position = "{289, 498}";
}
);
layerId = "3F211455-7DB7-4737-9D97-BF0B219628E9";
paths = (
{
closed = 1;
nodes = (
"378 498 LINE",
"378 479 LINE SMOOTH",
"378 468 OFFCURVE",
"385 462 OFFCURVE",
"398 461 CURVE",
"449 459 LINE",
"296 98 LINE",
"292 89 OFFCURVE",
"286 72 OFFCURVE",
"285 68 CURVE",
"284 72 OFFCURVE",
"279 89 OFFCURVE",
"275 98 CURVE SMOOTH",
"120 459 LINE",
"171 461 LINE",
"184 462 OFFCURVE",
"191 468 OFFCURVE",
"191 479 CURVE SMOOTH",
"191 498 LINE",
"90 498 LINE",
"90 498 LINE",
"17 498 LINE",
"17 479 LINE SMOOTH",
"17 468 OFFCURVE",
"24 462 OFFCURVE",
"37 461 CURVE",
"67 460 LINE",
"261 18 LINE",
"173 -176 LINE",
"207 -176 LINE SMOOTH",
"217 -176 OFFCURVE",
"225 -169 OFFCURVE",
"229 -160 CURVE SMOOTH",
"498 460 LINE",
"532 461 LINE",
"545 462 OFFCURVE",
"552 468 OFFCURVE",
"552 479 CURVE SMOOTH",
"552 498 LINE"
);
}
);
width = 578;
}
);
leftKerningGroup = v;
note = y;
rightKerningGroup = v;
unicode = 0079;
},
{
glyphname = z;
lastChange = "2017-11-28 23:36:01 +0000";
layers = (
{
anchors = (
{
name = bottom;
position = "{250, 0}";
},
{
name = top;
position = "{258, 498}";
}
);
layerId = "3F211455-7DB7-4737-9D97-BF0B219628E9";
paths = (
{
closed = 1;
nodes = (
"412 125 LINE SMOOTH",
"398 125 OFFCURVE",
"391 117 OFFCURVE",
"390 101 CURVE",
"385 37 LINE",
"112 37 LINE",
"423 459 LINE",
"428 465 OFFCURVE",
"430 471 OFFCURVE",
"430 478 CURVE SMOOTH",
"430 498 LINE",
"71 498 LINE",
"71 369 LINE",
"95 369 LINE SMOOTH",
"109 369 OFFCURVE",
"116 377 OFFCURVE",
"117 393 CURVE",
"122 461 LINE",
"374 461 LINE",
"62 37 LINE SMOOTH",
"57 30 OFFCURVE",
"54 25 OFFCURVE",
"54 19 CURVE SMOOTH",
"54 0 LINE",
"436 0 LINE",
"436 125 LINE"
);
}
);
width = 499;
}
);
leftKerningGroup = z;
note = z;
rightKerningGroup = uni01F2;
unicode = 007A;
},
{
glyphname = braceleft;
lastChange = "2017-11-28 23:36:01 +0000";
layers = (
{
layerId = "3F211455-7DB7-4737-9D97-BF0B219628E9";
paths = (
{
closed = 1;
nodes = (
"115 187 OFFCURVE",
"109 156 OFFCURVE",
"100 117 CURVE SMOOTH",
"93 86 OFFCURVE",
"86 44 OFFCURVE",
"86 10 CURVE SMOOTH",
"86 -75 OFFCURVE",
"142 -132 OFFCURVE",
"226 -132 CURVE SMOOTH",
"254 -132 LINE",
"254 -115 LINE SMOOTH",
"254 -106 OFFCURVE",
"249 -100 OFFCURVE",
"239 -100 CURVE SMOOTH",
"224 -100 LINE SMOOTH",
"168 -100 OFFCURVE",
"128 -57 OFFCURVE",
"128 8 CURVE SMOOTH",
"128 40 OFFCURVE",
"134 79 OFFCURVE",
"142 116 CURVE SMOOTH",
"149 148 OFFCURVE",
"156 189 OFFCURVE",
"156 222 CURVE SMOOTH",
"156 267 OFFCURVE",
"125 305 OFFCURVE",
"82 313 CURVE",
"121 321 OFFCURVE",
"156 358 OFFCURVE",
"156 404 CURVE SMOOTH",
"156 435 OFFCURVE",
"150 475 OFFCURVE",
"142 510 CURVE SMOOTH",
"135 543 OFFCURVE",
"128 583 OFFCURVE",
"128 618 CURVE SMOOTH",
"128 681 OFFCURVE",
"166 726 OFFCURVE",
"224 726 CURVE SMOOTH",
"239 726 LINE SMOOTH",
"248 726 OFFCURVE",
"253 732 OFFCURVE",
"253 741 CURVE SMOOTH",
"253 758 LINE",
"226 758 LINE SMOOTH",
"139 758 OFFCURVE",
"85 699 OFFCURVE",
"85 616 CURVE SMOOTH",
"85 592 OFFCURVE",
"93 539 OFFCURVE",
"100 509 CURVE SMOOTH",
"108 475 OFFCURVE",
"116 435 OFFCURVE",
"116 404 CURVE SMOOTH",
"116 361 OFFCURVE",
"81 328 OFFCURVE",
"38 328 CURVE",
"38 298 LINE",
"81 298 OFFCURVE",
"115 272 OFFCURVE",
"115 222 CURVE SMOOTH"
);
}
);
width = 279;
}
);
note = braceleft;
unicode = 007B;
},
{
glyphname = bar;
lastChange = "2017-11-28 23:36:01 +0000";
layers = (
{
layerId = "3F211455-7DB7-4737-9D97-BF0B219628E9";
paths = (
{
closed = 1;
nodes = (
"85 758 LINE",
"85 -176 LINE",
"122 -176 LINE",
"122 758 LINE"
);
}
);
width = 208;
}
);
note = bar;
unicode = 007C;
},
{
glyphname = braceright;
lastChange = "2017-11-28 23:36:01 +0000";
layers = (
{
layerId = "3F211455-7DB7-4737-9D97-BF0B219628E9";
paths = (
{
closed = 1;
nodes = (
"164 270 OFFCURVE",
"196 298 OFFCURVE",
"241 298 CURVE",
"241 328 LINE",
"196 328 OFFCURVE",
"164 359 OFFCURVE",
"164 404 CURVE SMOOTH",
"164 440 OFFCURVE",
"170 471 OFFCURVE",
"179 510 CURVE SMOOTH",
"186 538 OFFCURVE",
"194 589 OFFCURVE",
"194 616 CURVE SMOOTH",
"194 698 OFFCURVE",
"140 759 OFFCURVE",
"53 759 CURVE SMOOTH",
"26 759 LINE",
"26 738 LINE SMOOTH",
"26 730 OFFCURVE",
"32 726 OFFCURVE",
"38 726 CURVE SMOOTH",
"55 726 LINE SMOOTH",
"115 726 OFFCURVE",
"152 678 OFFCURVE",
"152 618 CURVE SMOOTH",
"152 592 OFFCURVE",
"145 544 OFFCURVE",
"137 510 CURVE SMOOTH",
"130 478 OFFCURVE",
"123 437 OFFCURVE",
"123 404 CURVE SMOOTH",
"123 360 OFFCURVE",
"154 321 OFFCURVE",
"196 313 CURVE",
"156 303 OFFCURVE",
"122 270 OFFCURVE",
"122 222 CURVE SMOOTH",
"122 197 OFFCURVE",
"129 151 OFFCURVE",
"137 117 CURVE SMOOTH",
"144 87 OFFCURVE",
"152 36 OFFCURVE",
"152 8 CURVE SMOOTH",
"152 -48 OFFCURVE",
"116 -100 OFFCURVE",
"54 -100 CURVE SMOOTH",
"38 -100 LINE SMOOTH",
"34 -100 OFFCURVE",
"26 -101 OFFCURVE",
"26 -111 CURVE SMOOTH",
"26 -132 LINE",
"53 -132 LINE SMOOTH",
"138 -132 OFFCURVE",
"194 -71 OFFCURVE",
"194 11 CURVE SMOOTH",
"194 41 OFFCURVE",
"187 79 OFFCURVE",
"178 117 CURVE SMOOTH",
"171 148 OFFCURVE",
"164 189 OFFCURVE",
"164 222 CURVE SMOOTH"
);
}
);
width = 278;
}
);
note = braceright;
unicode = 007D;
},
{
glyphname = asciitilde;
lastChange = "2017-11-28 23:36:01 +0000";
layers = (
{
layerId = "3F211455-7DB7-4737-9D97-BF0B219628E9";
paths = (
{
closed = 1;
nodes = (
"357 284 OFFCURVE",
"325 298 OFFCURVE",
"289 315 CURVE SMOOTH",
"255 331 OFFCURVE",
"220 346 OFFCURVE",
"184 346 CURVE SMOOTH",
"111 346 OFFCURVE",
"66 292 OFFCURVE",
"66 217 CURVE",
"104 217 LINE",
"104 263 OFFCURVE",
"134 307 OFFCURVE",
"186 307 CURVE SMOOTH",
"211 307 OFFCURVE",
"246 292 OFFCURVE",
"283 276 CURVE SMOOTH",
"320 259 OFFCURVE",
"355 244 OFFCURVE",
"388 244 CURVE SMOOTH",
"461 244 OFFCURVE",
"506 299 OFFCURVE",
"506 374 CURVE",
"467 374 LINE",
"467 325 OFFCURVE",
"440 284 OFFCURVE",
"386 284 CURVE SMOOTH"
);
}
);
width = 572;
}
);
leftKerningGroup = emdash;
note = asciitilde;
rightKerningGroup = emdash;
unicode = 007E;
},
{
glyphname = exclamdown;
lastChange = "2017-11-28 23:36:01 +0000";
layers = (
{
layerId = "3F211455-7DB7-4737-9D97-BF0B219628E9";
paths = (
{
closed = 1;
nodes = (
"89 -176 LINE",
"136 -176 LINE",
"136 99 LINE",
"128 277 LINE",
"96 277 LINE",
"89 99 LINE"
);
},
{
closed = 1;
nodes = (
"137 413 OFFCURVE",
"157 434 OFFCURVE",
"157 460 CURVE SMOOTH",
"157 485 OFFCURVE",
"137 506 OFFCURVE",
"111 506 CURVE SMOOTH",
"85 506 OFFCURVE",
"65 485 OFFCURVE",
"65 460 CURVE SMOOTH",
"65 434 OFFCURVE",
"85 413 OFFCURVE",
"111 413 CURVE SMOOTH"
);
}
);
width = 221;
}
);
note = exclamdown;
unicode = 00A1;
},
{
glyphname = cent;
lastChange = "2017-11-28 23:36:01 +0000";
layers = (
{
layerId = "3F211455-7DB7-4737-9D97-BF0B219628E9";
paths = (
{
closed = 1;
nodes = (
"416 80 LINE",
"412 86 OFFCURVE",
"402 88 OFFCURVE",
"391 77 CURVE SMOOTH",
"353 39 OFFCURVE",
"305 32 OFFCURVE",
"252 32 CURVE",
"273 467 LINE",
"274 468 LINE",
"298 468 OFFCURVE",
"326 462 OFFCURVE",
"357 451 CURVE",
"364 373 LINE",
"365 357 OFFCURVE",
"371 349 OFFCURVE",
"385 349 CURVE SMOOTH",
"409 349 LINE",
"409 474 LINE",
"361 489 OFFCURVE",
"304 503 OFFCURVE",
"275 505 CURVE",
"281 624 LINE",
"263 624 LINE SMOOTH",
"255 624 OFFCURVE",
"248 615 OFFCURVE",
"248 608 CURVE",
"243 505 LINE",
"243 504 LINE",
"119 496 OFFCURVE",
"45 389 OFFCURVE",
"45 249 CURVE SMOOTH",
"45 122 OFFCURVE",
"103 18 OFFCURVE",
"218 -3 CURVE",
"212 -126 LINE",
"230 -126 LINE SMOOTH",
"240 -126 OFFCURVE",
"245 -120 OFFCURVE",
"245 -110 CURVE",
"250 -6 LINE",
"327 -6 OFFCURVE",
"393 17 OFFCURVE",
"429 64 CURVE"
);
},
{
closed = 1;
nodes = (
"93 149 OFFCURVE",
"93 249 CURVE SMOOTH",
"93 355 OFFCURVE",
"139 454 OFFCURVE",
"242 466 CURVE",
"220 37 LINE",
"133 58 OFFCURVE"
);
}
);
width = 465;
}
);
leftKerningGroup = c;
note = cent;
unicode = 00A2;
},
{
glyphname = sterling;
lastChange = "2017-11-28 23:36:01 +0000";
layers = (
{
layerId = "3F211455-7DB7-4737-9D97-BF0B219628E9";
paths = (
{
closed = 1;
nodes = (
"37 316 LINE",
"138 316 LINE",
"138 153 LINE SMOOTH",
"138 98 OFFCURVE",
"102 51 OFFCURVE",
"49 32 CURVE",
"49 0 LINE",
"534 0 LINE SMOOTH",
"547 0 OFFCURVE",
"556 11 OFFCURVE",
"556 22 CURVE SMOOTH",
"556 42 LINE",
"162 42 LINE",
"118 38 LINE",
"165 69 OFFCURVE",
"186 108 OFFCURVE",
"186 164 CURVE SMOOTH",
"186 316 LINE",
"410 316 LINE SMOOTH",
"419 316 OFFCURVE",
"426 323 OFFCURVE",
"426 330 CURVE SMOOTH",
"426 350 LINE",
"186 350 LINE",
"186 496 LINE SMOOTH",
"186 603 OFFCURVE",
"241 674 OFFCURVE",
"344 674 CURVE SMOOTH",
"415 674 OFFCURVE",
"440 650 OFFCURVE",
"480 592 CURVE SMOOTH",
"486 583 OFFCURVE",
"500 582 OFFCURVE",
"506 586 CURVE",
"525 597 LINE",
"492 671 OFFCURVE",
"432 715 OFFCURVE",
"344 715 CURVE SMOOTH",
"217 715 OFFCURVE",
"138 633 OFFCURVE",
"138 496 CURVE SMOOTH",
"138 349 LINE",
"55 349 LINE SMOOTH",
"45 349 OFFCURVE",
"37 342 OFFCURVE",
"37 332 CURVE SMOOTH"
);
}
);
width = 589;
}
);
note = sterling;
unicode = 00A3;
},
{
glyphname = currency;
lastChange = "2017-11-28 23:36:01 +0000";
layers = (
{
layerId = "3F211455-7DB7-4737-9D97-BF0B219628E9";
paths = (
{
closed = 1;
nodes = (
"94 298 OFFCURVE",
"109 256 OFFCURVE",
"133 226 CURVE",
"56 150 LINE",
"80 125 LINE",
"158 202 LINE",
"186 180 OFFCURVE",
"224 164 OFFCURVE",
"266 164 CURVE SMOOTH",
"305 164 OFFCURVE",
"344 178 OFFCURVE",
"374 202 CURVE",
"452 125 LINE",
"476 150 LINE",
"400 227 LINE",
"422 255 OFFCURVE",
"438 293 OFFCURVE",
"438 335 CURVE SMOOTH",
"438 376 OFFCURVE",
"425 412 OFFCURVE",
"399 444 CURVE",
"476 521 LINE",
"451 546 LINE",
"374 469 LINE",
"346 491 OFFCURVE",
"308 507 OFFCURVE",
"266 507 CURVE SMOOTH",
"225 507 OFFCURVE",
"189 494 OFFCURVE",
"157 468 CURVE",
"80 545 LINE",
"56 520 LINE",
"132 443 LINE",
"109 414 OFFCURVE",
"94 378 OFFCURVE",
"94 336 CURVE SMOOTH"
);
},
{
closed = 1;
nodes = (
"130 370 OFFCURVE",
"145 406 OFFCURVE",
"170 431 CURVE SMOOTH",
"196 457 OFFCURVE",
"229 472 OFFCURVE",
"266 472 CURVE SMOOTH",
"339 472 OFFCURVE",
"402 409 OFFCURVE",
"402 336 CURVE SMOOTH",
"402 262 OFFCURVE",
"340 200 OFFCURVE",
"266 200 CURVE SMOOTH",
"192 200 OFFCURVE",
"130 262 OFFCURVE",
"130 335 CURVE SMOOTH"
);
}
);
width = 532;
}
);
note = currency;
unicode = 00A4;
},
{
glyphname = yen;
lastChange = "2017-11-28 23:36:01 +0000";
layers = (
{
layerId = "3F211455-7DB7-4737-9D97-BF0B219628E9";
paths = (
{
closed = 1;
nodes = (
"74 308 LINE",
"74 279 LINE",
"257 279 LINE",
"257 220 LINE",
"74 220 LINE",
"74 191 LINE",
"257 191 LINE",
"257 0 LINE",
"305 0 LINE",
"305 191 LINE",
"488 191 LINE",
"488 220 LINE",
"305 220 LINE",
"305 279 LINE",
"488 279 LINE",
"488 308 LINE",
"314 308 LINE",
"526 708 LINE",
"486 708 LINE SMOOTH",
"477 708 OFFCURVE",
"471 703 OFFCURVE",
"467 695 CURVE SMOOTH",
"294 362 LINE",
"288 349 OFFCURVE",
"284 337 OFFCURVE",
"281 326 CURVE",
"277 337 OFFCURVE",
"275 349 OFFCURVE",
"268 362 CURVE",
"96 695 LINE SMOOTH",
"92 703 OFFCURVE",
"85 708 OFFCURVE",
"76 708 CURVE SMOOTH",
"36 708 LINE",
"248 308 LINE"
);
}
);
width = 559;
}
);
note = yen;
unicode = 00A5;
},
{
glyphname = brokenbar;
lastChange = "2017-11-28 23:36:01 +0000";
layers = (
{
layerId = "3F211455-7DB7-4737-9D97-BF0B219628E9";
paths = (
{
closed = 1;
nodes = (
"83 758 LINE",
"83 370 LINE",
"120 370 LINE",
"120 758 LINE"
);
},
{
closed = 1;
nodes = (
"83 212 LINE",
"83 -176 LINE",
"120 -176 LINE",
"120 212 LINE"
);
}
);
width = 202;
}
);
note = brokenbar;
unicode = 00A6;
},
{
glyphname = section;
lastChange = "2017-11-28 23:36:01 +0000";
layers = (
{
layerId = "3F211455-7DB7-4737-9D97-BF0B219628E9";
paths = (
{
closed = 1;
nodes = (
"392 662 LINE",
"351 698 OFFCURVE",
"302 716 OFFCURVE",
"246 716 CURVE SMOOTH",
"159 716 OFFCURVE",
"82 661 OFFCURVE",
"82 580 CURVE SMOOTH",
"82 538 OFFCURVE",
"101 504 OFFCURVE",
"144 475 CURVE",
"85 454 OFFCURVE",
"47 415 OFFCURVE",
"47 357 CURVE SMOOTH",
"47 281 OFFCURVE",
"110 246 OFFCURVE",
"199 209 CURVE SMOOTH",
"282 174 OFFCURVE",
"350 150 OFFCURVE",
"350 80 CURVE SMOOTH",
"350 8 OFFCURVE",
"294 -31 OFFCURVE",
"222 -31 CURVE SMOOTH",
"175 -31 OFFCURVE",
"133 -15 OFFCURVE",
"101 12 CURVE SMOOTH",
"89 22 OFFCURVE",
"80 21 OFFCURVE",
"71 9 CURVE SMOOTH",
"60 -5 LINE",
"106 -46 OFFCURVE",
"157 -66 OFFCURVE",
"218 -66 CURVE SMOOTH",
"318 -66 OFFCURVE",
"392 -8 OFFCURVE",
"392 88 CURVE SMOOTH",
"392 131 OFFCURVE",
"374 159 OFFCURVE",
"332 190 CURVE",
"385 213 OFFCURVE",
"415 254 OFFCURVE",
"415 311 CURVE SMOOTH",
"415 388 OFFCURVE",
"350 427 OFFCURVE",
"270 463 CURVE SMOOTH",
"189 498 OFFCURVE",
"124 524 OFFCURVE",
"124 582 CURVE SMOOTH",
"124 641 OFFCURVE",
"185 679 OFFCURVE",
"247 679 CURVE SMOOTH",
"289 679 OFFCURVE",
"320 669 OFFCURVE",
"356 645 CURVE SMOOTH",
"368 637 OFFCURVE",
"377 637 OFFCURVE",
"382 646 CURVE"
);
},
{
closed = 1;
nodes = (
"89 411 OFFCURVE",
"122 438 OFFCURVE",
"171 459 CURVE",
"177 455 OFFCURVE",
"328 387 OFFCURVE",
"261 418 CURVE SMOOTH",
"326 388 OFFCURVE",
"373 362 OFFCURVE",
"373 301 CURVE SMOOTH",
"373 256 OFFCURVE",
"349 226 OFFCURVE",
"306 206 CURVE",
"265 228 OFFCURVE",
"255 231 OFFCURVE",
"210 251 CURVE SMOOTH",
"143 280 OFFCURVE",
"89 311 OFFCURVE",
"89 363 CURVE SMOOTH"
);
}
);
width = 463;
}
);
note = section;
unicode = 00A7;
},
{
glyphname = dieresis;
lastChange = "2017-11-28 23:36:01 +0000";
layers = (
{
layerId = "3F211455-7DB7-4737-9D97-BF0B219628E9";
paths = (
{
closed = 1;
nodes = (
"303 602 OFFCURVE",
"321 620 OFFCURVE",
"321 643 CURVE SMOOTH",
"321 666 OFFCURVE",
"303 684 OFFCURVE",
"280 684 CURVE SMOOTH",
"257 684 OFFCURVE",
"239 666 OFFCURVE",
"239 643 CURVE SMOOTH",
"239 620 OFFCURVE",
"257 602 OFFCURVE",
"280 602 CURVE SMOOTH"
);
},
{
closed = 1;
nodes = (
"132 602 OFFCURVE",
"150 620 OFFCURVE",
"150 643 CURVE SMOOTH",
"150 666 OFFCURVE",
"132 684 OFFCURVE",
"109 684 CURVE SMOOTH",
"86 684 OFFCURVE",
"68 666 OFFCURVE",
"68 643 CURVE SMOOTH",
"68 620 OFFCURVE",
"86 602 OFFCURVE",
"109 602 CURVE SMOOTH"
);
}
);
width = 387;
}
);
note = dieresis;
unicode = 00A8;
},
{
glyphname = copyright;
lastChange = "2017-11-28 23:36:01 +0000";
layers = (
{
layerId = "3F211455-7DB7-4737-9D97-BF0B219628E9";
paths = (
{
closed = 1;
nodes = (
"509 177 OFFCURVE",
"467 166 OFFCURVE",
"416 166 CURVE SMOOTH",
"304 166 OFFCURVE",
"240 244 OFFCURVE",
"240 354 CURVE SMOOTH",
"240 469 OFFCURVE",
"313 544 OFFCURVE",
"424 544 CURVE SMOOTH",
"473 544 OFFCURVE",
"503 533 OFFCURVE",
"541 508 CURVE",
"550 501 OFFCURVE",
"560 499 OFFCURVE",
"564 508 CURVE",
"576 524 LINE",
"535 561 OFFCURVE",
"486 580 OFFCURVE",
"422 580 CURVE SMOOTH",
"293 580 OFFCURVE",
"196 489 OFFCURVE",
"196 354 CURVE SMOOTH",
"196 226 OFFCURVE",
"280 129 OFFCURVE",
"414 129 CURVE SMOOTH",
"480 129 OFFCURVE",
"533 145 OFFCURVE",
"582 194 CURVE",
"566 209 LINE SMOOTH",
"561 214 OFFCURVE",
"554 212 OFFCURVE",
"547 207 CURVE SMOOTH"
);
},
{
closed = 1;
nodes = (
"50 154 OFFCURVE",
"210 -7 OFFCURVE",
"410 -7 CURVE SMOOTH",
"609 -7 OFFCURVE",
"771 155 OFFCURVE",
"771 354 CURVE SMOOTH",
"771 553 OFFCURVE",
"610 715 OFFCURVE",
"410 715 CURVE SMOOTH",
"214 715 OFFCURVE",
"50 557 OFFCURVE",
"50 354 CURVE SMOOTH"
);
},
{
closed = 1;
nodes = (
"79 533 OFFCURVE",
"223 688 OFFCURVE",
"410 688 CURVE SMOOTH",
"595 688 OFFCURVE",
"742 539 OFFCURVE",
"742 354 CURVE SMOOTH",
"742 172 OFFCURVE",
"598 20 OFFCURVE",
"410 20 CURVE SMOOTH",
"226 20 OFFCURVE",
"79 171 OFFCURVE",
"79 354 CURVE SMOOTH"
);
}
);
width = 820;
}
);
leftKerningGroup = O;
note = copyright;
rightKerningGroup = O;
unicode = 00A9;
},
{
glyphname = ordfeminine;
lastChange = "2017-11-28 23:36:01 +0000";
layers = (
{
layerId = "3F211455-7DB7-4737-9D97-BF0B219628E9";
paths = (
{
closed = 1;
nodes = (
"286 420 LINE",
"286 608 LINE SMOOTH",
"286 670 OFFCURVE",
"254 715 OFFCURVE",
"184 715 CURVE SMOOTH",
"138 715 OFFCURVE",
"107 701 OFFCURVE",
"74 668 CURVE",
"80 657 LINE",
"85 648 OFFCURVE",
"96 651 OFFCURVE",
"103 656 CURVE SMOOTH",
"119 668 OFFCURVE",
"153 685 OFFCURVE",
"180 685 CURVE SMOOTH",
"229 685 OFFCURVE",
"251 658 OFFCURVE",
"251 607 CURVE SMOOTH",
"251 582 LINE",
"172 581 OFFCURVE",
"57 564 OFFCURVE",
"57 490 CURVE SMOOTH",
"57 446 OFFCURVE",
"88 415 OFFCURVE",
"140 415 CURVE SMOOTH",
"185 415 OFFCURVE",
"220 431 OFFCURVE",
"252 463 CURVE",
"257 431 LINE",
"258 423 OFFCURVE",
"261 419 OFFCURVE",
"270 419 CURVE"
);
},
{
closed = 1;
nodes = (
"119 441 OFFCURVE",
"91 456 OFFCURVE",
"91 492 CURVE SMOOTH",
"91 544 OFFCURVE",
"176 554 OFFCURVE",
"251 557 CURVE",
"251 488 LINE",
"225 462 OFFCURVE",
"189 441 OFFCURVE",
"150 441 CURVE SMOOTH"
);
}
);
width = 356;
}
);
leftKerningGroup = ordfeminine;
note = ordfeminine;
rightKerningGroup = ordfeminine;
unicode = 00AA;
},
{
glyphname = guillemotleft;
lastChange = "2017-11-28 23:36:01 +0000";
layers = (
{
layerId = "3F211455-7DB7-4737-9D97-BF0B219628E9";
paths = (
{
closed = 1;
nodes = (
"50 256 LINE",
"171 67 LINE",
"186 74 LINE",
"197 81 OFFCURVE",
"194 89 OFFCURVE",
"190 98 CURVE",
"99 246 LINE SMOOTH",
"95 253 OFFCURVE",
"91 257 OFFCURVE",
"88 260 CURVE",
"91 263 OFFCURVE",
"95 267 OFFCURVE",
"99 274 CURVE",
"190 420 LINE",
"193 427 OFFCURVE",
"199 436 OFFCURVE",
"186 444 CURVE",
"171 452 LINE",
"50 263 LINE"
);
},
{
closed = 1;
nodes = (
"178 256 LINE",
"298 67 LINE",
"314 74 LINE",
"325 80 OFFCURVE",
"323 89 OFFCURVE",
"318 99 CURVE",
"226 246 LINE",
"222 253 OFFCURVE",
"219 257 OFFCURVE",
"216 260 CURVE",
"219 263 OFFCURVE",
"222 267 OFFCURVE",
"226 274 CURVE",
"318 421 LINE",
"321 427 OFFCURVE",
"327 437 OFFCURVE",
"314 445 CURVE",
"298 452 LINE",
"178 263 LINE"
);
}
);
width = 379;
}
);
note = guillemotleft;
unicode = 00AB;
},
{
glyphname = logicalnot;
lastChange = "2017-11-28 23:36:01 +0000";
layers = (
{
layerId = "3F211455-7DB7-4737-9D97-BF0B219628E9";
paths = (
{
closed = 1;
nodes = (
"62 354 LINE",
"62 317 LINE",
"436 317 LINE",
"436 170 LINE",
"476 170 LINE",
"476 354 LINE"
);
}
);
width = 550;
}
);
leftKerningGroup = emdash;
note = logicalnot;
unicode = 00AC;
},
{
glyphname = uni00AD;
lastChange = "2017-11-28 23:36:01 +0000";
layers = (
{
layerId = "3F211455-7DB7-4737-9D97-BF0B219628E9";
paths = (
{
closed = 1;
nodes = (
"70 317 LINE",
"70 276 LINE",
"302 276 LINE",
"302 317 LINE"
);
}
);
width = 370;
}
);
note = uni00AD;
unicode = 00AD;
},
{
glyphname = registered;
lastChange = "2017-11-28 23:36:01 +0000";
layers = (
{
layerId = "3F211455-7DB7-4737-9D97-BF0B219628E9";
paths = (
{
closed = 1;
nodes = (
"50 154 OFFCURVE",
"210 -7 OFFCURVE",
"410 -7 CURVE SMOOTH",
"610 -7 OFFCURVE",
"771 155 OFFCURVE",
"771 354 CURVE SMOOTH",
"771 552 OFFCURVE",
"608 715 OFFCURVE",
"410 715 CURVE SMOOTH",
"215 715 OFFCURVE",
"50 558 OFFCURVE",
"50 354 CURVE SMOOTH"
);
},
{
closed = 1;
nodes = (
"79 538 OFFCURVE",
"226 688 OFFCURVE",
"410 688 CURVE SMOOTH",
"596 688 OFFCURVE",
"742 538 OFFCURVE",
"742 354 CURVE SMOOTH",
"742 172 OFFCURVE",
"598 20 OFFCURVE",
"410 20 CURVE SMOOTH",
"226 20 OFFCURVE",
"79 171 OFFCURVE",
"79 354 CURVE SMOOTH"
);
},
{
closed = 1;
nodes = (
"319 328 LINE",
"374 328 LINE SMOOTH",
"385 328 OFFCURVE",
"395 328 OFFCURVE",
"404 316 CURVE SMOOTH",
"539 141 LINE",
"543 135 OFFCURVE",
"547 133 OFFCURVE",
"554 133 CURVE SMOOTH",
"594 133 LINE",
"452 317 LINE",
"446 324 OFFCURVE",
"440 332 OFFCURVE",
"432 337 CURVE",
"502 346 OFFCURVE",
"555 385 OFFCURVE",
"555 459 CURVE SMOOTH",
"555 542 OFFCURVE",
"497 576 OFFCURVE",
"400 576 CURVE SMOOTH",
"276 576 LINE",
"276 133 LINE",
"319 133 LINE"
);
},
{
closed = 1;
nodes = (
"319 360 LINE",
"319 542 LINE",
"400 542 LINE SMOOTH",
"470 542 OFFCURVE",
"513 524 OFFCURVE",
"513 454 CURVE SMOOTH",
"513 388 OFFCURVE",
"464 360 OFFCURVE",
"393 360 CURVE SMOOTH"
);
}
);
width = 820;
}
);
leftKerningGroup = O;
note = registered;
rightKerningGroup = O;
unicode = 00AE;
},
{
glyphname = macron;
lastChange = "2017-11-28 23:36:01 +0000";
layers = (
{
layerId = "3F211455-7DB7-4737-9D97-BF0B219628E9";
paths = (
{
closed = 1;
nodes = (
"66 658 LINE",
"66 626 LINE",
"339 626 LINE",
"339 658 LINE"
);
}
);
width = 405;
}
);
note = macron;
unicode = 00AF;
},
{
glyphname = degree;
lastChange = "2017-11-28 23:36:01 +0000";
layers = (
{
layerId = "3F211455-7DB7-4737-9D97-BF0B219628E9";
paths = (
{
closed = 1;
nodes = (
"54 482 OFFCURVE",
"122 418 OFFCURVE",
"204 418 CURVE SMOOTH",
"284 418 OFFCURVE",
"354 480 OFFCURVE",
"354 567 CURVE SMOOTH",
"354 653 OFFCURVE",
"286 716 OFFCURVE",
"204 716 CURVE SMOOTH",
"123 716 OFFCURVE",
"54 655 OFFCURVE",
"54 567 CURVE SMOOTH"
);
},
{
closed = 1;
nodes = (
"89 629 OFFCURVE",
"135 682 OFFCURVE",
"204 682 CURVE SMOOTH",
"268 682 OFFCURVE",
"319 631 OFFCURVE",
"319 567 CURVE SMOOTH",
"319 508 OFFCURVE",
"270 452 OFFCURVE",
"204 452 CURVE SMOOTH",
"145 452 OFFCURVE",
"89 501 OFFCURVE",
"89 567 CURVE SMOOTH"
);
}
);
width = 411;
}
);
leftKerningGroup = quotedbl;
note = degree;
rightKerningGroup = quotedbl;
unicode = 00B0;
},
{
glyphname = plusminus;
lastChange = "2017-11-28 23:36:01 +0000";
layers = (
{
layerId = "3F211455-7DB7-4737-9D97-BF0B219628E9";
paths = (
{
closed = 1;
nodes = (
"304 576 LINE",
"266 576 LINE",
"266 374 LINE",
"50 374 LINE",
"50 337 LINE",
"266 337 LINE",
"266 136 LINE",
"304 136 LINE",
"304 337 LINE",
"520 337 LINE",
"520 374 LINE",
"304 374 LINE"
);
},
{
closed = 1;
nodes = (
"50 76 LINE",
"50 40 LINE",
"520 40 LINE",
"520 76 LINE"
);
}
);
width = 570;
}
);
note = plusminus;
unicode = 00B1;
},
{
glyphname = twosuperior;
lastChange = "2017-11-28 23:36:01 +0000";
layers = (
{
layerId = "3F211455-7DB7-4737-9D97-BF0B219628E9";
paths = (
{
closed = 1;
nodes = (
"274 528 LINE SMOOTH",
"262 528 OFFCURVE",
"257 521 OFFCURVE",
"256 507 CURVE",
"253 483 LINE",
"136 483 LINE SMOOTH",
"127 483 OFFCURVE",
"108 482 OFFCURVE",
"97 478 CURVE",
"200 583 LINE SMOOTH",
"240 623 OFFCURVE",
"277 658 OFFCURVE",
"277 714 CURVE SMOOTH",
"277 776 OFFCURVE",
"230 812 OFFCURVE",
"171 812 CURVE SMOOTH",
"111 812 OFFCURVE",
"65 779 OFFCURVE",
"55 713 CURVE",
"79 709 LINE SMOOTH",
"86 708 OFFCURVE",
"90 713 OFFCURVE",
"92 719 CURVE",
"108 760 OFFCURVE",
"132 781 OFFCURVE",
"169 781 CURVE SMOOTH",
"209 781 OFFCURVE",
"240 758 OFFCURVE",
"240 712 CURVE SMOOTH",
"240 668 OFFCURVE",
"211 634 OFFCURVE",
"173 596 CURVE SMOOTH",
"55 477 LINE",
"51 474 OFFCURVE",
"48 466 OFFCURVE",
"48 462 CURVE SMOOTH",
"48 450 LINE",
"251 450 LINE",
"285 450 LINE",
"285 471 LINE",
"285 528 LINE"
);
}
);
width = 344;
}
);
note = twosuperior;
unicode = 00B2;
},
{
glyphname = threesuperior;
lastChange = "2017-11-28 23:36:01 +0000";
layers = (
{
layerId = "3F211455-7DB7-4737-9D97-BF0B219628E9";
paths = (
{
closed = 1;
nodes = (
"109 812 OFFCURVE",
"64 777 OFFCURVE",
"54 712 CURVE",
"67 710 LINE",
"80 708 OFFCURVE",
"87 709 OFFCURVE",
"90 719 CURVE SMOOTH",
"102 760 OFFCURVE",
"126 781 OFFCURVE",
"167 781 CURVE SMOOTH",
"206 781 OFFCURVE",
"238 759 OFFCURVE",
"238 714 CURVE SMOOTH",
"238 669 OFFCURVE",
"203 646 OFFCURVE",
"148 644 CURVE",
"148 620 LINE",
"204 620 OFFCURVE",
"244 602 OFFCURVE",
"244 549 CURVE SMOOTH",
"244 505 OFFCURVE",
"206 476 OFFCURVE",
"162 476 CURVE SMOOTH",
"124 476 OFFCURVE",
"92 500 OFFCURVE",
"79 538 CURVE",
"75 548 OFFCURVE",
"66 547 OFFCURVE",
"58 544 CURVE",
"44 538 LINE",
"64 475 OFFCURVE",
"92 446 OFFCURVE",
"164 446 CURVE SMOOTH",
"223 446 OFFCURVE",
"281 485 OFFCURVE",
"281 551 CURVE SMOOTH",
"281 598 OFFCURVE",
"254 622 OFFCURVE",
"206 634 CURVE",
"243 645 OFFCURVE",
"272 675 OFFCURVE",
"272 720 CURVE SMOOTH",
"272 778 OFFCURVE",
"225 812 OFFCURVE",
"168 812 CURVE SMOOTH"
);
}
);
width = 336;
}
);
note = threesuperior;
unicode = 00B3;
},
{
glyphname = acute;
lastChange = "2017-11-28 23:36:01 +0000";
layers = (
{
layerId = "3F211455-7DB7-4737-9D97-BF0B219628E9";
paths = (
{
closed = 1;
nodes = (
"213 716 LINE",
"166 716 LINE SMOOTH",
"156 716 OFFCURVE",
"145 714 OFFCURVE",
"136 700 CURVE SMOOTH",
"58 580 LINE",
"86 580 LINE SMOOTH",
"96 580 OFFCURVE",
"99 583 OFFCURVE",
"105 589 CURVE"
);
}
);
width = 269;
}
);
note = acute;
unicode = 00B4;
},
{
glyphname = mu;
lastChange = "2017-11-28 23:36:01 +0000";
layers = (
{
layerId = "3F211455-7DB7-4737-9D97-BF0B219628E9";
paths = (
{
closed = 1;
nodes = (
"130 498 LINE",
"82 498 LINE",
"82 -155 LINE SMOOTH",
"82 -168 OFFCURVE",
"91 -176 OFFCURVE",
"104 -176 CURVE SMOOTH",
"128 -176 LINE",
"128 -12 LINE SMOOTH",
"128 7 OFFCURVE",
"126 57 OFFCURVE",
"124 72 CURVE",
"149 22 OFFCURVE",
"194 -3 OFFCURVE",
"258 -3 CURVE SMOOTH",
"327 -3 OFFCURVE",
"383 30 OFFCURVE",
"428 87 CURVE",
"433 13 LINE",
"433 4 OFFCURVE",
"439 0 OFFCURVE",
"448 0 CURVE SMOOTH",
"474 0 LINE",
"474 498 LINE",
"426 498 LINE",
"426 124 LINE",
"385 70 OFFCURVE",
"329 30 OFFCURVE",
"260 30 CURVE SMOOTH",
"172 30 OFFCURVE",
"131 88 OFFCURVE",
"131 180 CURVE"
);
}
);
width = 550;
}
);
leftKerningGroup = m;
note = mu;
rightKerningGroup = m;
unicode = 00B5;
},
{
glyphname = paragraph;
lastChange = "2017-11-28 23:36:01 +0000";
layers = (
{
layerId = "3F211455-7DB7-4737-9D97-BF0B219628E9";
paths = (
{
closed = 1;
nodes = (
"624 708 LINE",
"262 708 LINE SMOOTH",
"140 708 OFFCURVE",
"41 649 OFFCURVE",
"41 532 CURVE SMOOTH",
"41 415 OFFCURVE",
"140 350 OFFCURVE",
"262 350 CURVE",
"262 -95 LINE",
"305 -95 LINE",
"305 666 LINE",
"469 666 LINE",
"469 -95 LINE",
"512 -95 LINE",
"512 666 LINE",
"624 666 LINE"
);
}
);
width = 654;
}
);
note = paragraph;
unicode = 00B6;
},
{
glyphname = periodcentered;
lastChange = "2017-11-28 23:36:01 +0000";
layers = (
{
layerId = "3F211455-7DB7-4737-9D97-BF0B219628E9";
paths = (
{
closed = 1;
nodes = (
"146 247 OFFCURVE",
"168 269 OFFCURVE",
"168 297 CURVE SMOOTH",
"168 325 OFFCURVE",
"146 347 OFFCURVE",
"119 347 CURVE SMOOTH",
"91 347 OFFCURVE",
"69 325 OFFCURVE",
"69 297 CURVE SMOOTH",
"69 269 OFFCURVE",
"91 247 OFFCURVE",
"119 247 CURVE SMOOTH"
);
}
);
width = 237;
}
);
note = periodcentered;
unicode = 00B7;
},
{
glyphname = cedilla;
lastChange = "2017-11-28 23:36:01 +0000";
layers = (
{
layerId = "3F211455-7DB7-4737-9D97-BF0B219628E9";
paths = (
{
closed = 1;
nodes = (
"69 -138 OFFCURVE",
"64 -148 CURVE",
"60 -156 LINE",
"82 -171 OFFCURVE",
"105 -178 OFFCURVE",
"132 -178 CURVE SMOOTH",
"177 -178 OFFCURVE",
"224 -159 OFFCURVE",
"224 -113 CURVE SMOOTH",
"224 -71 OFFCURVE",
"191 -56 OFFCURVE",
"134 -46 CURVE",
"148 2 LINE",
"118 2 LINE",
"97 -64 LINE",
"140 -71 OFFCURVE",
"186 -74 OFFCURVE",
"186 -113 CURVE SMOOTH",
"186 -142 OFFCURVE",
"162 -154 OFFCURVE",
"132 -154 CURVE SMOOTH",
"117 -154 OFFCURVE",
"96 -147 OFFCURVE",
"83 -141 CURVE SMOOTH",
"74 -137 OFFCURVE"
);
}
);
width = 287;
}
);
note = cedilla;
unicode = 00B8;
},
{
glyphname = onesuperior;
lastChange = "2017-11-28 23:36:01 +0000";
layers = (
{
layerId = "3F211455-7DB7-4737-9D97-BF0B219628E9";
paths = (
{
closed = 1;
nodes = (
"64 474 LINE",
"64 450 LINE",
"252 450 LINE",
"252 474 LINE",
"179 474 LINE",
"179 809 LINE",
"150 809 LINE",
"44 717 LINE",
"56 702 LINE",
"61 695 OFFCURVE",
"66 696 OFFCURVE",
"72 700 CURVE",
"144 763 LINE",
"142 744 LINE",
"142 474 LINE"
);
}
);
width = 291;
}
);
note = onesuperior;
unicode = 00B9;
},
{
glyphname = ordmasculine;
lastChange = "2017-11-28 23:36:01 +0000";
layers = (
{
layerId = "3F211455-7DB7-4737-9D97-BF0B219628E9";
paths = (
{
closed = 1;
nodes = (
"110 714 OFFCURVE",
"56 655 OFFCURVE",
"56 564 CURVE SMOOTH",
"56 473 OFFCURVE",
"110 414 OFFCURVE",
"200 414 CURVE SMOOTH",
"292 414 OFFCURVE",
"343 474 OFFCURVE",
"343 564 CURVE SMOOTH",
"343 624 OFFCURVE",
"319 680 OFFCURVE",
"260 704 CURVE SMOOTH",
"242 711 OFFCURVE",
"222 714 OFFCURVE",
"200 714 CURVE SMOOTH"
);
},
{
closed = 1;
nodes = (
"129 442 OFFCURVE",
"94 491 OFFCURVE",
"94 564 CURVE SMOOTH",
"94 634 OFFCURVE",
"126 686 OFFCURVE",
"200 686 CURVE SMOOTH",
"271 686 OFFCURVE",
"305 639 OFFCURVE",
"305 564 CURVE SMOOTH",
"305 489 OFFCURVE",
"271 442 OFFCURVE",
"200 442 CURVE SMOOTH"
);
}
);
width = 401;
}
);
leftKerningGroup = ordfeminine;
note = ordmasculine;
rightKerningGroup = ordfeminine;
unicode = 00BA;
},
{
glyphname = guillemotright;
lastChange = "2017-11-28 23:36:01 +0000";
layers = (
{
layerId = "3F211455-7DB7-4737-9D97-BF0B219628E9";
paths = (
{
closed = 1;
nodes = (
"332 263 LINE",
"211 452 LINE",
"196 445 LINE",
"185 438 OFFCURVE",
"188 430 OFFCURVE",
"192 421 CURVE",
"283 273 LINE SMOOTH",
"287 266 OFFCURVE",
"291 262 OFFCURVE",
"294 259 CURVE",
"291 256 OFFCURVE",
"287 252 OFFCURVE",
"283 245 CURVE",
"192 99 LINE",
"189 92 OFFCURVE",
"183 83 OFFCURVE",
"196 75 CURVE",
"211 67 LINE",
"332 256 LINE"
);
},
{
closed = 1;
nodes = (
"204 263 LINE",
"84 452 LINE",
"68 445 LINE",
"57 439 OFFCURVE",
"59 430 OFFCURVE",
"64 420 CURVE",
"156 273 LINE",
"160 266 OFFCURVE",
"163 262 OFFCURVE",
"166 259 CURVE",
"163 256 OFFCURVE",
"160 252 OFFCURVE",
"156 245 CURVE",
"64 98 LINE",
"61 92 OFFCURVE",
"55 82 OFFCURVE",
"68 74 CURVE",
"84 67 LINE",
"204 256 LINE"
);
}
);
width = 381;
}
);
note = guillemotright;
unicode = 00BB;
},
{
glyphname = onequarter;
lastChange = "2017-11-28 23:36:01 +0000";
layers = (
{
components = (
{
name = onesuperior;
transform = "{1, 0, 0, 1, -12, -99}";
}
);
layerId = "3F211455-7DB7-4737-9D97-BF0B219628E9";
paths = (
{
closed = 1;
nodes = (
"598 124 LINE",
"598 358 LINE",
"564 358 LINE",
"388 122 LINE",
"392 106 LINE",
"393 101 OFFCURVE",
"396 98 OFFCURVE",
"404 98 CURVE SMOOTH",
"566 98 LINE",
"566 0 LINE",
"598 0 LINE",
"598 98 LINE",
"652 98 LINE SMOOTH",
"658 98 OFFCURVE",
"661 101 OFFCURVE",
"661 106 CURVE SMOOTH",
"661 124 LINE"
);
},
{
closed = 1;
nodes = (
"566 124 LINE",
"424 124 LINE",
"568 317 LINE",
"567 307 OFFCURVE",
"566 299 OFFCURVE",
"566 291 CURVE SMOOTH"
);
},
{
closed = 1;
nodes = (
"570 708 LINE",
"548 708 LINE SMOOTH",
"536 708 OFFCURVE",
"526 701 OFFCURVE",
"521 690 CURVE",
"121 0 LINE",
"141 0 LINE SMOOTH",
"155 0 OFFCURVE",
"160 4 OFFCURVE",
"168 16 CURVE"
);
}
);
width = 686;
}
);
note = onequarter;
unicode = 00BC;
},
{
glyphname = onehalf;
lastChange = "2017-11-28 23:36:01 +0000";
layers = (
{
components = (
{
name = onesuperior;
transform = "{1, 0, 0, 1, -12, -99}";
},
{
name = twosuperior;
transform = "{1, 0, 0, 1, 358, -450}";
}
);
layerId = "3F211455-7DB7-4737-9D97-BF0B219628E9";
paths = (
{
closed = 1;
nodes = (
"546 708 LINE",
"525 708 LINE SMOOTH",
"513 708 OFFCURVE",
"503 701 OFFCURVE",
"498 690 CURVE",
"98 0 LINE",
"118 0 LINE SMOOTH",
"132 0 OFFCURVE",
"137 4 OFFCURVE",
"145 16 CURVE"
);
}
);
width = 688;
}
);
note = onehalf;
unicode = 00BD;
},
{
glyphname = threequarters;
lastChange = "2017-11-28 23:36:01 +0000";
layers = (
{
components = (
{
name = threesuperior;
transform = "{1, 0, 0, 1, -6, -100}";
}
);
layerId = "3F211455-7DB7-4737-9D97-BF0B219628E9";
paths = (
{
closed = 1;
nodes = (
"630 124 LINE",
"630 358 LINE",
"597 358 LINE",
"421 122 LINE",
"424 106 LINE SMOOTH",
"425 101 OFFCURVE",
"428 98 OFFCURVE",
"436 98 CURVE SMOOTH",
"599 98 LINE",
"599 0 LINE",
"630 0 LINE",
"630 98 LINE",
"685 98 LINE SMOOTH",
"691 98 OFFCURVE",
"694 101 OFFCURVE",
"694 106 CURVE SMOOTH",
"694 124 LINE"
);
},
{
closed = 1;
nodes = (
"599 123 LINE",
"456 123 LINE",
"600 317 LINE",
"599 307 OFFCURVE",
"599 299 OFFCURVE",
"599 291 CURVE SMOOTH"
);
},
{
closed = 1;
nodes = (
"606 707 LINE",
"585 707 LINE SMOOTH",
"575 707 OFFCURVE",
"565 704 OFFCURVE",
"558 690 CURVE",
"158 0 LINE",
"178 0 LINE SMOOTH",
"187 0 OFFCURVE",
"196 2 OFFCURVE",
"205 15 CURVE"
);
}
);
width = 718;
}
);
note = threequarters;
unicode = 00BE;
},
{
glyphname = questiondown;
lastChange = "2017-11-28 23:36:01 +0000";
layers = (
{
layerId = "3F211455-7DB7-4737-9D97-BF0B219628E9";
paths = (
{
closed = 1;
nodes = (
"367 -92 LINE",
"366 -90 OFFCURVE",
"365 -89 OFFCURVE",
"363 -88 CURVE SMOOTH",
"361 -87 OFFCURVE",
"359 -86 OFFCURVE",
"356 -86 CURVE SMOOTH",
"353 -86 OFFCURVE",
"348 -89 OFFCURVE",
"342 -95 CURVE SMOOTH",
"314 -123 OFFCURVE",
"269 -142 OFFCURVE",
"219 -142 CURVE SMOOTH",
"149 -142 OFFCURVE",
"90 -102 OFFCURVE",
"90 -28 CURVE SMOOTH",
"90 49 OFFCURVE",
"126 64 OFFCURVE",
"209 126 CURVE SMOOTH",
"234 145 OFFCURVE",
"250 164 OFFCURVE",
"250 190 CURVE SMOOTH",
"248 277 LINE",
"215 277 LINE",
"210 196 LINE SMOOTH",
"208 171 OFFCURVE",
"190 157 OFFCURVE",
"164 140 CURVE SMOOTH",
"89 90 OFFCURVE",
"44 51 OFFCURVE",
"44 -32 CURVE SMOOTH",
"44 -123 OFFCURVE",
"122 -182 OFFCURVE",
"216 -182 CURVE SMOOTH",
"276 -182 OFFCURVE",
"337 -155 OFFCURVE",
"380 -112 CURVE"
);
},
{
closed = 1;
nodes = (
"257 413 OFFCURVE",
"278 434 OFFCURVE",
"278 459 CURVE SMOOTH",
"278 484 OFFCURVE",
"257 505 OFFCURVE",
"232 505 CURVE SMOOTH",
"207 505 OFFCURVE",
"186 484 OFFCURVE",
"186 459 CURVE SMOOTH",
"186 434 OFFCURVE",
"207 413 OFFCURVE",
"232 413 CURVE SMOOTH"
);
}
);
width = 415;
}
);
note = questiondown;
unicode = 00BF;
},
{
glyphname = AE;
lastChange = "2017-11-28 23:36:01 +0000";
layers = (
{
layerId = "3F211455-7DB7-4737-9D97-BF0B219628E9";
paths = (
{
closed = 1;
nodes = (
"372 708 LINE",
"372 689 LINE SMOOTH",
"372 678 OFFCURVE",
"379 672 OFFCURVE",
"392 671 CURVE",
"433 670 LINE",
"89 46 LINE",
"57 43 LINE SMOOTH",
"44 42 OFFCURVE",
"38 35 OFFCURVE",
"38 23 CURVE SMOOTH",
"38 0 LINE",
"211 0 LINE",
"211 23 LINE SMOOTH",
"211 36 OFFCURVE",
"203 42 OFFCURVE",
"188 43 CURVE",
"142 46 LINE",
"237 219 LINE",
"535 219 LINE",
"558 39 LINE",
"509 38 LINE",
"496 37 OFFCURVE",
"490 31 OFFCURVE",
"490 20 CURVE SMOOTH",
"490 0 LINE",
"934 0 LINE",
"934 147 LINE",
"910 147 LINE SMOOTH",
"896 147 OFFCURVE",
"889 138 OFFCURVE",
"888 122 CURVE",
"884 43 LINE",
"606 43 LINE",
"568 338 LINE",
"843 338 LINE",
"843 379 LINE",
"563 379 LINE",
"527 666 LINE",
"884 666 LINE",
"888 586 LINE",
"889 570 OFFCURVE",
"896 562 OFFCURVE",
"910 562 CURVE SMOOTH",
"934 562 LINE",
"934 708 LINE"
);
},
{
closed = 1;
nodes = (
"530 257 LINE",
"258 257 LINE",
"458 622 LINE",
"463 633 OFFCURVE",
"473 654 OFFCURVE",
"478 669 CURVE"
);
}
);
width = 998;
}
);
leftKerningGroup = A;
note = AE;
rightKerningGroup = E;
unicode = 00C6;
},
{
glyphname = Eth;
lastChange = "2017-11-28 23:36:01 +0000";
layers = (
{
components = (
{
name = D;
}
);
layerId = "3F211455-7DB7-4737-9D97-BF0B219628E9";
paths = (
{
closed = 1;
nodes = (
"27 342 LINE",
"388 342 LINE",
"388 374 LINE",
"27 374 LINE"
);
}
);
width = 760;
}
);
note = Eth;
unicode = 00D0;
},
{
glyphname = multiply;
lastChange = "2017-11-28 23:36:01 +0000";
layers = (
{
layerId = "3F211455-7DB7-4737-9D97-BF0B219628E9";
paths = (
{
closed = 1;
nodes = (
"448 518 LINE",
"421 545 LINE",
"238 362 LINE",
"54 546 LINE",
"28 519 LINE",
"212 335 LINE",
"25 148 LINE",
"51 122 LINE",
"238 309 LINE",
"424 123 LINE",
"450 149 LINE",
"264 335 LINE"
);
}
);
width = 479;
}
);
note = multiply;
unicode = 00D7;
},
{
glyphname = Oslash;
lastChange = "2017-11-28 23:36:01 +0000";
layers = (
{
layerId = "3F211455-7DB7-4737-9D97-BF0B219628E9";
paths = (
{
closed = 1;
nodes = (
"712 457 OFFCURVE",
"681 559 OFFCURVE",
"606 629 CURVE",
"688 740 LINE",
"661 740 LINE SMOOTH",
"649 740 OFFCURVE",
"645 736 OFFCURVE",
"636 725 CURVE SMOOTH",
"580 650 LINE",
"519 696 OFFCURVE",
"452 716 OFFCURVE",
"374 716 CURVE SMOOTH",
"173 716 OFFCURVE",
"38 568 OFFCURVE",
"38 354 CURVE SMOOTH",
"38 244 OFFCURVE",
"69 145 OFFCURVE",
"151 72 CURVE",
"58 -52 LINE",
"80 -52 LINE SMOOTH",
"91 -52 OFFCURVE",
"103 -50 OFFCURVE",
"112 -36 CURVE",
"177 52 LINE",
"231 14 OFFCURVE",
"301 -8 OFFCURVE",
"374 -8 CURVE SMOOTH",
"579 -8 OFFCURVE",
"712 140 OFFCURVE",
"712 354 CURVE SMOOTH"
);
},
{
closed = 1;
nodes = (
"90 539 OFFCURVE",
"196 672 OFFCURVE",
"374 672 CURVE SMOOTH",
"437 672 OFFCURVE",
"505 651 OFFCURVE",
"553 613 CURVE",
"180 110 LINE",
"118 170 OFFCURVE",
"90 261 OFFCURVE",
"90 354 CURVE SMOOTH"
);
},
{
closed = 1;
nodes = (
"659 167 OFFCURVE",
"554 37 OFFCURVE",
"374 37 CURVE SMOOTH",
"311 37 OFFCURVE",
"253 53 OFFCURVE",
"205 89 CURVE",
"577 590 LINE",
"636 529 OFFCURVE",
"659 445 OFFCURVE",
"659 354 CURVE SMOOTH"
);
}
);
width = 755;
}
);
leftKerningGroup = C;
note = Oslash;
rightKerningGroup = D;
unicode = 00D8;
},
{
glyphname = Thorn;
lastChange = "2017-11-28 23:36:01 +0000";
layers = (
{
layerId = "3F211455-7DB7-4737-9D97-BF0B219628E9";
paths = (
{
closed = 1;
nodes = (
"134 143 LINE",
"266 143 LINE SMOOTH",
"408 143 OFFCURVE",
"517 221 OFFCURVE",
"517 356 CURVE SMOOTH",
"517 498 OFFCURVE",
"422 566 OFFCURVE",
"266 566 CURVE SMOOTH",
"134 566 LINE",
"134 708 LINE",
"84 708 LINE",
"84 0 LINE",
"134 0 LINE"
);
},
{
closed = 1;
nodes = (
"134 184 LINE",
"134 524 LINE",
"266 524 LINE SMOOTH",
"386 524 OFFCURVE",
"466 476 OFFCURVE",
"466 356 CURVE SMOOTH",
"466 250 OFFCURVE",
"383 184 OFFCURVE",
"266 184 CURVE SMOOTH"
);
}
);
width = 553;
}
);
note = Thorn;
unicode = 00DE;
},
{
glyphname = germandbls;
lastChange = "2017-11-28 23:36:01 +0000";
layers = (
{
layerId = "3F211455-7DB7-4737-9D97-BF0B219628E9";
paths = (
{
closed = 1;
nodes = (
"161 716 OFFCURVE",
"75 630 OFFCURVE",
"75 500 CURVE SMOOTH",
"75 0 LINE",
"122 0 LINE",
"122 500 LINE SMOOTH",
"122 607 OFFCURVE",
"182 680 OFFCURVE",
"294 680 CURVE SMOOTH",
"365 680 OFFCURVE",
"428 640 OFFCURVE",
"428 576 CURVE SMOOTH",
"428 526 OFFCURVE",
"395 493 OFFCURVE",
"346 458 CURVE SMOOTH",
"300 425 OFFCURVE",
"264 396 OFFCURVE",
"264 352 CURVE SMOOTH",
"264 301 OFFCURVE",
"300 272 OFFCURVE",
"364 249 CURVE SMOOTH",
"425 227 OFFCURVE",
"463 193 OFFCURVE",
"463 140 CURVE SMOOTH",
"463 75 OFFCURVE",
"413 27 OFFCURVE",
"339 27 CURVE SMOOTH",
"294 27 OFFCURVE",
"259 41 OFFCURVE",
"224 70 CURVE SMOOTH",
"212 80 OFFCURVE",
"202 82 OFFCURVE",
"194 70 CURVE SMOOTH",
"183 53 LINE",
"229 12 OFFCURVE",
"275 -8 OFFCURVE",
"336 -8 CURVE SMOOTH",
"437 -8 OFFCURVE",
"507 53 OFFCURVE",
"507 147 CURVE SMOOTH",
"507 223 OFFCURVE",
"469 253 OFFCURVE",
"375 292 CURVE SMOOTH",
"338 307 OFFCURVE",
"314 326 OFFCURVE",
"314 360 CURVE SMOOTH",
"314 391 OFFCURVE",
"345 418 OFFCURVE",
"393 449 CURVE SMOOTH",
"436 476 OFFCURVE",
"473 522 OFFCURVE",
"473 576 CURVE SMOOTH",
"473 658 OFFCURVE",
"392 716 OFFCURVE",
"296 716 CURVE SMOOTH"
);
}
);
width = 538;
}
);
note = germandbls;
unicode = 00DF;
},
{
glyphname = ae;
lastChange = "2017-11-28 23:36:01 +0000";
layers = (
{
layerId = "3F211455-7DB7-4737-9D97-BF0B219628E9";
paths = (
{
closed = 1;
nodes = (
"481 506 OFFCURVE",
"418 461 OFFCURVE",
"386 386 CURVE",
"369 466 OFFCURVE",
"321 506 OFFCURVE",
"240 506 CURVE SMOOTH",
"170 506 OFFCURVE",
"116 479 OFFCURVE",
"64 427 CURVE",
"73 412 LINE",
"81 400 OFFCURVE",
"94 402 OFFCURVE",
"106 414 CURVE SMOOTH",
"136 444 OFFCURVE",
"188 468 OFFCURVE",
"239 468 CURVE SMOOTH",
"321 468 OFFCURVE",
"357 411 OFFCURVE",
"357 324 CURVE SMOOTH",
"357 290 LINE",
"223 289 OFFCURVE",
"40 251 OFFCURVE",
"40 129 CURVE SMOOTH",
"40 36 OFFCURVE",
"97 -8 OFFCURVE",
"188 -8 CURVE SMOOTH",
"278 -8 OFFCURVE",
"357 39 OFFCURVE",
"382 131 CURVE",
"413 43 OFFCURVE",
"475 -7 OFFCURVE",
"566 -7 CURVE SMOOTH",
"620 -7 OFFCURVE",
"699 18 OFFCURVE",
"736 64 CURVE",
"724 79 LINE",
"716 87 OFFCURVE",
"707 85 OFFCURVE",
"698 76 CURVE SMOOTH",
"674 52 OFFCURVE",
"616 31 OFFCURVE",
"569 31 CURVE SMOOTH",
"454 31 OFFCURVE",
"401 129 OFFCURVE",
"401 258 CURVE",
"731 258 LINE SMOOTH",
"743 258 OFFCURVE",
"743 264 OFFCURVE",
"743 277 CURVE SMOOTH",
"743 405 OFFCURVE",
"680 506 OFFCURVE",
"566 506 CURVE SMOOTH"
);
},
{
closed = 1;
nodes = (
"357 192 LINE SMOOTH",
"357 96 OFFCURVE",
"292 26 OFFCURVE",
"197 26 CURVE SMOOTH",
"128 26 OFFCURVE",
"85 63 OFFCURVE",
"85 131 CURVE SMOOTH",
"85 230 OFFCURVE",
"241 252 OFFCURVE",
"357 257 CURVE"
);
},
{
closed = 1;
nodes = (
"653 470 OFFCURVE",
"701 392 OFFCURVE",
"701 289 CURVE",
"402 289 LINE",
"409 388 OFFCURVE",
"464 470 OFFCURVE",
"564 470 CURVE SMOOTH"
);
}
);
width = 783;
}
);
leftKerningGroup = a;
note = ae;
unicode = 00E6;
},
{
glyphname = eth;
lastChange = "2017-11-28 23:36:01 +0000";
layers = (
{
layerId = "3F211455-7DB7-4737-9D97-BF0B219628E9";
paths = (
{
closed = 1;
nodes = (
"225 521 LINE",
"307 594 LINE",
"390 538 OFFCURVE",
"431 450 OFFCURVE",
"440 344 CURVE",
"401 414 OFFCURVE",
"335 460 OFFCURVE",
"251 460 CURVE SMOOTH",
"122 460 OFFCURVE",
"34 366 OFFCURVE",
"34 228 CURVE SMOOTH",
"34 95 OFFCURVE",
"121 -6 OFFCURVE",
"252 -6 CURVE SMOOTH",
"410 -6 OFFCURVE",
"482 126 OFFCURVE",
"482 300 CURVE SMOOTH",
"482 429 OFFCURVE",
"440 542 OFFCURVE",
"338 619 CURVE",
"395 669 LINE",
"403 677 OFFCURVE",
"404 680 OFFCURVE",
"399 688 CURVE",
"390 703 LINE",
"314 635 LINE",
"264 666 OFFCURVE",
"203 686 OFFCURVE",
"142 696 CURVE",
"137 679 LINE",
"134 668 OFFCURVE",
"138 659 OFFCURVE",
"148 656 CURVE",
"191 647 OFFCURVE",
"240 632 OFFCURVE",
"282 609 CURVE",
"219 554 LINE",
"215 550 OFFCURVE",
"210 545 OFFCURVE",
"216 535 CURVE SMOOTH"
);
},
{
closed = 1;
nodes = (
"151 32 OFFCURVE",
"82 114 OFFCURVE",
"82 228 CURVE SMOOTH",
"82 341 OFFCURVE",
"143 423 OFFCURVE",
"259 423 CURVE SMOOTH",
"345 423 OFFCURVE",
"412 366 OFFCURVE",
"437 282 CURVE",
"433 143 OFFCURVE",
"383 32 OFFCURVE",
"254 32 CURVE SMOOTH"
);
}
);
width = 523;
}
);
leftKerningGroup = c;
note = eth;
unicode = 00F0;
},
{
glyphname = divide;
lastChange = "2017-11-28 23:36:01 +0000";
layers = (
{
layerId = "3F211455-7DB7-4737-9D97-BF0B219628E9";
paths = (
{
closed = 1;
nodes = (
"26 354 LINE",
"26 317 LINE",
"496 317 LINE",
"496 354 LINE"
);
},
{
closed = 1;
nodes = (
"287 110 OFFCURVE",
"308 131 OFFCURVE",
"308 158 CURVE SMOOTH",
"308 184 OFFCURVE",
"287 205 OFFCURVE",
"261 205 CURVE SMOOTH",
"234 205 OFFCURVE",
"213 184 OFFCURVE",
"213 158 CURVE SMOOTH",
"213 131 OFFCURVE",
"234 110 OFFCURVE",
"261 110 CURVE SMOOTH"
);
},
{
closed = 1;
nodes = (
"287 465 OFFCURVE",
"308 486 OFFCURVE",
"308 513 CURVE SMOOTH",
"308 539 OFFCURVE",
"287 560 OFFCURVE",
"261 560 CURVE SMOOTH",
"234 560 OFFCURVE",
"213 539 OFFCURVE",
"213 513 CURVE SMOOTH",
"213 486 OFFCURVE",
"234 465 OFFCURVE",
"261 465 CURVE SMOOTH"
);
}
);
width = 524;
}
);
note = divide;
unicode = 00F7;
},
{
glyphname = oslash;
lastChange = "2017-11-28 23:36:01 +0000";
layers = (
{
layerId = "3F211455-7DB7-4737-9D97-BF0B219628E9";
paths = (
{
closed = 1;
nodes = (
"505 531 LINE",
"480 531 LINE SMOOTH",
"465 531 OFFCURVE",
"465 527 OFFCURVE",
"456 516 CURVE SMOOTH",
"412 458 LINE",
"374 489 OFFCURVE",
"321 506 OFFCURVE",
"270 506 CURVE SMOOTH",
"128 506 OFFCURVE",
"42 404 OFFCURVE",
"42 249 CURVE SMOOTH",
"42 177 OFFCURVE",
"61 102 OFFCURVE",
"112 53 CURVE",
"44 -38 LINE",
"63 -38 LINE SMOOTH",
"71 -38 OFFCURVE",
"86 -35 OFFCURVE",
"94 -22 CURVE",
"135 33 LINE",
"171 7 OFFCURVE",
"216 -6 OFFCURVE",
"270 -6 CURVE SMOOTH",
"414 -6 OFFCURVE",
"496 96 OFFCURVE",
"496 249 CURVE SMOOTH",
"496 315 OFFCURVE",
"479 387 OFFCURVE",
"435 436 CURVE"
);
},
{
closed = 1;
nodes = (
"89 380 OFFCURVE",
"148 469 OFFCURVE",
"270 469 CURVE SMOOTH",
"315 469 OFFCURVE",
"356 456 OFFCURVE",
"388 426 CURVE",
"136 87 LINE",
"102 127 OFFCURVE",
"89 189 OFFCURVE",
"89 249 CURVE SMOOTH"
);
},
{
closed = 1;
nodes = (
"225 30 OFFCURVE",
"188 42 OFFCURVE",
"159 65 CURVE",
"410 402 LINE",
"437 364 OFFCURVE",
"450 313 OFFCURVE",
"450 249 CURVE SMOOTH",
"450 124 OFFCURVE",
"391 30 OFFCURVE",
"270 30 CURVE SMOOTH"
);
}
);
width = 540;
}
);
leftKerningGroup = c;
note = oslash;
rightKerningGroup = b;
unicode = 00F8;
},
{
glyphname = thorn;
lastChange = "2017-11-28 23:36:01 +0000";
layers = (
{
layerId = "3F211455-7DB7-4737-9D97-BF0B219628E9";
paths = (
{
closed = 1;
nodes = (
"84 -176 LINE",
"131 -176 LINE",
"131 70 LINE",
"169 18 OFFCURVE",
"218 -6 OFFCURVE",
"283 -6 CURVE SMOOTH",
"425 -6 OFFCURVE",
"500 109 OFFCURVE",
"500 252 CURVE SMOOTH",
"500 401 OFFCURVE",
"440 506 OFFCURVE",
"306 506 CURVE SMOOTH",
"235 506 OFFCURVE",
"176 469 OFFCURVE",
"131 410 CURVE",
"131 728 LINE",
"84 728 LINE"
);
},
{
closed = 1;
nodes = (
"408 468 OFFCURVE",
"450 381 OFFCURVE",
"450 252 CURVE SMOOTH",
"450 125 OFFCURVE",
"396 31 OFFCURVE",
"274 31 CURVE SMOOTH",
"209 31 OFFCURVE",
"167 54 OFFCURVE",
"131 109 CURVE",
"131 370 LINE",
"172 430 OFFCURVE",
"224 468 OFFCURVE",
"292 468 CURVE SMOOTH"
);
}
);
width = 536;
}
);
note = thorn;
unicode = 00FE;
},
{
glyphname = dotlessi;
lastChange = "2017-11-28 23:36:01 +0000";
layers = (
{
anchors = (
{
name = bottom;
position = "{141, 0}";
},
{
name = ogonek;
position = "{254, 10}";
},
{
name = top;
position = "{127, 498}";
}
);
layerId = "3F211455-7DB7-4737-9D97-BF0B219628E9";
paths = (
{
closed = 1;
nodes = (
"170 40 LINE",
"170 498 LINE",
"122 498 LINE",
"50 498 LINE",
"50 478 LINE SMOOTH",
"50 467 OFFCURVE",
"57 461 OFFCURVE",
"70 460 CURVE",
"122 458 LINE",
"122 40 LINE",
"70 38 LINE",
"57 37 OFFCURVE",
"50 31 OFFCURVE",
"50 20 CURVE SMOOTH",
"50 0 LINE",
"242 0 LINE",
"242 20 LINE SMOOTH",
"242 31 OFFCURVE",
"235 37 OFFCURVE",
"222 38 CURVE"
);
}
);
width = 282;
}
);
note = dotlessi;
unicode = 0131;
},
{
glyphname = Lslash;
lastChange = "2017-11-28 23:36:01 +0000";
layers = (
{
layerId = "3F211455-7DB7-4737-9D97-BF0B219628E9";
paths = (
{
closed = 1;
nodes = (
"515 132 LINE SMOOTH",
"501 132 OFFCURVE",
"494 124 OFFCURVE",
"493 108 CURVE",
"488 44 LINE",
"195 44 LINE",
"195 317 LINE",
"394 423 LINE SMOOTH",
"398 425 OFFCURVE",
"403 428 OFFCURVE",
"403 438 CURVE SMOOTH",
"403 470 LINE",
"195 361 LINE",
"195 668 LINE",
"259 670 LINE",
"272 671 OFFCURVE",
"279 677 OFFCURVE",
"279 688 CURVE SMOOTH",
"279 708 LINE",
"60 708 LINE",
"60 688 LINE SMOOTH",
"60 677 OFFCURVE",
"67 671 OFFCURVE",
"80 670 CURVE",
"144 668 LINE",
"144 337 LINE",
"56 291 LINE SMOOTH",
"50 288 OFFCURVE",
"46 282 OFFCURVE",
"46 276 CURVE SMOOTH",
"46 243 LINE",
"144 294 LINE",
"144 40 LINE",
"80 38 LINE",
"67 37 OFFCURVE",
"60 31 OFFCURVE",
"60 20 CURVE SMOOTH",
"60 0 LINE",
"539 0 LINE",
"539 132 LINE",
"519 132 LINE"
);
}
);
width = 591;
}
);
note = Lslash;
unicode = 0141;
},
{
glyphname = lslash;
lastChange = "2017-11-28 23:36:01 +0000";
layers = (
{
layerId = "3F211455-7DB7-4737-9D97-BF0B219628E9";
paths = (
{
closed = 1;
nodes = (
"173 431 LINE",
"173 728 LINE",
"54 728 LINE",
"54 708 LINE SMOOTH",
"54 697 OFFCURVE",
"61 691 OFFCURVE",
"74 690 CURVE",
"126 688 LINE",
"126 413 LINE",
"38 371 LINE SMOOTH",
"32 368 OFFCURVE",
"28 363 OFFCURVE",
"28 356 CURVE SMOOTH",
"28 330 LINE",
"126 375 LINE",
"126 40 LINE",
"74 38 LINE",
"61 37 OFFCURVE",
"54 31 OFFCURVE",
"54 20 CURVE SMOOTH",
"54 0 LINE",
"246 0 LINE",
"246 20 LINE SMOOTH",
"246 31 OFFCURVE",
"239 37 OFFCURVE",
"226 38 CURVE",
"173 40 LINE",
"173 393 LINE",
"262 435 LINE SMOOTH",
"266 437 OFFCURVE",
"271 439 OFFCURVE",
"271 451 CURVE SMOOTH",
"271 476 LINE"
);
}
);
width = 301;
}
);
note = lslash;
unicode = 0142;
},
{
glyphname = OE;
lastChange = "2017-11-28 23:36:01 +0000";
layers = (
{
layerId = "3F211455-7DB7-4737-9D97-BF0B219628E9";
paths = (
{
closed = 1;
nodes = (
"609 708 LINE",
"609 541 LINE",
"561 648 OFFCURVE",
"465 715 OFFCURVE",
"341 715 CURVE SMOOTH",
"152 715 OFFCURVE",
"38 560 OFFCURVE",
"38 354 CURVE SMOOTH",
"38 152 OFFCURVE",
"147 -6 OFFCURVE",
"341 -6 CURVE SMOOTH",
"464 -6 OFFCURVE",
"559 55 OFFCURVE",
"609 167 CURVE",
"609 0 LINE",
"1028 0 LINE",
"1028 147 LINE",
"1004 147 LINE SMOOTH",
"988 147 OFFCURVE",
"983 137 OFFCURVE",
"982 122 CURVE",
"978 43 LINE",
"655 43 LINE",
"655 338 LINE",
"937 338 LINE",
"937 379 LINE",
"655 379 LINE",
"655 666 LINE",
"978 666 LINE",
"982 586 LINE",
"983 571 OFFCURVE",
"988 562 OFFCURVE",
"1004 562 CURVE SMOOTH",
"1028 562 LINE",
"1028 708 LINE"
);
},
{
closed = 1;
nodes = (
"517 37 OFFCURVE",
"347 37 CURVE SMOOTH",
"178 37 OFFCURVE",
"90 178 OFFCURVE",
"90 354 CURVE SMOOTH",
"90 533 OFFCURVE",
"182 672 OFFCURVE",
"347 672 CURVE SMOOTH",
"512 672 OFFCURVE",
"604 536 OFFCURVE",
"604 354 CURVE SMOOTH",
"604 178 OFFCURVE"
);
}
);
width = 1092;
}
);
leftKerningGroup = C;
note = OE;
rightKerningGroup = AE;
unicode = 0152;
},
{
glyphname = oe;
lastChange = "2017-11-28 23:36:01 +0000";
layers = (
{
layerId = "3F211455-7DB7-4737-9D97-BF0B219628E9";
paths = (
{
closed = 1;
nodes = (
"539 506 OFFCURVE",
"470 453 OFFCURVE",
"441 361 CURVE",
"414 448 OFFCURVE",
"348 506 OFFCURVE",
"251 506 CURVE SMOOTH",
"112 506 OFFCURVE",
"39 396 OFFCURVE",
"39 249 CURVE SMOOTH",
"39 105 OFFCURVE",
"111 -6 OFFCURVE",
"250 -6 CURVE SMOOTH",
"346 -6 OFFCURVE",
"414 48 OFFCURVE",
"442 141 CURVE",
"470 49 OFFCURVE",
"534 -6 OFFCURVE",
"629 -6 CURVE SMOOTH",
"686 -6 OFFCURVE",
"762 17 OFFCURVE",
"799 64 CURVE",
"786 80 LINE",
"781 86 OFFCURVE",
"773 88 OFFCURVE",
"761 77 CURVE SMOOTH",
"729 50 OFFCURVE",
"684 32 OFFCURVE",
"633 32 CURVE SMOOTH",
"515 32 OFFCURVE",
"464 132 OFFCURVE",
"464 258 CURVE",
"794 258 LINE SMOOTH",
"803 258 OFFCURVE",
"807 262 OFFCURVE",
"807 278 CURVE SMOOTH",
"807 405 OFFCURVE",
"743 506 OFFCURVE",
"628 506 CURVE SMOOTH"
);
},
{
closed = 1;
nodes = (
"136 31 OFFCURVE",
"88 125 OFFCURVE",
"88 249 CURVE SMOOTH",
"88 377 OFFCURVE",
"139 468 OFFCURVE",
"254 468 CURVE SMOOTH",
"367 468 OFFCURVE",
"418 372 OFFCURVE",
"418 249 CURVE SMOOTH",
"418 129 OFFCURVE",
"370 31 OFFCURVE",
"254 31 CURVE SMOOTH"
);
},
{
closed = 1;
nodes = (
"716 470 OFFCURVE",
"765 393 OFFCURVE",
"765 289 CURVE",
"466 289 LINE",
"473 396 OFFCURVE",
"528 470 OFFCURVE",
"628 470 CURVE SMOOTH"
);
}
);
width = 847;
}
);
leftKerningGroup = c;
note = oe;
rightKerningGroup = e;
unicode = 0153;
},
{
glyphname = florin;
lastChange = "2017-11-28 23:36:01 +0000";
layers = (
{
layerId = "3F211455-7DB7-4737-9D97-BF0B219628E9";
paths = (
{
closed = 1;
nodes = (
"262 398 LINE",
"443 398 LINE",
"443 434 LINE",
"264 434 LINE",
"277 528 LINE SMOOTH",
"288 617 OFFCURVE",
"336 676 OFFCURVE",
"423 676 CURVE SMOOTH",
"435 676 OFFCURVE",
"441 681 OFFCURVE",
"441 691 CURVE SMOOTH",
"441 716 LINE",
"315 716 OFFCURVE",
"246 654 OFFCURVE",
"230 529 CURVE SMOOTH",
"218 434 LINE",
"105 434 LINE",
"105 414 LINE SMOOTH",
"105 406 OFFCURVE",
"109 403 OFFCURVE",
"118 402 CURVE",
"214 397 LINE",
"166 8 LINE SMOOTH",
"156 -82 OFFCURVE",
"104 -140 OFFCURVE",
"22 -140 CURVE SMOOTH",
"10 -140 OFFCURVE",
"4 -145 OFFCURVE",
"4 -156 CURVE SMOOTH",
"4 -180 LINE",
"129 -180 OFFCURVE",
"198 -117 OFFCURVE",
"214 7 CURVE SMOOTH"
);
}
);
width = 478;
}
);
note = florin;
unicode = 0192;
},
{
glyphname = circumflex;
lastChange = "2017-11-28 23:36:01 +0000";
layers = (
{
layerId = "3F211455-7DB7-4737-9D97-BF0B219628E9";
paths = (
{
closed = 1;
nodes = (
"316 584 LINE",
"208 708 LINE",
"166 708 LINE",
"56 584 LINE",
"90 584 LINE SMOOTH",
"90 584 OFFCURVE",
"99 585 OFFCURVE",
"104 590 CURVE",
"187 678 LINE",
"270 590 LINE",
"274 586 OFFCURVE",
"279 584 OFFCURVE",
"284 584 CURVE SMOOTH"
);
}
);
width = 374;
}
);
note = circumflex;
unicode = 02C6;
},
{
glyphname = caron;
lastChange = "2017-11-28 23:36:01 +0000";
layers = (
{
layerId = "3F211455-7DB7-4737-9D97-BF0B219628E9";
paths = (
{
closed = 1;
nodes = (
"60 708 LINE",
"169 584 LINE",
"212 584 LINE",
"320 708 LINE",
"288 708 LINE SMOOTH",
"288 708 OFFCURVE",
"279 707 OFFCURVE",
"274 702 CURVE",
"190 614 LINE",
"107 702 LINE",
"103 706 OFFCURVE",
"99 708 OFFCURVE",
"94 708 CURVE SMOOTH"
);
}
);
width = 376;
}
);
note = caron;
unicode = 02C7;
},
{
glyphname = uni02C9;
lastChange = "2017-11-28 23:36:01 +0000";
layers = (
{
layerId = "3F211455-7DB7-4737-9D97-BF0B219628E9";
paths = (
{
closed = 1;
nodes = (
"66 658 LINE",
"66 626 LINE",
"339 626 LINE",
"339 658 LINE"
);
}
);
width = 405;
}
);
note = uni02C9;
unicode = 02C9;
},
{
glyphname = breve;
lastChange = "2017-11-28 23:36:01 +0000";
layers = (
{
layerId = "3F211455-7DB7-4737-9D97-BF0B219628E9";
paths = (
{
closed = 1;
nodes = (
"262 584 OFFCURVE",
"307 626 OFFCURVE",
"307 708 CURVE",
"273 708 LINE",
"273 655 OFFCURVE",
"245 616 OFFCURVE",
"187 616 CURVE SMOOTH",
"134 616 OFFCURVE",
"102 646 OFFCURVE",
"102 708 CURVE",
"68 708 LINE",
"68 628 OFFCURVE",
"109 584 OFFCURVE",
"187 584 CURVE SMOOTH"
);
}
);
width = 372;
}
);
note = breve;
unicode = 02D8;
},
{
glyphname = dotaccent;
lastChange = "2017-11-28 23:36:01 +0000";
layers = (
{
layerId = "3F211455-7DB7-4737-9D97-BF0B219628E9";
paths = (
{
closed = 1;
nodes = (
"138 631 OFFCURVE",
"158 651 OFFCURVE",
"158 676 CURVE SMOOTH",
"158 700 OFFCURVE",
"138 720 OFFCURVE",
"114 720 CURVE SMOOTH",
"89 720 OFFCURVE",
"69 700 OFFCURVE",
"69 676 CURVE SMOOTH",
"69 651 OFFCURVE",
"89 631 OFFCURVE",
"114 631 CURVE SMOOTH"
);
}
);
width = 224;
}
);
note = dotaccent;
unicode = 02D9;
},
{
glyphname = ring;
lastChange = "2017-11-28 23:36:01 +0000";
layers = (
{
layerId = "3F211455-7DB7-4737-9D97-BF0B219628E9";
paths = (
{
closed = 1;
nodes = (
"66 601 OFFCURVE",
"105 570 OFFCURVE",
"152 570 CURVE SMOOTH",
"196 570 OFFCURVE",
"238 601 OFFCURVE",
"238 651 CURVE SMOOTH",
"238 698 OFFCURVE",
"199 733 OFFCURVE",
"151 733 CURVE SMOOTH",
"106 733 OFFCURVE",
"66 702 OFFCURVE",
"66 651 CURVE SMOOTH"
);
},
{
closed = 1;
nodes = (
"94 685 OFFCURVE",
"118 708 OFFCURVE",
"152 708 CURVE SMOOTH",
"186 708 OFFCURVE",
"209 685 OFFCURVE",
"209 651 CURVE SMOOTH",
"209 617 OFFCURVE",
"186 594 OFFCURVE",
"152 594 CURVE SMOOTH",
"118 594 OFFCURVE",
"94 617 OFFCURVE",
"94 651 CURVE SMOOTH"
);
}
);
width = 302;
}
);
note = ring;
unicode = 02DA;
},
{
glyphname = ogonek;
lastChange = "2017-11-28 23:36:01 +0000";
layers = (
{
layerId = "3F211455-7DB7-4737-9D97-BF0B219628E9";
paths = (
{
closed = 1;
nodes = (
"210 -121 OFFCURVE",
"206 -124 CURVE",
"199 -131 OFFCURVE",
"178 -138 OFFCURVE",
"156 -138 CURVE SMOOTH",
"127 -138 OFFCURVE",
"100 -123 OFFCURVE",
"100 -88 CURVE SMOOTH",
"100 -54 OFFCURVE",
"126 -23 OFFCURVE",
"166 0 CURVE",
"142 6 LINE",
"97 -21 OFFCURVE",
"62 -58 OFFCURVE",
"62 -98 CURVE SMOOTH",
"62 -145 OFFCURVE",
"101 -169 OFFCURVE",
"148 -169 CURVE SMOOTH",
"173 -169 OFFCURVE",
"205 -162 OFFCURVE",
"227 -142 CURVE",
"219 -126 LINE",
"217 -122 OFFCURVE"
);
}
);
width = 288;
}
);
note = ogonek;
unicode = 02DB;
},
{
glyphname = tilde;
lastChange = "2017-11-28 23:36:01 +0000";
layers = (
{
layerId = "3F211455-7DB7-4737-9D97-BF0B219628E9";
paths = (
{
closed = 1;
nodes = (
"231 640 OFFCURVE",
"225 649 OFFCURVE",
"199 666 CURVE SMOOTH",
"178 680 OFFCURVE",
"164 692 OFFCURVE",
"140 692 CURVE SMOOTH",
"92 692 OFFCURVE",
"66 653 OFFCURVE",
"66 607 CURVE",
"97 607 LINE",
"99 633 OFFCURVE",
"109 658 OFFCURVE",
"141 658 CURVE SMOOTH",
"161 658 OFFCURVE",
"167 649 OFFCURVE",
"193 632 CURVE SMOOTH",
"214 618 OFFCURVE",
"228 606 OFFCURVE",
"252 606 CURVE SMOOTH",
"300 606 OFFCURVE",
"324 641 OFFCURVE",
"324 691 CURVE",
"295 691 LINE",
"295 666 OFFCURVE",
"282 640 OFFCURVE",
"251 640 CURVE SMOOTH"
);
}
);
width = 390;
}
);
note = tilde;
unicode = 02DC;
},
{
glyphname = hungarumlaut;
lastChange = "2017-11-28 23:36:01 +0000";
layers = (
{
layerId = "3F211455-7DB7-4737-9D97-BF0B219628E9";
paths = (
{
closed = 1;
nodes = (
"196 716 LINE",
"164 716 LINE SMOOTH",
"154 716 OFFCURVE",
"143 714 OFFCURVE",
"134 700 CURVE SMOOTH",
"58 580 LINE",
"79 580 LINE SMOOTH",
"87 580 OFFCURVE",
"92 583 OFFCURVE",
"98 589 CURVE"
);
},
{
closed = 1;
nodes = (
"332 716 LINE",
"296 716 LINE SMOOTH",
"286 716 OFFCURVE",
"275 714 OFFCURVE",
"266 700 CURVE",
"175 580 LINE",
"198 580 LINE SMOOTH",
"208 580 OFFCURVE",
"211 583 OFFCURVE",
"217 589 CURVE"
);
}
);
width = 388;
}
);
note = hungarumlaut;
unicode = 02DD;
},
{
glyphname = pi;
lastChange = "2017-11-28 23:36:01 +0000";
layers = (
{
layerId = "3F211455-7DB7-4737-9D97-BF0B219628E9";
paths = (
{
closed = 1;
nodes = (
"608 498 LINE",
"94 498 LINE SMOOTH",
"84 498 OFFCURVE",
"74 489 OFFCURVE",
"74 478 CURVE SMOOTH",
"74 462 LINE",
"175 462 LINE",
"175 108 LINE SMOOTH",
"175 56 OFFCURVE",
"152 30 OFFCURVE",
"104 30 CURVE SMOOTH",
"96 30 OFFCURVE",
"90 31 OFFCURVE",
"85 32 CURVE SMOOTH",
"74 34 OFFCURVE",
"67 33 OFFCURVE",
"64 26 CURVE",
"62 6 LINE",
"76 -3 OFFCURVE",
"96 -5 OFFCURVE",
"116 -5 CURVE SMOOTH",
"184 -5 OFFCURVE",
"222 33 OFFCURVE",
"222 108 CURVE SMOOTH",
"222 462 LINE",
"456 462 LINE",
"456 0 LINE",
"504 0 LINE",
"504 462 LINE",
"590 462 LINE SMOOTH",
"602 462 OFFCURVE",
"608 468 OFFCURVE",
"608 480 CURVE SMOOTH"
);
}
);
width = 667;
}
);
note = pi;
unicode = 03C0;
},
{
glyphname = endash;
lastChange = "2017-11-28 23:36:01 +0000";
layers = (
{
layerId = "3F211455-7DB7-4737-9D97-BF0B219628E9";
paths = (
{
closed = 1;
nodes = (
"68 307 LINE",
"68 272 LINE",
"462 272 LINE",
"462 307 LINE"
);
}
);
width = 528;
}
);
leftKerningGroup = emdash;
note = endash;
rightKerningGroup = emdash;
unicode = 2013;
},
{
glyphname = emdash;
lastChange = "2017-11-28 23:36:01 +0000";
layers = (
{
layerId = "3F211455-7DB7-4737-9D97-BF0B219628E9";
paths = (
{
closed = 1;
nodes = (
"68 307 LINE",
"68 272 LINE",
"717 272 LINE",
"717 307 LINE"
);
}
);
width = 783;
}
);
leftKerningGroup = emdash;
note = emdash;
rightKerningGroup = emdash;
unicode = 2014;
},
{
glyphname = quoteleft;
lastChange = "2017-11-28 23:36:01 +0000";
layers = (
{
layerId = "3F211455-7DB7-4737-9D97-BF0B219628E9";
paths = (
{
closed = 1;
nodes = (
"115 542 LINE",
"123 545 OFFCURVE",
"123 555 OFFCURVE",
"120 560 CURVE",
"108 580 OFFCURVE",
"102 600 OFFCURVE",
"102 620 CURVE SMOOTH",
"102 653 OFFCURVE",
"122 690 OFFCURVE",
"146 722 CURVE",
"148 725 OFFCURVE",
"152 731 OFFCURVE",
"146 735 CURVE SMOOTH",
"132 744 LINE",
"89 701 OFFCURVE",
"64 660 OFFCURVE",
"64 604 CURVE SMOOTH",
"64 575 OFFCURVE",
"70 554 OFFCURVE",
"84 528 CURVE"
);
}
);
width = 205;
}
);
leftKerningGroup = ordfeminine;
note = quoteleft;
rightKerningGroup = ordfeminine;
unicode = 2018;
},
{
glyphname = quoteright;
lastChange = "2017-11-28 23:36:01 +0000";
layers = (
{
layerId = "3F211455-7DB7-4737-9D97-BF0B219628E9";
paths = (
{
closed = 1;
nodes = (
"92 726 LINE SMOOTH",
"83 722 OFFCURVE",
"82 714 OFFCURVE",
"86 708 CURVE",
"98 688 OFFCURVE",
"104 667 OFFCURVE",
"104 648 CURVE SMOOTH",
"104 612 OFFCURVE",
"86 579 OFFCURVE",
"60 545 CURVE",
"56 541 OFFCURVE",
"56 535 OFFCURVE",
"60 531 CURVE",
"74 522 LINE",
"113 561 OFFCURVE",
"143 607 OFFCURVE",
"143 663 CURVE SMOOTH",
"143 690 OFFCURVE",
"136 712 OFFCURVE",
"122 738 CURVE"
);
}
);
width = 207;
}
);
leftKerningGroup = ordfeminine;
note = quoteright;
rightKerningGroup = ordfeminine;
unicode = 2019;
},
{
glyphname = quotesinglbase;
lastChange = "2017-11-28 23:36:01 +0000";
layers = (
{
layerId = "3F211455-7DB7-4737-9D97-BF0B219628E9";
paths = (
{
closed = 1;
nodes = (
"98 75 LINE SMOOTH",
"89 71 OFFCURVE",
"88 63 OFFCURVE",
"92 57 CURVE",
"104 37 OFFCURVE",
"110 17 OFFCURVE",
"110 -2 CURVE SMOOTH",
"110 -40 OFFCURVE",
"92 -71 OFFCURVE",
"66 -105 CURVE",
"62 -109 OFFCURVE",
"62 -115 OFFCURVE",
"66 -119 CURVE",
"80 -128 LINE",
"119 -89 OFFCURVE",
"149 -43 OFFCURVE",
"149 12 CURVE SMOOTH",
"149 39 OFFCURVE",
"142 63 OFFCURVE",
"128 88 CURVE"
);
}
);
width = 217;
}
);
leftKerningGroup = comma;
note = quotesinglbase;
rightKerningGroup = comma;
unicode = 201A;
},
{
glyphname = quotedblleft;
lastChange = "2017-11-28 23:36:01 +0000";
layers = (
{
layerId = "3F211455-7DB7-4737-9D97-BF0B219628E9";
paths = (
{
closed = 1;
nodes = (
"115 542 LINE",
"123 545 OFFCURVE",
"123 555 OFFCURVE",
"120 560 CURVE",
"108 580 OFFCURVE",
"102 600 OFFCURVE",
"102 620 CURVE SMOOTH",
"102 653 OFFCURVE",
"122 690 OFFCURVE",
"146 722 CURVE",
"148 724 OFFCURVE",
"152 731 OFFCURVE",
"146 735 CURVE SMOOTH",
"132 744 LINE",
"89 701 OFFCURVE",
"64 660 OFFCURVE",
"64 604 CURVE SMOOTH",
"64 575 OFFCURVE",
"70 554 OFFCURVE",
"84 528 CURVE"
);
},
{
closed = 1;
nodes = (
"250 541 LINE SMOOTH",
"258 544 OFFCURVE",
"259 552 OFFCURVE",
"254 559 CURVE",
"242 579 OFFCURVE",
"237 599 OFFCURVE",
"237 619 CURVE SMOOTH",
"237 637 OFFCURVE",
"242 654 OFFCURVE",
"250 671 CURVE SMOOTH",
"258 688 OFFCURVE",
"268 705 OFFCURVE",
"281 722 CURVE",
"286 727 OFFCURVE",
"284 732 OFFCURVE",
"280 735 CURVE SMOOTH",
"266 744 LINE",
"228 706 OFFCURVE",
"198 659 OFFCURVE",
"198 604 CURVE SMOOTH",
"198 580 OFFCURVE",
"206 550 OFFCURVE",
"218 528 CURVE"
);
}
);
width = 340;
}
);
leftKerningGroup = ordfeminine;
note = quotedblleft;
rightKerningGroup = ordfeminine;
unicode = 201C;
},
{
glyphname = quotedblright;
lastChange = "2017-11-28 23:36:01 +0000";
layers = (
{
layerId = "3F211455-7DB7-4737-9D97-BF0B219628E9";
paths = (
{
closed = 1;
nodes = (
"92 726 LINE SMOOTH",
"83 722 OFFCURVE",
"82 714 OFFCURVE",
"86 708 CURVE",
"98 688 OFFCURVE",
"104 667 OFFCURVE",
"104 648 CURVE SMOOTH",
"104 612 OFFCURVE",
"86 579 OFFCURVE",
"60 545 CURVE",
"56 541 OFFCURVE",
"56 535 OFFCURVE",
"60 531 CURVE",
"74 522 LINE",
"113 561 OFFCURVE",
"143 607 OFFCURVE",
"143 663 CURVE SMOOTH",
"143 690 OFFCURVE",
"136 712 OFFCURVE",
"122 738 CURVE"
);
},
{
closed = 1;
nodes = (
"226 725 LINE SMOOTH",
"221 723 OFFCURVE",
"214 717 OFFCURVE",
"221 707 CURVE",
"233 687 OFFCURVE",
"238 667 OFFCURVE",
"238 648 CURVE SMOOTH",
"238 612 OFFCURVE",
"220 579 OFFCURVE",
"194 545 CURVE",
"191 542 OFFCURVE",
"191 535 OFFCURVE",
"195 531 CURVE",
"209 522 LINE",
"246 559 OFFCURVE",
"278 610 OFFCURVE",
"278 663 CURVE SMOOTH",
"278 685 OFFCURVE",
"271 710 OFFCURVE",
"256 738 CURVE"
);
}
);
width = 341;
}
);
leftKerningGroup = ordfeminine;
note = quotedblright;
rightKerningGroup = ordfeminine;
unicode = 201D;
},
{
glyphname = quotedblbase;
lastChange = "2017-11-28 23:36:01 +0000";
layers = (
{
layerId = "3F211455-7DB7-4737-9D97-BF0B219628E9";
paths = (
{
closed = 1;
nodes = (
"98 75 LINE SMOOTH",
"89 71 OFFCURVE",
"88 63 OFFCURVE",
"92 57 CURVE",
"104 37 OFFCURVE",
"110 17 OFFCURVE",
"110 -2 CURVE SMOOTH",
"110 -40 OFFCURVE",
"92 -71 OFFCURVE",
"66 -105 CURVE",
"62 -109 OFFCURVE",
"62 -115 OFFCURVE",
"66 -119 CURVE",
"80 -128 LINE",
"119 -89 OFFCURVE",
"149 -43 OFFCURVE",
"149 12 CURVE SMOOTH",
"149 39 OFFCURVE",
"142 63 OFFCURVE",
"128 88 CURVE"
);
},
{
closed = 1;
nodes = (
"232 75 LINE SMOOTH",
"227 73 OFFCURVE",
"220 67 OFFCURVE",
"227 57 CURVE",
"239 37 OFFCURVE",
"244 17 OFFCURVE",
"244 -2 CURVE SMOOTH",
"244 -40 OFFCURVE",
"226 -71 OFFCURVE",
"200 -105 CURVE",
"197 -108 OFFCURVE",
"197 -115 OFFCURVE",
"201 -119 CURVE",
"215 -128 LINE",
"251 -92 OFFCURVE",
"284 -40 OFFCURVE",
"284 12 CURVE SMOOTH",
"284 36 OFFCURVE",
"275 65 OFFCURVE",
"262 88 CURVE"
);
}
);
width = 352;
}
);
leftKerningGroup = comma;
note = quotedblbase;
rightKerningGroup = comma;
unicode = 201E;
},
{
glyphname = dagger;
lastChange = "2017-11-28 23:36:01 +0000";
layers = (
{
layerId = "3F211455-7DB7-4737-9D97-BF0B219628E9";
paths = (
{
closed = 1;
nodes = (
"30 446 LINE",
"220 446 LINE",
"220 198 LINE",
"214 -174 LINE",
"232 -183 OFFCURVE",
"246 -183 OFFCURVE",
"264 -174 CURVE",
"258 198 LINE",
"258 446 LINE",
"448 446 LINE",
"448 462 LINE SMOOTH",
"448 473 OFFCURVE",
"443 484 OFFCURVE",
"424 484 CURVE",
"421 484 OFFCURVE",
"259 474 OFFCURVE",
"258 474 CURVE",
"264 716 LINE",
"248 724 OFFCURVE",
"229 724 OFFCURVE",
"214 716 CURVE",
"220 474 LINE",
"179 475 OFFCURVE",
"101 482 OFFCURVE",
"53 484 CURVE",
"37 484 OFFCURVE",
"30 474 OFFCURVE",
"30 462 CURVE SMOOTH"
);
}
);
width = 476;
}
);
note = dagger;
unicode = 2020;
},
{
glyphname = daggerdbl;
lastChange = "2017-11-28 23:36:01 +0000";
layers = (
{
layerId = "3F211455-7DB7-4737-9D97-BF0B219628E9";
paths = (
{
closed = 1;
nodes = (
"38 95 LINE",
"38 79 LINE SMOOTH",
"38 66 OFFCURVE",
"49 57 OFFCURVE",
"62 57 CURVE",
"88 58 OFFCURVE",
"200 66 OFFCURVE",
"228 67 CURVE",
"222 -174 LINE",
"240 -183 OFFCURVE",
"254 -183 OFFCURVE",
"272 -174 CURVE",
"266 67 LINE",
"293 66 OFFCURVE",
"409 58 OFFCURVE",
"433 57 CURVE",
"446 57 OFFCURVE",
"456 66 OFFCURVE",
"456 79 CURVE SMOOTH",
"456 95 LINE",
"266 95 LINE",
"266 446 LINE",
"456 446 LINE",
"456 462 LINE SMOOTH",
"456 472 OFFCURVE",
"451 484 OFFCURVE",
"433 484 CURVE",
"430 484 OFFCURVE",
"267 474 OFFCURVE",
"266 474 CURVE",
"272 716 LINE",
"256 724 OFFCURVE",
"238 724 OFFCURVE",
"222 716 CURVE",
"228 474 LINE",
"189 475 OFFCURVE",
"107 482 OFFCURVE",
"62 484 CURVE",
"45 484 OFFCURVE",
"38 475 OFFCURVE",
"38 462 CURVE SMOOTH",
"38 446 LINE",
"228 446 LINE",
"228 95 LINE"
);
}
);
width = 492;
}
);
note = daggerdbl;
unicode = 2021;
},
{
glyphname = bullet;
lastChange = "2017-11-28 23:36:01 +0000";
layers = (
{
layerId = "3F211455-7DB7-4737-9D97-BF0B219628E9";
paths = (
{
closed = 1;
nodes = (
"290 152 OFFCURVE",
"356 218 OFFCURVE",
"356 299 CURVE SMOOTH",
"356 379 OFFCURVE",
"290 445 OFFCURVE",
"210 445 CURVE SMOOTH",
"129 445 OFFCURVE",
"63 379 OFFCURVE",
"63 299 CURVE SMOOTH",
"63 218 OFFCURVE",
"129 152 OFFCURVE",
"210 152 CURVE SMOOTH"
);
}
);
width = 419;
}
);
note = bullet;
unicode = 2022;
},
{
glyphname = ellipsis;
lastChange = "2017-11-28 23:36:01 +0000";
layers = (
{
layerId = "3F211455-7DB7-4737-9D97-BF0B219628E9";
paths = (
{
closed = 1;
nodes = (
"386 -8 OFFCURVE",
"407 13 OFFCURVE",
"407 39 CURVE SMOOTH",
"407 64 OFFCURVE",
"386 85 OFFCURVE",
"361 85 CURVE SMOOTH",
"336 85 OFFCURVE",
"315 64 OFFCURVE",
"315 39 CURVE SMOOTH",
"315 13 OFFCURVE",
"336 -8 OFFCURVE",
"361 -8 CURVE SMOOTH"
);
},
{
closed = 1;
nodes = (
"631 -8 OFFCURVE",
"652 13 OFFCURVE",
"652 39 CURVE SMOOTH",
"652 64 OFFCURVE",
"631 85 OFFCURVE",
"606 85 CURVE SMOOTH",
"581 85 OFFCURVE",
"560 64 OFFCURVE",
"560 39 CURVE SMOOTH",
"560 13 OFFCURVE",
"581 -8 OFFCURVE",
"606 -8 CURVE SMOOTH"
);
},
{
closed = 1;
nodes = (
"141 -8 OFFCURVE",
"162 13 OFFCURVE",
"162 39 CURVE SMOOTH",
"162 64 OFFCURVE",
"141 85 OFFCURVE",
"116 85 CURVE SMOOTH",
"91 85 OFFCURVE",
"70 64 OFFCURVE",
"70 39 CURVE SMOOTH",
"70 13 OFFCURVE",
"91 -8 OFFCURVE",
"116 -8 CURVE SMOOTH"
);
}
);
width = 721;
}
);
leftKerningGroup = comma;
note = ellipsis;
rightKerningGroup = comma;
unicode = 2026;
},
{
glyphname = perthousand;
lastChange = "2017-11-28 23:36:01 +0000";
layers = (
{
layerId = "3F211455-7DB7-4737-9D97-BF0B219628E9";
paths = (
{
closed = 1;
nodes = (
"342 640 OFFCURVE",
"288 716 OFFCURVE",
"194 716 CURVE SMOOTH",
"101 716 OFFCURVE",
"45 644 OFFCURVE",
"45 538 CURVE SMOOTH",
"45 509 OFFCURVE",
"48 483 OFFCURVE",
"56 461 CURVE SMOOTH",
"78 400 OFFCURVE",
"124 361 OFFCURVE",
"194 361 CURVE SMOOTH",
"285 361 OFFCURVE",
"342 435 OFFCURVE",
"342 538 CURVE SMOOTH"
);
},
{
closed = 1;
nodes = (
"304 452 OFFCURVE",
"269 393 OFFCURVE",
"194 393 CURVE SMOOTH",
"142 393 OFFCURVE",
"109 422 OFFCURVE",
"92 472 CURVE SMOOTH",
"86 490 OFFCURVE",
"84 512 OFFCURVE",
"84 538 CURVE SMOOTH",
"84 625 OFFCURVE",
"120 683 OFFCURVE",
"194 683 CURVE SMOOTH",
"268 683 OFFCURVE",
"304 625 OFFCURVE",
"304 538 CURVE SMOOTH"
);
},
{
closed = 1;
nodes = (
"104 0 LINE",
"138 0 LINE SMOOTH",
"145 0 OFFCURVE",
"151 3 OFFCURVE",
"155 9 CURVE",
"663 708 LINE",
"630 708 LINE",
"621 708 OFFCURVE",
"618 708 OFFCURVE",
"611 698 CURVE"
);
},
{
closed = 1;
nodes = (
"724 271 OFFCURVE",
"670 347 OFFCURVE",
"576 347 CURVE SMOOTH",
"483 347 OFFCURVE",
"427 275 OFFCURVE",
"427 169 CURVE SMOOTH",
"427 140 OFFCURVE",
"430 114 OFFCURVE",
"438 92 CURVE SMOOTH",
"460 31 OFFCURVE",
"506 -8 OFFCURVE",
"576 -8 CURVE SMOOTH",
"667 -8 OFFCURVE",
"724 66 OFFCURVE",
"724 169 CURVE SMOOTH"
);
},
{
closed = 1;
nodes = (
"686 83 OFFCURVE",
"651 24 OFFCURVE",
"576 24 CURVE SMOOTH",
"524 24 OFFCURVE",
"491 53 OFFCURVE",
"474 103 CURVE SMOOTH",
"468 121 OFFCURVE",
"466 143 OFFCURVE",
"466 169 CURVE SMOOTH",
"466 256 OFFCURVE",
"502 314 OFFCURVE",
"576 314 CURVE SMOOTH",
"650 314 OFFCURVE",
"686 256 OFFCURVE",
"686 169 CURVE SMOOTH"
);
},
{
closed = 1;
nodes = (
"1086 270 OFFCURVE",
"1032 346 OFFCURVE",
"938 346 CURVE SMOOTH",
"845 346 OFFCURVE",
"789 274 OFFCURVE",
"789 168 CURVE SMOOTH",
"789 139 OFFCURVE",
"792 113 OFFCURVE",
"800 91 CURVE SMOOTH",
"822 30 OFFCURVE",
"868 -9 OFFCURVE",
"938 -9 CURVE SMOOTH",
"1029 -9 OFFCURVE",
"1086 65 OFFCURVE",
"1086 168 CURVE SMOOTH"
);
},
{
closed = 1;
nodes = (
"1048 82 OFFCURVE",
"1013 23 OFFCURVE",
"938 23 CURVE SMOOTH",
"886 23 OFFCURVE",
"853 52 OFFCURVE",
"836 102 CURVE SMOOTH",
"830 120 OFFCURVE",
"828 142 OFFCURVE",
"828 168 CURVE SMOOTH",
"828 255 OFFCURVE",
"864 313 OFFCURVE",
"938 313 CURVE SMOOTH",
"1012 313 OFFCURVE",
"1048 255 OFFCURVE",
"1048 168 CURVE SMOOTH"
);
}
);
width = 1127;
}
);
note = perthousand;
unicode = 2030;
},
{
glyphname = guilsinglleft;
lastChange = "2017-11-28 23:36:01 +0000";
layers = (
{
layerId = "3F211455-7DB7-4737-9D97-BF0B219628E9";
paths = (
{
closed = 1;
nodes = (
"50 256 LINE",
"171 67 LINE",
"186 74 LINE",
"197 81 OFFCURVE",
"194 89 OFFCURVE",
"190 98 CURVE",
"99 246 LINE SMOOTH",
"95 253 OFFCURVE",
"91 257 OFFCURVE",
"88 260 CURVE",
"91 263 OFFCURVE",
"95 267 OFFCURVE",
"99 274 CURVE",
"190 420 LINE",
"193 427 OFFCURVE",
"199 436 OFFCURVE",
"186 444 CURVE",
"171 452 LINE",
"50 263 LINE"
);
}
);
width = 251;
}
);
note = guilsinglleft;
unicode = 2039;
},
{
glyphname = guilsinglright;
lastChange = "2017-11-28 23:36:01 +0000";
layers = (
{
layerId = "3F211455-7DB7-4737-9D97-BF0B219628E9";
paths = (
{
closed = 1;
nodes = (
"84 67 LINE",
"204 256 LINE",
"204 263 LINE",
"84 452 LINE",
"68 444 LINE SMOOTH",
"58 439 OFFCURVE",
"59 430 OFFCURVE",
"64 420 CURVE",
"155 274 LINE",
"158 269 OFFCURVE",
"161 264 OFFCURVE",
"166 260 CURVE",
"161 256 OFFCURVE",
"157 250 OFFCURVE",
"155 246 CURVE",
"64 99 LINE",
"61 92 OFFCURVE",
"55 81 OFFCURVE",
"68 75 CURVE SMOOTH"
);
}
);
width = 253;
}
);
note = guilsinglright;
unicode = 203A;
},
{
glyphname = fraction;
lastChange = "2017-11-28 23:36:01 +0000";
layers = (
{
layerId = "3F211455-7DB7-4737-9D97-BF0B219628E9";
paths = (
{
closed = 1;
nodes = (
"486 708 LINE",
"464 708 LINE SMOOTH",
"452 708 OFFCURVE",
"442 701 OFFCURVE",
"437 690 CURVE",
"37 0 LINE",
"57 0 LINE SMOOTH",
"71 0 OFFCURVE",
"76 4 OFFCURVE",
"84 16 CURVE"
);
}
);
width = 515;
}
);
note = fraction;
unicode = 2044;
},
{
glyphname = Euro;
lastChange = "2017-11-28 23:36:01 +0000";
layers = (
{
layerId = "3F211455-7DB7-4737-9D97-BF0B219628E9";
paths = (
{
closed = 1;
nodes = (
"40 432 LINE",
"40 402 LINE",
"118 402 LINE",
"115 367 OFFCURVE",
"118 325 OFFCURVE",
"118 314 CURVE",
"40 314 LINE",
"40 284 LINE",
"120 284 LINE",
"140 111 OFFCURVE",
"224 -8 OFFCURVE",
"386 -8 CURVE SMOOTH",
"471 -8 OFFCURVE",
"538 27 OFFCURVE",
"592 94 CURVE",
"573 112 LINE SMOOTH",
"566 119 OFFCURVE",
"559 116 OFFCURVE",
"553 110 CURVE SMOOTH",
"499 56 OFFCURVE",
"459 34 OFFCURVE",
"388 34 CURVE SMOOTH",
"254 34 OFFCURVE",
"185 137 OFFCURVE",
"170 285 CURVE",
"410 285 LINE SMOOTH",
"420 285 OFFCURVE",
"426 290 OFFCURVE",
"426 299 CURVE SMOOTH",
"426 314 LINE",
"167 314 LINE",
"167 399 OFFCURVE",
"165 364 OFFCURVE",
"168 403 CURVE",
"456 403 LINE SMOOTH",
"467 403 OFFCURVE",
"472 409 OFFCURVE",
"472 417 CURVE SMOOTH",
"472 432 LINE",
"170 432 LINE",
"187 573 OFFCURVE",
"260 673 OFFCURVE",
"392 673 CURVE SMOOTH",
"451 673 OFFCURVE",
"504 651 OFFCURVE",
"546 609 CURVE SMOOTH",
"553 602 OFFCURVE",
"561 605 OFFCURVE",
"566 610 CURVE",
"581 627 LINE",
"530 686 OFFCURVE",
"475 714 OFFCURVE",
"389 714 CURVE SMOOTH",
"232 714 OFFCURVE",
"140 592 OFFCURVE",
"121 432 CURVE"
);
}
);
width = 626;
}
);
note = Euro;
unicode = 20AC;
},
{
glyphname = trademark;
lastChange = "2017-11-28 23:36:01 +0000";
layers = (
{
layerId = "3F211455-7DB7-4737-9D97-BF0B219628E9";
paths = (
{
closed = 1;
nodes = (
"493 520 LINE",
"384 702 LINE",
"382 704 OFFCURVE",
"378 708 OFFCURVE",
"372 708 CURVE SMOOTH",
"343 708 LINE",
"343 420 LINE",
"374 420 LINE",
"374 642 LINE",
"372 662 LINE",
"484 474 LINE SMOOTH",
"487 469 OFFCURVE",
"490 466 OFFCURVE",
"496 466 CURVE SMOOTH",
"502 466 LINE SMOOTH",
"508 466 OFFCURVE",
"511 469 OFFCURVE",
"514 474 CURVE SMOOTH",
"624 664 LINE",
"621 642 LINE",
"621 420 LINE",
"652 420 LINE",
"652 708 LINE",
"624 708 LINE SMOOTH",
"622 708 OFFCURVE",
"616 708 OFFCURVE",
"612 702 CURVE",
"505 520 LINE",
"499 505 LINE"
);
},
{
closed = 1;
nodes = (
"280 707 LINE",
"45 707 LINE",
"45 678 LINE",
"146 678 LINE",
"146 420 LINE",
"181 420 LINE",
"181 678 LINE",
"280 678 LINE"
);
}
);
width = 724;
}
);
note = trademark;
unicode = 2122;
},
{
glyphname = Omega;
lastChange = "2017-11-28 23:36:01 +0000";
layers = (
{
layerId = "3F211455-7DB7-4737-9D97-BF0B219628E9";
paths = (
{
closed = 1;
nodes = (
"436 0 LINE",
"687 0 LINE SMOOTH",
"698 0 OFFCURVE",
"705 7 OFFCURVE",
"705 18 CURVE SMOOTH",
"705 44 LINE",
"477 44 LINE",
"477 155 LINE",
"610 183 OFFCURVE",
"703 284 OFFCURVE",
"703 425 CURVE SMOOTH",
"703 605 OFFCURVE",
"561 716 OFFCURVE",
"380 716 CURVE SMOOTH",
"199 716 OFFCURVE",
"57 605 OFFCURVE",
"57 424 CURVE SMOOTH",
"57 286 OFFCURVE",
"147 184 OFFCURVE",
"283 155 CURVE",
"283 44 LINE",
"54 44 LINE",
"54 18 LINE SMOOTH",
"54 11 OFFCURVE",
"60 0 OFFCURVE",
"73 0 CURVE SMOOTH",
"324 0 LINE",
"324 182 LINE",
"192 211 OFFCURVE",
"109 285 OFFCURVE",
"109 422 CURVE SMOOTH",
"109 581 OFFCURVE",
"222 674 OFFCURVE",
"380 674 CURVE SMOOTH",
"536 674 OFFCURVE",
"651 584 OFFCURVE",
"651 422 CURVE SMOOTH",
"651 292 OFFCURVE",
"576 213 OFFCURVE",
"436 182 CURVE"
);
}
);
width = 760;
}
);
note = Omega;
unicode = 2126;
},
{
glyphname = partialdiff;
lastChange = "2017-11-28 23:36:01 +0000";
layers = (
{
layerId = "3F211455-7DB7-4737-9D97-BF0B219628E9";
paths = (
{
closed = 1;
nodes = (
"194 653 LINE",
"199 646 OFFCURVE",
"207 642 OFFCURVE",
"219 650 CURVE SMOOTH",
"238 663 OFFCURVE",
"287 678 OFFCURVE",
"318 678 CURVE SMOOTH",
"423 678 OFFCURVE",
"464 580 OFFCURVE",
"464 452 CURVE SMOOTH",
"464 432 LINE",
"464 415 OFFCURVE",
"462 366 OFFCURVE",
"460 350 CURVE",
"435 423 OFFCURVE",
"373 466 OFFCURVE",
"296 466 CURVE SMOOTH",
"147 466 OFFCURVE",
"44 342 OFFCURVE",
"44 190 CURVE SMOOTH",
"44 77 OFFCURVE",
"114 -6 OFFCURVE",
"226 -6 CURVE SMOOTH",
"422 -6 OFFCURVE",
"508 205 OFFCURVE",
"508 451 CURVE SMOOTH",
"508 600 OFFCURVE",
"453 717 OFFCURVE",
"324 717 CURVE SMOOTH",
"270 717 OFFCURVE",
"230 702 OFFCURVE",
"184 670 CURVE"
);
},
{
closed = 1;
nodes = (
"146 32 OFFCURVE",
"94 96 OFFCURVE",
"94 191 CURVE SMOOTH",
"94 324 OFFCURVE",
"174 428 OFFCURVE",
"302 428 CURVE SMOOTH",
"381 428 OFFCURVE",
"434 371 OFFCURVE",
"448 290 CURVE",
"425 153 OFFCURVE",
"356 32 OFFCURVE",
"232 32 CURVE SMOOTH"
);
}
);
width = 568;
}
);
note = partialdiff;
unicode = 2202;
},
{
glyphname = Delta;
lastChange = "2017-11-28 23:36:01 +0000";
layers = (
{
layerId = "3F211455-7DB7-4737-9D97-BF0B219628E9";
paths = (
{
closed = 1;
nodes = (
"324 708 LINE",
"30 0 LINE",
"664 0 LINE",
"370 708 LINE"
);
},
{
closed = 1;
nodes = (
"99 42 LINE",
"334 614 LINE",
"347 652 LINE",
"360 614 LINE",
"595 42 LINE"
);
}
);
width = 706;
}
);
leftKerningGroup = D;
note = Delta;
rightKerningGroup = D;
rightMetricsKey = D;
unicode = 2206;
},
{
glyphname = product;
lastChange = "2017-11-28 23:36:01 +0000";
layers = (
{
layerId = "3F211455-7DB7-4737-9D97-BF0B219628E9";
paths = (
{
closed = 1;
nodes = (
"638 708 LINE",
"34 708 LINE",
"34 666 LINE",
"138 666 LINE",
"138 -176 LINE",
"188 -176 LINE",
"188 666 LINE",
"484 666 LINE",
"484 -176 LINE",
"533 -176 LINE",
"533 666 LINE",
"638 666 LINE"
);
}
);
width = 667;
}
);
note = product;
unicode = 220F;
},
{
glyphname = summation;
lastChange = "2017-11-28 23:36:01 +0000";
layers = (
{
layerId = "3F211455-7DB7-4737-9D97-BF0B219628E9";
paths = (
{
closed = 1;
nodes = (
"38 708 LINE",
"38 690 LINE SMOOTH",
"38 684 OFFCURVE",
"40 678 OFFCURVE",
"44 674 CURVE",
"380 266 LINE",
"44 -142 LINE SMOOTH",
"40 -147 OFFCURVE",
"38 -152 OFFCURVE",
"38 -158 CURVE SMOOTH",
"38 -176 LINE",
"632 -176 LINE",
"632 -135 LINE",
"112 -135 LINE",
"435 259 LINE",
"435 272 LINE",
"112 666 LINE",
"632 666 LINE",
"632 707 LINE"
);
}
);
width = 669;
}
);
note = summation;
unicode = 2211;
},
{
glyphname = minus;
lastChange = "2017-11-28 23:36:01 +0000";
layers = (
{
layerId = "3F211455-7DB7-4737-9D97-BF0B219628E9";
paths = (
{
closed = 1;
nodes = (
"70 354 LINE",
"70 317 LINE",
"485 317 LINE",
"485 354 LINE"
);
}
);
width = 556;
}
);
leftKerningGroup = emdash;
note = minus;
rightKerningGroup = emdash;
unicode = 2212;
},
{
glyphname = radical;
lastChange = "2017-11-28 23:36:01 +0000";
layers = (
{
layerId = "3F211455-7DB7-4737-9D97-BF0B219628E9";
paths = (
{
closed = 1;
nodes = (
"158 345 LINE",
"292 0 LINE",
"332 0 LINE",
"610 860 LINE",
"582 860 LINE SMOOTH",
"574 860 OFFCURVE",
"566 855 OFFCURVE",
"564 848 CURVE",
"320 93 LINE",
"312 55 LINE",
"302 98 LINE",
"199 368 LINE",
"196 377 OFFCURVE",
"190 380 OFFCURVE",
"181 380 CURVE SMOOTH",
"24 380 LINE",
"24 366 LINE SMOOTH",
"24 353 OFFCURVE",
"32 345 OFFCURVE",
"44 345 CURVE SMOOTH"
);
}
);
width = 627;
}
);
note = radical;
unicode = 221A;
},
{
glyphname = infinity;
lastChange = "2017-11-28 23:36:01 +0000";
layers = (
{
layerId = "3F211455-7DB7-4737-9D97-BF0B219628E9";
paths = (
{
closed = 1;
nodes = (
"610 141 OFFCURVE",
"674 207 OFFCURVE",
"674 296 CURVE SMOOTH",
"674 382 OFFCURVE",
"611 450 OFFCURVE",
"530 450 CURVE SMOOTH",
"461 450 OFFCURVE",
"414 398 OFFCURVE",
"368 330 CURVE",
"320 402 OFFCURVE",
"274 450 OFFCURVE",
"208 450 CURVE SMOOTH",
"128 450 OFFCURVE",
"64 385 OFFCURVE",
"64 296 CURVE SMOOTH",
"64 207 OFFCURVE",
"124 141 OFFCURVE",
"208 141 CURVE SMOOTH",
"274 141 OFFCURVE",
"325 192 OFFCURVE",
"368 261 CURVE",
"409 196 OFFCURVE",
"462 141 OFFCURVE",
"530 141 CURVE SMOOTH"
);
},
{
closed = 1;
nodes = (
"148 180 OFFCURVE",
"104 225 OFFCURVE",
"104 295 CURVE SMOOTH",
"104 364 OFFCURVE",
"145 410 OFFCURVE",
"210 410 CURVE SMOOTH",
"268 410 OFFCURVE",
"307 357 OFFCURVE",
"347 295 CURVE",
"303 229 OFFCURVE",
"267 180 OFFCURVE",
"210 180 CURVE SMOOTH"
);
},
{
closed = 1;
nodes = (
"472 180 OFFCURVE",
"436 227 OFFCURVE",
"391 295 CURVE",
"432 357 OFFCURVE",
"468 410 OFFCURVE",
"529 410 CURVE SMOOTH",
"593 410 OFFCURVE",
"634 360 OFFCURVE",
"634 295 CURVE SMOOTH",
"634 229 OFFCURVE",
"591 180 OFFCURVE",
"529 180 CURVE SMOOTH"
);
}
);
width = 736;
}
);
note = infinity;
unicode = 221E;
},
{
glyphname = integral;
lastChange = "2017-11-28 23:36:01 +0000";
layers = (
{
layerId = "3F211455-7DB7-4737-9D97-BF0B219628E9";
paths = (
{
closed = 1;
nodes = (
"212 6 LINE SMOOTH",
"203 -84 OFFCURVE",
"162 -143 OFFCURVE",
"70 -143 CURVE SMOOTH",
"62 -143 OFFCURVE",
"34 -141 OFFCURVE",
"34 -141 CURVE SMOOTH",
"27 -141 OFFCURVE",
"24 -144 OFFCURVE",
"22 -149 CURVE",
"18 -168 LINE",
"31 -176 OFFCURVE",
"59 -180 OFFCURVE",
"80 -180 CURVE SMOOTH",
"184 -180 OFFCURVE",
"244 -108 OFFCURVE",
"258 6 CURVE SMOOTH",
"324 537 LINE SMOOTH",
"336 619 OFFCURVE",
"374 675 OFFCURVE",
"454 675 CURVE SMOOTH",
"478 675 OFFCURVE",
"482 674 OFFCURVE",
"486 674 CURVE SMOOTH",
"490 674 OFFCURVE",
"499 673 OFFCURVE",
"501 682 CURVE",
"504 704 LINE",
"486 712 OFFCURVE",
"464 716 OFFCURVE",
"442 716 CURVE SMOOTH",
"350 716 OFFCURVE",
"288 644 OFFCURVE",
"278 543 CURVE SMOOTH"
);
}
);
width = 532;
}
);
note = integral;
unicode = 222B;
},
{
glyphname = approxequal;
lastChange = "2017-11-28 23:36:01 +0000";
layers = (
{
layerId = "3F211455-7DB7-4737-9D97-BF0B219628E9";
paths = (
{
closed = 1;
nodes = (
"326 405 OFFCURVE",
"296 418 OFFCURVE",
"259 434 CURVE SMOOTH",
"224 449 OFFCURVE",
"192 463 OFFCURVE",
"158 463 CURVE SMOOTH",
"119 463 OFFCURVE",
"84 447 OFFCURVE",
"63 416 CURVE",
"74 388 LINE",
"88 408 OFFCURVE",
"121 426 OFFCURVE",
"155 426 CURVE SMOOTH",
"180 426 OFFCURVE",
"214 412 OFFCURVE",
"251 396 CURVE SMOOTH",
"283 382 OFFCURVE",
"320 368 OFFCURVE",
"352 368 CURVE SMOOTH",
"391 368 OFFCURVE",
"422 382 OFFCURVE",
"444 413 CURVE",
"435 442 LINE",
"418 421 OFFCURVE",
"388 405 OFFCURVE",
"354 405 CURVE SMOOTH"
);
},
{
closed = 1;
nodes = (
"326 247 OFFCURVE",
"296 260 OFFCURVE",
"259 276 CURVE SMOOTH",
"224 291 OFFCURVE",
"192 305 OFFCURVE",
"158 305 CURVE SMOOTH",
"120 305 OFFCURVE",
"83 289 OFFCURVE",
"63 259 CURVE",
"74 231 LINE",
"88 252 OFFCURVE",
"119 268 OFFCURVE",
"155 268 CURVE SMOOTH",
"184 268 OFFCURVE",
"214 255 OFFCURVE",
"251 239 CURVE SMOOTH",
"286 224 OFFCURVE",
"318 210 OFFCURVE",
"352 210 CURVE SMOOTH",
"389 210 OFFCURVE",
"423 226 OFFCURVE",
"444 255 CURVE",
"435 284 LINE",
"418 263 OFFCURVE",
"388 247 OFFCURVE",
"354 247 CURVE SMOOTH"
);
}
);
width = 507;
}
);
note = approxequal;
unicode = 2248;
},
{
glyphname = notequal;
lastChange = "2017-11-28 23:36:01 +0000";
layers = (
{
layerId = "3F211455-7DB7-4737-9D97-BF0B219628E9";
paths = (
{
closed = 1;
nodes = (
"55 434 LINE",
"55 398 LINE",
"277 398 LINE",
"225 278 LINE",
"55 278 LINE",
"55 241 LINE",
"208 241 LINE",
"150 106 LINE",
"186 106 LINE",
"244 241 LINE",
"468 241 LINE",
"468 278 LINE",
"260 278 LINE",
"312 398 LINE",
"468 398 LINE",
"468 434 LINE",
"329 434 LINE",
"387 568 LINE",
"352 568 LINE",
"293 434 LINE"
);
}
);
width = 523;
}
);
note = notequal;
unicode = 2260;
},
{
glyphname = lessequal;
lastChange = "2017-11-28 23:36:01 +0000";
layers = (
{
layerId = "3F211455-7DB7-4737-9D97-BF0B219628E9";
paths = (
{
closed = 1;
nodes = (
"52 364 LINE",
"52 344 LINE",
"427 156 LINE",
"427 188 LINE SMOOTH",
"427 192 OFFCURVE",
"426 195 OFFCURVE",
"424 198 CURVE SMOOTH",
"422 201 OFFCURVE",
"418 203 OFFCURVE",
"412 206 CURVE SMOOTH",
"137 342 LINE SMOOTH",
"132 345 OFFCURVE",
"111 352 OFFCURVE",
"98 354 CURVE",
"111 356 OFFCURVE",
"132 363 OFFCURVE",
"137 366 CURVE SMOOTH",
"412 502 LINE SMOOTH",
"418 505 OFFCURVE",
"422 507 OFFCURVE",
"424 510 CURVE SMOOTH",
"426 513 OFFCURVE",
"427 516 OFFCURVE",
"427 520 CURVE SMOOTH",
"427 552 LINE"
);
},
{
closed = 1;
nodes = (
"52 76 LINE",
"52 40 LINE",
"427 40 LINE",
"427 76 LINE"
);
}
);
width = 486;
}
);
note = lessequal;
unicode = 2264;
},
{
glyphname = greaterequal;
lastChange = "2017-11-28 23:36:01 +0000";
layers = (
{
layerId = "3F211455-7DB7-4737-9D97-BF0B219628E9";
paths = (
{
closed = 1;
nodes = (
"436 364 LINE",
"60 552 LINE",
"60 520 LINE SMOOTH",
"60 511 OFFCURVE",
"67 506 OFFCURVE",
"76 502 CURVE SMOOTH",
"350 366 LINE SMOOTH",
"360 361 OFFCURVE",
"378 357 OFFCURVE",
"388 354 CURVE",
"378 351 OFFCURVE",
"360 347 OFFCURVE",
"350 342 CURVE SMOOTH",
"76 206 LINE SMOOTH",
"66 201 OFFCURVE",
"60 196 OFFCURVE",
"60 188 CURVE SMOOTH",
"60 156 LINE",
"436 344 LINE"
);
},
{
closed = 1;
nodes = (
"436 40 LINE",
"436 76 LINE",
"60 76 LINE",
"60 40 LINE"
);
}
);
width = 487;
}
);
note = greaterequal;
unicode = 2265;
},
{
glyphname = lozenge;
lastChange = "2017-11-28 23:36:01 +0000";
layers = (
{
layerId = "3F211455-7DB7-4737-9D97-BF0B219628E9";
paths = (
{
closed = 1;
nodes = (
"35 339 LINE",
"236 -77 LINE",
"269 -77 LINE",
"470 339 LINE",
"269 755 LINE",
"236 755 LINE"
);
},
{
closed = 1;
nodes = (
"76 339 LINE",
"242 682 LINE",
"246 690 OFFCURVE",
"250 701 OFFCURVE",
"252 710 CURVE",
"253 701 OFFCURVE",
"257 690 OFFCURVE",
"262 682 CURVE",
"430 339 LINE",
"262 -4 LINE",
"258 -11 OFFCURVE",
"253 -28 OFFCURVE",
"252 -32 CURVE",
"251 -28 OFFCURVE",
"246 -11 OFFCURVE",
"242 -4 CURVE"
);
}
);
width = 505;
}
);
note = lozenge;
unicode = 25CA;
},
{
glyphname = uni2669;
lastChange = "2017-11-28 23:36:01 +0000";
layers = (
{
layerId = "3F211455-7DB7-4737-9D97-BF0B219628E9";
paths = (
{
closed = 1;
nodes = (
"85 728 LINE",
"85 -176 LINE",
"87 -176 LINE",
"87 728 LINE"
);
}
);
width = 172;
}
);
note = uni2669;
unicode = 2669;
},
{
glyphname = fi;
lastChange = "2017-11-28 23:36:01 +0000";
layers = (
{
layerId = "3F211455-7DB7-4737-9D97-BF0B219628E9";
paths = (
{
closed = 1;
nodes = (
"467 40 LINE",
"467 482 LINE",
"176 482 LINE",
"176 523 LINE SMOOTH",
"176 626 OFFCURVE",
"232 686 OFFCURVE",
"329 686 CURVE SMOOTH",
"358 686 OFFCURVE",
"386 680 OFFCURVE",
"410 666 CURVE",
"406 662 OFFCURVE",
"401 651 OFFCURVE",
"400 639 CURVE SMOOTH",
"400 611 OFFCURVE",
"421 594 OFFCURVE",
"444 594 CURVE SMOOTH",
"469 594 OFFCURVE",
"488 613 OFFCURVE",
"488 637 CURVE SMOOTH",
"488 647 OFFCURVE",
"486 657 OFFCURVE",
"474 670 CURVE",
"439 706 OFFCURVE",
"390 723 OFFCURVE",
"329 723 CURVE SMOOTH",
"202 723 OFFCURVE",
"129 647 OFFCURVE",
"129 525 CURVE SMOOTH",
"129 482 LINE",
"45 482 LINE",
"45 462 LINE SMOOTH",
"45 454 OFFCURVE",
"49 451 OFFCURVE",
"59 450 CURVE SMOOTH",
"129 445 LINE",
"129 40 LINE",
"67 38 LINE",
"54 37 OFFCURVE",
"47 31 OFFCURVE",
"47 20 CURVE SMOOTH",
"47 0 LINE",
"261 0 LINE",
"261 20 LINE SMOOTH",
"261 31 OFFCURVE",
"254 37 OFFCURVE",
"241 38 CURVE",
"177 40 LINE",
"177 446 LINE",
"420 446 LINE",
"420 40 LINE",
"356 38 LINE",
"343 37 OFFCURVE",
"336 31 OFFCURVE",
"336 20 CURVE SMOOTH",
"336 0 LINE",
"552 0 LINE",
"552 20 LINE SMOOTH",
"552 31 OFFCURVE",
"545 37 OFFCURVE",
"532 38 CURVE"
);
}
);
width = 588;
}
);
leftKerningGroup = f;
note = fi;
rightKerningGroup = i;
unicode = FB01;
},
{
glyphname = fl;
lastChange = "2017-11-28 23:36:01 +0000";
layers = (
{
layerId = "3F211455-7DB7-4737-9D97-BF0B219628E9";
paths = (
{
closed = 1;
nodes = (
"610 26 LINE",
"610 30 OFFCURVE",
"607 32 OFFCURVE",
"603 32 CURVE SMOOTH",
"601 32 OFFCURVE",
"581 28 OFFCURVE",
"572 28 CURVE SMOOTH",
"518 28 OFFCURVE",
"492 59 OFFCURVE",
"492 112 CURVE SMOOTH",
"492 712 LINE",
"431 713 LINE",
"406 716 OFFCURVE",
"346 720 OFFCURVE",
"328 720 CURVE SMOOTH",
"206 720 OFFCURVE",
"130 637 OFFCURVE",
"130 514 CURVE SMOOTH",
"130 481 LINE",
"46 481 LINE",
"46 462 LINE SMOOTH",
"46 454 OFFCURVE",
"50 450 OFFCURVE",
"60 449 CURVE",
"130 445 LINE",
"130 39 LINE",
"67 37 LINE",
"54 36 OFFCURVE",
"47 30 OFFCURVE",
"47 19 CURVE SMOOTH",
"47 0 LINE",
"261 0 LINE",
"261 19 LINE SMOOTH",
"261 30 OFFCURVE",
"254 36 OFFCURVE",
"241 37 CURVE",
"177 39 LINE",
"177 445 LINE",
"320 445 LINE",
"320 481 LINE",
"177 481 LINE",
"177 514 LINE SMOOTH",
"177 559 OFFCURVE",
"186 601 OFFCURVE",
"218 638 CURVE",
"247 670 OFFCURVE",
"290 684 OFFCURVE",
"335 684 CURVE SMOOTH",
"350 684 OFFCURVE",
"368 683 OFFCURVE",
"445 678 CURVE",
"445 111 LINE SMOOTH",
"445 39 OFFCURVE",
"493 -9 OFFCURVE",
"564 -9 CURVE SMOOTH",
"576 -9 OFFCURVE",
"598 -6 OFFCURVE",
"612 2 CURVE"
);
}
);
width = 646;
}
);
leftKerningGroup = f;
note = fl;
rightKerningGroup = l;
unicode = FB02;
},
{
glyphname = undercommaaccent;
lastChange = "2017-11-28 23:36:01 +0000";
layers = (
{
anchors = (
{
name = _bottom;
position = "{134, 2}";
}
);
layerId = "3F211455-7DB7-4737-9D97-BF0B219628E9";
paths = (
{
closed = 1;
nodes = (
"174 -50 OFFCURVE",
"171 -45 OFFCURVE",
"160 -45 CURVE SMOOTH",
"130 -45 LINE",
"108 -175 LINE",
"124 -175 LINE SMOOTH",
"132 -175 OFFCURVE",
"141 -176 OFFCURVE",
"146 -163 CURVE",
"172 -60 LINE"
);
}
);
width = 232;
}
);
note = undercommaaccent;
},
{
glyphname = grave.case;
lastChange = "2017-11-28 23:36:01 +0000";
layers = (
{
layerId = "3F211455-7DB7-4737-9D97-BF0B219628E9";
paths = (
{
closed = 1;
nodes = (
"90 885 LINE",
"236 777 LINE",
"241 772 OFFCURVE",
"248 771 OFFCURVE",
"255 771 CURVE SMOOTH",
"290 771 LINE",
"176 874 LINE",
"165 883 OFFCURVE",
"165 885 OFFCURVE",
"146 885 CURVE SMOOTH"
);
}
);
width = 381;
}
);
note = grave.case;
},
{
glyphname = dieresis.case;
lastChange = "2017-11-28 23:36:01 +0000";
layers = (
{
layerId = "3F211455-7DB7-4737-9D97-BF0B219628E9";
paths = (
{
closed = 1;
nodes = (
"362 792 OFFCURVE",
"380 810 OFFCURVE",
"380 832 CURVE SMOOTH",
"380 854 OFFCURVE",
"362 872 OFFCURVE",
"340 872 CURVE SMOOTH",
"318 872 OFFCURVE",
"300 854 OFFCURVE",
"300 832 CURVE SMOOTH",
"300 810 OFFCURVE",
"318 792 OFFCURVE",
"340 792 CURVE SMOOTH"
);
},
{
closed = 1;
nodes = (
"155 793 OFFCURVE",
"173 811 OFFCURVE",
"173 833 CURVE SMOOTH",
"173 855 OFFCURVE",
"155 873 OFFCURVE",
"133 873 CURVE SMOOTH",
"111 873 OFFCURVE",
"93 855 OFFCURVE",
"93 833 CURVE SMOOTH",
"93 811 OFFCURVE",
"111 793 OFFCURVE",
"133 793 CURVE SMOOTH"
);
}
);
width = 472;
}
);
note = dieresis.case;
},
{
glyphname = macron.case;
lastChange = "2017-11-28 23:36:01 +0000";
layers = (
{
layerId = "3F211455-7DB7-4737-9D97-BF0B219628E9";
paths = (
{
closed = 1;
nodes = (
"92 824 LINE",
"92 794 LINE",
"300 794 LINE",
"300 824 LINE"
);
}
);
width = 391;
}
);
note = macron.case;
},
{
glyphname = circumflex.case;
lastChange = "2017-11-28 23:36:01 +0000";
layers = (
{
layerId = "3F211455-7DB7-4737-9D97-BF0B219628E9";
paths = (
{
closed = 1;
nodes = (
"370 771 LINE",
"252 870 LINE",
"208 870 LINE",
"90 771 LINE",
"127 771 LINE SMOOTH",
"128 771 OFFCURVE",
"139 771 OFFCURVE",
"144 776 CURVE",
"222 838 LINE",
"230 844 LINE",
"238 838 LINE",
"316 776 LINE",
"319 773 OFFCURVE",
"328 771 OFFCURVE",
"333 771 CURVE SMOOTH"
);
}
);
width = 460;
}
);
note = circumflex.case;
},
{
glyphname = caron.case;
lastChange = "2017-11-28 23:36:01 +0000";
layers = (
{
layerId = "3F211455-7DB7-4737-9D97-BF0B219628E9";
paths = (
{
closed = 1;
nodes = (
"90 870 LINE",
"208 771 LINE",
"253 771 LINE",
"370 870 LINE",
"334 870 LINE SMOOTH",
"329 870 OFFCURVE",
"321 870 OFFCURVE",
"317 866 CURVE",
"239 804 LINE",
"230 797 LINE",
"222 804 LINE",
"144 866 LINE",
"141 869 OFFCURVE",
"133 870 OFFCURVE",
"128 870 CURVE SMOOTH"
);
}
);
width = 460;
}
);
note = caron.case;
},
{
glyphname = breve.case;
lastChange = "2017-11-28 23:36:01 +0000";
layers = (
{
layerId = "3F211455-7DB7-4737-9D97-BF0B219628E9";
paths = (
{
closed = 1;
nodes = (
"288 764 OFFCURVE",
"333 796 OFFCURVE",
"333 870 CURVE",
"301 870 LINE",
"301 821 OFFCURVE",
"271 794 OFFCURVE",
"212 794 CURVE SMOOTH",
"157 794 OFFCURVE",
"123 817 OFFCURVE",
"123 870 CURVE",
"91 870 LINE",
"91 797 OFFCURVE",
"135 764 OFFCURVE",
"212 764 CURVE SMOOTH"
);
}
);
width = 423;
}
);
note = breve.case;
},
{
glyphname = ring.case;
lastChange = "2017-11-28 23:36:01 +0000";
layers = (
{
layerId = "3F211455-7DB7-4737-9D97-BF0B219628E9";
paths = (
{
closed = 1;
nodes = (
"86 769 OFFCURVE",
"126 736 OFFCURVE",
"170 736 CURVE SMOOTH",
"215 736 OFFCURVE",
"254 770 OFFCURVE",
"254 815 CURVE SMOOTH",
"254 860 OFFCURVE",
"215 894 OFFCURVE",
"170 894 CURVE SMOOTH",
"125 894 OFFCURVE",
"86 859 OFFCURVE",
"86 815 CURVE SMOOTH"
);
},
{
closed = 1;
nodes = (
"113 849 OFFCURVE",
"136 872 OFFCURVE",
"170 872 CURVE SMOOTH",
"204 872 OFFCURVE",
"227 849 OFFCURVE",
"227 815 CURVE SMOOTH",
"227 781 OFFCURVE",
"204 758 OFFCURVE",
"170 758 CURVE SMOOTH",
"136 758 OFFCURVE",
"113 781 OFFCURVE",
"113 815 CURVE SMOOTH"
);
}
);
width = 339;
}
);
note = ring.case;
},
{
glyphname = tilde.case;
lastChange = "2017-11-28 23:36:01 +0000";
layers = (
{
layerId = "3F211455-7DB7-4737-9D97-BF0B219628E9";
paths = (
{
closed = 1;
nodes = (
"261 808 OFFCURVE",
"245 819 OFFCURVE",
"224 833 CURVE SMOOTH",
"206 845 OFFCURVE",
"185 858 OFFCURVE",
"163 858 CURVE SMOOTH",
"118 858 OFFCURVE",
"92 822 OFFCURVE",
"92 776 CURVE",
"120 776 LINE",
"122 802 OFFCURVE",
"134 825 OFFCURVE",
"164 825 CURVE SMOOTH",
"181 825 OFFCURVE",
"197 814 OFFCURVE",
"218 800 CURVE SMOOTH",
"236 788 OFFCURVE",
"257 775 OFFCURVE",
"278 775 CURVE SMOOTH",
"324 775 OFFCURVE",
"348 811 OFFCURVE",
"348 857 CURVE",
"321 857 LINE",
"321 834 OFFCURVE",
"307 808 OFFCURVE",
"278 808 CURVE SMOOTH"
);
}
);
width = 439;
}
);
note = tilde.case;
},
{
glyphname = hungarumlaut.case;
lastChange = "2017-11-28 23:36:01 +0000";
layers = (
{
layerId = "3F211455-7DB7-4737-9D97-BF0B219628E9";
paths = (
{
closed = 1;
nodes = (
"232 882 LINE",
"199 882 LINE SMOOTH",
"187 882 OFFCURVE",
"178 880 OFFCURVE",
"167 866 CURVE SMOOTH",
"90 771 LINE",
"114 771 LINE SMOOTH",
"123 771 OFFCURVE",
"126 774 OFFCURVE",
"132 780 CURVE SMOOTH"
);
},
{
closed = 1;
nodes = (
"384 882 LINE",
"346 882 LINE SMOOTH",
"330 882 OFFCURVE",
"325 878 OFFCURVE",
"313 866 CURVE SMOOTH",
"222 771 LINE",
"248 771 LINE SMOOTH",
"257 771 OFFCURVE",
"259 773 OFFCURVE",
"268 780 CURVE"
);
}
);
width = 472;
}
);
note = hungarumlaut.case;
},
{
glyphname = caron.salt;
lastChange = "2017-11-28 23:36:01 +0000";
layers = (
{
anchors = (
{
name = _topright;
position = "{37, 518}";
}
);
layerId = "3F211455-7DB7-4737-9D97-BF0B219628E9";
paths = (
{
closed = 1;
nodes = (
"136 723 OFFCURVE",
"133 728 OFFCURVE",
"122 728 CURVE SMOOTH",
"92 728 LINE",
"66 578 LINE",
"82 578 LINE SMOOTH",
"90 578 OFFCURVE",
"96 577 OFFCURVE",
"101 590 CURVE",
"134 713 LINE"
);
}
);
width = 199;
}
);
note = caron.salt;
},
{
glyphname = Eng;
lastChange = "2017-11-28 23:36:01 +0000";
layers = (
{
anchors = (
{
name = bottom;
position = "{395, 0}";
},
{
name = top;
position = "{395, 708}";
}
);
layerId = "3F211455-7DB7-4737-9D97-BF0B219628E9";
paths = (
{
closed = 1;
nodes = (
"636 -23 LINE SMOOTH",
"636 -103 OFFCURVE",
"601 -144 OFFCURVE",
"538 -144 CURVE SMOOTH",
"523 -144 OFFCURVE",
"511 -142 OFFCURVE",
"502 -139 CURVE SMOOTH",
"482 -132 OFFCURVE",
"475 -135 OFFCURVE",
"473 -145 CURVE",
"468 -165 LINE",
"493 -175 OFFCURVE",
"514 -180 OFFCURVE",
"542 -180 CURVE SMOOTH",
"589 -180 OFFCURVE",
"624 -165 OFFCURVE",
"647 -137 CURVE SMOOTH",
"670 -109 OFFCURVE",
"681 -68 OFFCURVE",
"681 -18 CURVE SMOOTH",
"681 12 LINE",
"681 669 LINE",
"745 671 LINE",
"758 672 OFFCURVE",
"765 678 OFFCURVE",
"765 689 CURVE SMOOTH",
"765 708 LINE",
"549 708 LINE",
"549 689 LINE SMOOTH",
"549 678 OFFCURVE",
"556 672 OFFCURVE",
"569 671 CURVE",
"636 669 LINE",
"636 114 LINE SMOOTH",
"636 105 OFFCURVE",
"636 95 OFFCURVE",
"637 85 CURVE",
"179 698 LINE SMOOTH",
"175 703 OFFCURVE",
"172 708 OFFCURVE",
"160 708 CURVE SMOOTH",
"50 708 LINE",
"50 688 LINE SMOOTH",
"50 677 OFFCURVE",
"57 671 OFFCURVE",
"70 670 CURVE",
"135 668 LINE",
"135 40 LINE",
"70 38 LINE",
"57 37 OFFCURVE",
"50 31 OFFCURVE",
"50 20 CURVE SMOOTH",
"50 0 LINE",
"266 0 LINE",
"266 20 LINE SMOOTH",
"266 31 OFFCURVE",
"259 37 OFFCURVE",
"246 38 CURVE",
"179 40 LINE",
"179 595 LINE SMOOTH",
"179 604 OFFCURVE",
"179 614 OFFCURVE",
"178 624 CURVE",
"636 13 LINE"
);
}
);
width = 789;
}
);
unicode = 014A;
},
{
glyphname = Tbar;
lastChange = "2017-11-28 23:36:01 +0000";
layers = (
{
components = (
{
name = T;
}
);
layerId = "3F211455-7DB7-4737-9D97-BF0B219628E9";
paths = (
{
closed = 1;
nodes = (
"483 335 LINE",
"482 373 LINE",
"142 373 LINE",
"141 335 LINE"
);
}
);
width = 623;
}
);
leftKerningGroup = T;
rightKerningGroup = T;
unicode = 0166;
},
{
glyphname = dcroat;
lastChange = "2017-11-28 23:36:01 +0000";
layers = (
{
components = (
{
name = d;
}
);
layerId = "3F211455-7DB7-4737-9D97-BF0B219628E9";
paths = (
{
closed = 1;
nodes = (
"529 581 LINE",
"529 614 LINE",
"282 614 LINE",
"282 581 LINE"
);
}
);
width = 560;
}
);
leftKerningGroup = c;
unicode = 0111;
},
{
glyphname = eng;
lastChange = "2017-11-28 23:36:01 +0000";
layers = (
{
components = (
{
name = SerifSpur;
transform = "{1, 0, 0, 1, 124, 498}";
}
);
layerId = "3F211455-7DB7-4737-9D97-BF0B219628E9";
paths = (
{
closed = 1;
nodes = (
"515 318 LINE SMOOTH",
"515 431 OFFCURVE",
"460 505 OFFCURVE",
"349 505 CURVE SMOOTH",
"274 505 OFFCURVE",
"214 467 OFFCURVE",
"169 410 CURVE",
"165 486 LINE",
"164 494 OFFCURVE",
"159 498 OFFCURVE",
"150 498 CURVE SMOOTH",
"124 498 LINE",
"124 459 LINE",
"124 40 LINE",
"71 38 LINE",
"58 37 OFFCURVE",
"52 31 OFFCURVE",
"52 20 CURVE SMOOTH",
"52 0 LINE",
"243 0 LINE",
"243 20 LINE SMOOTH",
"243 31 OFFCURVE",
"237 37 OFFCURVE",
"224 38 CURVE",
"171 40 LINE",
"171 373 LINE",
"214 430 OFFCURVE",
"270 467 OFFCURVE",
"337 467 CURVE SMOOTH",
"429 467 OFFCURVE",
"467 407 OFFCURVE",
"467 318 CURVE SMOOTH",
"467 0 LINE",
"467 -23 LINE SMOOTH",
"467 -103 OFFCURVE",
"432 -144 OFFCURVE",
"369 -144 CURVE SMOOTH",
"354 -144 OFFCURVE",
"342 -142 OFFCURVE",
"333 -139 CURVE SMOOTH",
"313 -132 OFFCURVE",
"307 -136 OFFCURVE",
"304 -145 CURVE",
"299 -165 LINE",
"324 -175 OFFCURVE",
"345 -180 OFFCURVE",
"373 -180 CURVE SMOOTH",
"420 -180 OFFCURVE",
"457 -165 OFFCURVE",
"480 -137 CURVE SMOOTH",
"503 -109 OFFCURVE",
"511 -68 OFFCURVE",
"514 -18 CURVE SMOOTH",
"515 -1 LINE"
);
}
);
width = 629;
}
);
leftKerningGroup = k;
unicode = 014B;
},
{
glyphname = tbar;
lastChange = "2017-11-28 23:36:01 +0000";
layers = (
{
components = (
{
name = t;
}
);
layerId = "3F211455-7DB7-4737-9D97-BF0B219628E9";
paths = (
{
closed = 1;
nodes = (
"305 306 LINE",
"305 337 LINE",
"24 337 LINE",
"24 306 LINE"
);
}
);
width = 355;
}
);
unicode = 0167;
},
{
export = 0;
glyphname = a.sc;
lastChange = "2017-11-28 23:36:01 +0000";
layers = (
{
anchors = (
{
name = bottom;
position = "{300, 0}";
},
{
name = ogonek;
position = "{540, 10}";
},
{
name = top;
position = "{294, 498}";
}
);
components = (
{
name = SerfiBottomSymmetrical;
transform = "{1, 0, 0, 1, 90, 0}";
},
{
name = SerfiBottomSymmetrical;
transform = "{1, 0, 0, 1, 455, 0}";
}
);
layerId = "3F211455-7DB7-4737-9D97-BF0B219628E9";
paths = (
{
closed = 1;
nodes = (
"127 0 LINE",
"192.725 167 LINE",
"396.275 167 LINE",
"462 0 LINE",
"517 0 LINE",
"314 498 LINE",
"275 498 LINE",
"71 0 LINE"
);
},
{
closed = 1;
nodes = (
"286 404 LINE",
"294 426 LINE",
"303 404 LINE",
"381.319 205 LINE",
"207.681 205 LINE"
);
}
);
width = 600;
}
);
leftKerningGroup = a.sc;
rightKerningGroup = a.sc;
},
{
glyphname = dieresiscomb;
lastChange = "2017-11-28 23:36:01 +0000";
layers = (
{
anchors = (
{
name = _top;
position = "{385, 708}";
},
{
name = top;
position = "{385, 874}";
}
);
layerId = "3F211455-7DB7-4737-9D97-BF0B219628E9";
paths = (
{
closed = 1;
nodes = (
"511 793 OFFCURVE",
"529 811 OFFCURVE",
"529 834 CURVE SMOOTH",
"529 856 OFFCURVE",
"511 874 OFFCURVE",
"489 874 CURVE SMOOTH",
"466 874 OFFCURVE",
"448 856 OFFCURVE",
"448 834 CURVE SMOOTH",
"448 811 OFFCURVE",
"466 793 OFFCURVE",
"489 793 CURVE SMOOTH"
);
},
{
closed = 1;
nodes = (
"303 793 OFFCURVE",
"321 811 OFFCURVE",
"321 834 CURVE SMOOTH",
"321 856 OFFCURVE",
"303 874 OFFCURVE",
"281 874 CURVE SMOOTH",
"258 874 OFFCURVE",
"240 856 OFFCURVE",
"240 834 CURVE SMOOTH",
"240 811 OFFCURVE",
"258 793 OFFCURVE",
"281 793 CURVE SMOOTH"
);
}
);
width = 771;
}
);
unicode = 0308;
},
{
glyphname = dotaccentcomb;
lastChange = "2017-11-28 23:36:01 +0000";
layers = (
{
anchors = (
{
name = _top;
position = "{136, 708}";
},
{
name = top;
position = "{136, 882}";
}
);
layerId = "3F211455-7DB7-4737-9D97-BF0B219628E9";
paths = (
{
closed = 1;
nodes = (
"159 796 OFFCURVE",
"179 815 OFFCURVE",
"179 839 CURVE SMOOTH",
"179 862 OFFCURVE",
"159 882 OFFCURVE",
"136 882 CURVE SMOOTH",
"112 882 OFFCURVE",
"93 862 OFFCURVE",
"93 839 CURVE SMOOTH",
"93 815 OFFCURVE",
"112 796 OFFCURVE",
"136 796 CURVE SMOOTH"
);
}
);
width = 270;
}
);
unicode = 0307;
},
{
glyphname = gravecomb;
lastChange = "2017-11-28 23:36:01 +0000";
layers = (
{
anchors = (
{
name = _top;
position = "{129, 708}";
},
{
name = top;
position = "{40, 885}";
}
);
layerId = "3F211455-7DB7-4737-9D97-BF0B219628E9";
paths = (
{
closed = 1;
nodes = (
"-61 885 LINE",
"85 777 LINE",
"90 772 OFFCURVE",
"97 771 OFFCURVE",
"104 771 CURVE",
"140 771 LINE",
"26 874 LINE",
"14 884 OFFCURVE",
"10 885 OFFCURVE",
"-5 885 CURVE SMOOTH"
);
}
);
width = 222;
}
);
unicode = 0300;
},
{
glyphname = acutecomb;
lastChange = "2017-11-28 23:36:01 +0000";
layers = (
{
anchors = (
{
name = _top;
position = "{100, 498}";
},
{
name = top;
position = "{170, 716}";
}
);
layerId = "3F211455-7DB7-4737-9D97-BF0B219628E9";
paths = (
{
closed = 1;
nodes = (
"207 716 LINE",
"160 716 LINE SMOOTH",
"146 716 OFFCURVE",
"139 712 OFFCURVE",
"131 700 CURVE SMOOTH",
"52 580 LINE",
"81 580 LINE SMOOTH",
"90 580 OFFCURVE",
"93 583 OFFCURVE",
"99 589 CURVE"
);
}
);
width = 300;
}
);
unicode = 0301;
},
{
glyphname = hungarumlautcomb;
lastChange = "2017-11-28 23:36:01 +0000";
layers = (
{
anchors = (
{
name = _top;
position = "{168, 498}";
}
);
layerId = "3F211455-7DB7-4737-9D97-BF0B219628E9";
paths = (
{
closed = 1;
nodes = (
"361 716 LINE",
"314 716 LINE SMOOTH",
"300 716 OFFCURVE",
"293 712 OFFCURVE",
"285 700 CURVE SMOOTH",
"206 580 LINE",
"235 580 LINE SMOOTH",
"244 580 OFFCURVE",
"247 583 OFFCURVE",
"253 589 CURVE"
);
},
{
closed = 1;
nodes = (
"218 716 LINE",
"171 716 LINE SMOOTH",
"157 716 OFFCURVE",
"150 712 OFFCURVE",
"142 700 CURVE SMOOTH",
"63 580 LINE",
"92 580 LINE SMOOTH",
"101 580 OFFCURVE",
"104 583 OFFCURVE",
"110 589 CURVE"
);
}
);
width = 400;
}
);
unicode = 030B;
},
{
glyphname = circumflexcomb;
lastChange = "2017-11-28 23:36:01 +0000";
layers = (
{
anchors = (
{
name = _top;
position = "{385, 708}";
},
{
name = top;
position = "{385, 870}";
}
);
layerId = "3F211455-7DB7-4737-9D97-BF0B219628E9";
paths = (
{
closed = 1;
nodes = (
"525 771 LINE",
"407 870 LINE",
"362 870 LINE",
"245 771 LINE",
"282 771 LINE SMOOTH",
"286 771 OFFCURVE",
"293 772 OFFCURVE",
"298 776 CURVE",
"385 844 LINE",
"471 776 LINE",
"474 773 OFFCURVE",
"482 771 OFFCURVE",
"488 771 CURVE SMOOTH"
);
}
);
width = 771;
}
);
unicode = 0302;
},
{
glyphname = caroncomb;
lastChange = "2017-11-28 23:36:01 +0000";
layers = (
{
anchors = (
{
name = _top;
position = "{313, 497}";
},
{
name = top;
position = "{317, 708}";
}
);
layerId = "3F211455-7DB7-4737-9D97-BF0B219628E9";
paths = (
{
closed = 1;
nodes = (
"187 708 LINE",
"296 585 LINE",
"338 585 LINE",
"447 708 LINE",
"414 708 LINE SMOOTH",
"412 708 OFFCURVE",
"410 707 OFFCURVE",
"407 706 CURVE",
"405 705 OFFCURVE",
"403 704 OFFCURVE",
"401 702 CURVE SMOOTH",
"323 621 LINE",
"318 614 LINE",
"312 621 LINE",
"234 702 LINE SMOOTH",
"230 706 OFFCURVE",
"225 708 OFFCURVE",
"220 708 CURVE SMOOTH"
);
}
);
width = 600;
}
);
unicode = 030C;
},
{
glyphname = brevecomb;
lastChange = "2017-11-28 23:36:01 +0000";
layers = (
{
anchors = (
{
name = _top;
position = "{212, 498}";
},
{
name = top;
position = "{212, 656}";
}
);
layerId = "3F211455-7DB7-4737-9D97-BF0B219628E9";
paths = (
{
closed = 1;
nodes = (
"288 550 OFFCURVE",
"333 582 OFFCURVE",
"333 656 CURVE",
"301 656 LINE",
"301 607 OFFCURVE",
"271 580 OFFCURVE",
"212 580 CURVE SMOOTH",
"157 580 OFFCURVE",
"123 603 OFFCURVE",
"123 656 CURVE",
"91 656 LINE",
"91 583 OFFCURVE",
"135 550 OFFCURVE",
"212 550 CURVE SMOOTH"
);
}
);
width = 423;
}
);
unicode = 0306;
},
{
glyphname = ringcomb;
lastChange = "2017-11-28 23:36:01 +0000";
layers = (
{
anchors = (
{
name = _top;
position = "{385, 708}";
},
{
name = top;
position = "{385, 894}";
}
);
layerId = "3F211455-7DB7-4737-9D97-BF0B219628E9";
paths = (
{
closed = 1;
nodes = (
"431 736 OFFCURVE",
"469 772 OFFCURVE",
"469 815 CURVE SMOOTH",
"469 859 OFFCURVE",
"431 894 OFFCURVE",
"385 894 CURVE SMOOTH",
"340 894 OFFCURVE",
"301 859 OFFCURVE",
"301 815 CURVE SMOOTH",
"301 772 OFFCURVE",
"340 736 OFFCURVE",
"385 736 CURVE SMOOTH"
);
},
{
closed = 1;
nodes = (
"355 760 OFFCURVE",
"330 785 OFFCURVE",
"330 815 CURVE SMOOTH",
"330 845 OFFCURVE",
"355 870 OFFCURVE",
"385 870 CURVE SMOOTH",
"415 870 OFFCURVE",
"440 845 OFFCURVE",
"440 815 CURVE SMOOTH",
"440 785 OFFCURVE",
"415 760 OFFCURVE",
"385 760 CURVE SMOOTH"
);
}
);
width = 771;
}
);
unicode = 030A;
},
{
glyphname = tildecomb;
lastChange = "2017-11-28 23:36:01 +0000";
layers = (
{
anchors = (
{
name = _top;
position = "{398, 708}";
},
{
name = top;
position = "{388, 858}";
}
);
layerId = "3F211455-7DB7-4737-9D97-BF0B219628E9";
paths = (
{
closed = 1;
nodes = (
"455 796 OFFCURVE",
"418 816 CURVE SMOOTH",
"423 813 OFFCURVE",
"373 845 OFFCURVE",
"362 850 CURVE SMOOTH",
"311 875 OFFCURVE",
"260 843 OFFCURVE",
"260 776 CURVE",
"288 776 LINE",
"291 821 OFFCURVE",
"322 837 OFFCURVE",
"358 817 CURVE SMOOTH",
"353 820 OFFCURVE",
"403 788 OFFCURVE",
"414 783 CURVE SMOOTH",
"465 758 OFFCURVE",
"515 791 OFFCURVE",
"515 857 CURVE",
"488 857 LINE",
"488 815 OFFCURVE"
);
}
);
width = 771;
}
);
unicode = 0303;
},
{
glyphname = macroncomb;
lastChange = "2017-11-28 23:36:01 +0000";
layers = (
{
anchors = (
{
name = _top;
position = "{196, 498}";
},
{
name = top;
position = "{196, 594}";
}
);
layerId = "3F211455-7DB7-4737-9D97-BF0B219628E9";
paths = (
{
closed = 1;
nodes = (
"92 594 LINE",
"92 564 LINE",
"300 564 LINE",
"300 594 LINE"
);
}
);
width = 391;
}
);
unicode = 0304;
},
{
glyphname = cedillacomb;
lastChange = "2017-11-28 23:36:01 +0000";
layers = (
{
anchors = (
{
name = _bottom;
position = "{44, 0}";
},
{
name = bottom;
position = "{97, -177}";
}
);
layerId = "3F211455-7DB7-4737-9D97-BF0B219628E9";
paths = (
{
closed = 1;
nodes = (
"123 -177 OFFCURVE",
"156 -167 OFFCURVE",
"172 -140 CURVE",
"176 -132 OFFCURVE",
"179 -123 OFFCURVE",
"179 -113 CURVE SMOOTH",
"179 -72 OFFCURVE",
"145 -54 OFFCURVE",
"88 -45 CURVE",
"103 0 LINE",
"72 0 LINE",
"51 -64 LINE",
"95 -71 OFFCURVE",
"140 -74 OFFCURVE",
"140 -113 CURVE SMOOTH",
"140 -142 OFFCURVE",
"116 -154 OFFCURVE",
"86 -154 CURVE SMOOTH",
"70 -154 OFFCURVE",
"46 -147 OFFCURVE",
"34 -139 CURVE SMOOTH",
"31 -137 OFFCURVE",
"25 -132 OFFCURVE",
"20 -142 CURVE",
"14 -156 LINE",
"34 -170 OFFCURVE",
"56 -177 OFFCURVE",
"87 -177 CURVE SMOOTH"
);
}
);
width = 200;
}
);
unicode = 0327;
},
{
glyphname = ogonekcomb;
lastChange = "2017-11-28 23:36:01 +0000";
layers = (
{
anchors = (
{
name = _ogonek;
position = "{227, 10}";
}
);
layerId = "3F211455-7DB7-4737-9D97-BF0B219628E9";
paths = (
{
closed = 1;
nodes = (
"211 -122 OFFCURVE",
"205 -125 CURVE",
"195 -131 OFFCURVE",
"178 -138 OFFCURVE",
"156 -138 CURVE SMOOTH",
"127 -138 OFFCURVE",
"100 -123 OFFCURVE",
"100 -88 CURVE SMOOTH",
"100 -54 OFFCURVE",
"126 -23 OFFCURVE",
"166 0 CURVE",
"142 6 LINE",
"97 -21 OFFCURVE",
"62 -58 OFFCURVE",
"62 -98 CURVE SMOOTH",
"62 -145 OFFCURVE",
"101 -169 OFFCURVE",
"148 -169 CURVE SMOOTH",
"173 -169 OFFCURVE",
"205 -162 OFFCURVE",
"227 -142 CURVE",
"219 -128 LINE",
"216 -123 OFFCURVE"
);
}
);
width = 288;
}
);
unicode = 0328;
},
{
glyphname = dieresiscomb.case;
lastChange = "2017-11-28 23:36:01 +0000";
layers = (
{
anchors = (
{
name = _top;
position = "{385, 708}";
},
{
name = top;
position = "{385, 874}";
}
);
layerId = "3F211455-7DB7-4737-9D97-BF0B219628E9";
paths = (
{
closed = 1;
nodes = (
"511 793 OFFCURVE",
"529 811 OFFCURVE",
"529 834 CURVE SMOOTH",
"529 856 OFFCURVE",
"511 874 OFFCURVE",
"489 874 CURVE SMOOTH",
"466 874 OFFCURVE",
"448 856 OFFCURVE",
"448 834 CURVE SMOOTH",
"448 811 OFFCURVE",
"466 793 OFFCURVE",
"489 793 CURVE SMOOTH"
);
},
{
closed = 1;
nodes = (
"303 793 OFFCURVE",
"321 811 OFFCURVE",
"321 834 CURVE SMOOTH",
"321 856 OFFCURVE",
"303 874 OFFCURVE",
"281 874 CURVE SMOOTH",
"258 874 OFFCURVE",
"240 856 OFFCURVE",
"240 834 CURVE SMOOTH",
"240 811 OFFCURVE",
"258 793 OFFCURVE",
"281 793 CURVE SMOOTH"
);
}
);
width = 771;
}
);
},
{
glyphname = dotaccentcomb.case;
lastChange = "2017-11-28 23:36:01 +0000";
layers = (
{
anchors = (
{
name = _top;
position = "{136, 708}";
},
{
name = top;
position = "{136, 882}";
}
);
layerId = "3F211455-7DB7-4737-9D97-BF0B219628E9";
paths = (
{
closed = 1;
nodes = (
"159 796 OFFCURVE",
"179 815 OFFCURVE",
"179 839 CURVE SMOOTH",
"179 862 OFFCURVE",
"159 882 OFFCURVE",
"136 882 CURVE SMOOTH",
"112 882 OFFCURVE",
"93 862 OFFCURVE",
"93 839 CURVE SMOOTH",
"93 815 OFFCURVE",
"112 796 OFFCURVE",
"136 796 CURVE SMOOTH"
);
}
);
width = 270;
}
);
},
{
glyphname = gravecomb.case;
lastChange = "2017-11-28 23:36:01 +0000";
layers = (
{
anchors = (
{
name = _top;
position = "{129, 708}";
},
{
name = top;
position = "{40, 885}";
}
);
layerId = "3F211455-7DB7-4737-9D97-BF0B219628E9";
paths = (
{
closed = 1;
nodes = (
"-11 885 LINE",
"135 777 LINE",
"140 772 OFFCURVE",
"147 771 OFFCURVE",
"154 771 CURVE",
"190 771 LINE",
"76 874 LINE",
"64 884 OFFCURVE",
"60 885 OFFCURVE",
"45 885 CURVE SMOOTH"
);
}
);
width = 222;
}
);
},
{
glyphname = acutecomb.case;
lastChange = "2017-11-28 23:36:01 +0000";
layers = (
{
anchors = (
{
name = _top;
position = "{75, 498}";
},
{
name = top;
position = "{142, 716}";
}
);
layerId = "3F211455-7DB7-4737-9D97-BF0B219628E9";
paths = (
{
closed = 1;
nodes = (
"219 716 LINE",
"172 716 LINE SMOOTH",
"158 716 OFFCURVE",
"151 712 OFFCURVE",
"143 700 CURVE SMOOTH",
"64 581 LINE",
"93 581 LINE SMOOTH",
"103 581 OFFCURVE",
"104 582 OFFCURVE",
"111 589 CURVE"
);
}
);
width = 300;
}
);
},
{
glyphname = hungarumlautcomb.case;
lastChange = "2017-11-28 23:36:01 +0000";
layers = (
{
anchors = (
{
name = _top;
position = "{168, 498}";
}
);
layerId = "3F211455-7DB7-4737-9D97-BF0B219628E9";
paths = (
{
closed = 1;
nodes = (
"361 716 LINE",
"314 716 LINE SMOOTH",
"300 716 OFFCURVE",
"293 712 OFFCURVE",
"285 700 CURVE SMOOTH",
"206 580 LINE",
"235 580 LINE SMOOTH",
"244 580 OFFCURVE",
"247 583 OFFCURVE",
"253 589 CURVE"
);
},
{
closed = 1;
nodes = (
"218 716 LINE",
"171 716 LINE SMOOTH",
"157 716 OFFCURVE",
"150 712 OFFCURVE",
"142 700 CURVE SMOOTH",
"63 580 LINE",
"92 580 LINE SMOOTH",
"101 580 OFFCURVE",
"104 583 OFFCURVE",
"110 589 CURVE"
);
}
);
width = 400;
}
);
},
{
glyphname = circumflexcomb.case;
lastChange = "2017-11-28 23:36:01 +0000";
layers = (
{
anchors = (
{
name = _top;
position = "{385, 708}";
},
{
name = top;
position = "{385, 870}";
}
);
layerId = "3F211455-7DB7-4737-9D97-BF0B219628E9";
paths = (
{
closed = 1;
nodes = (
"525 771 LINE",
"407 870 LINE",
"362 870 LINE",
"245 771 LINE",
"282 771 LINE SMOOTH",
"286 771 OFFCURVE",
"293 772 OFFCURVE",
"298 776 CURVE",
"385 844 LINE",
"471 776 LINE",
"474 773 OFFCURVE",
"482 771 OFFCURVE",
"488 771 CURVE SMOOTH"
);
}
);
width = 771;
}
);
},
{
glyphname = caroncomb.case;
lastChange = "2017-11-28 23:36:01 +0000";
layers = (
{
anchors = (
{
name = _top;
position = "{313, 497}";
},
{
name = top;
position = "{317, 708}";
}
);
layerId = "3F211455-7DB7-4737-9D97-BF0B219628E9";
paths = (
{
closed = 1;
nodes = (
"187 708 LINE",
"296 585 LINE",
"338 585 LINE",
"447 708 LINE",
"414 708 LINE SMOOTH",
"412 708 OFFCURVE",
"410 707 OFFCURVE",
"407 706 CURVE",
"405 705 OFFCURVE",
"403 704 OFFCURVE",
"401 702 CURVE SMOOTH",
"323 621 LINE",
"318 614 LINE",
"312 621 LINE",
"234 702 LINE SMOOTH",
"230 706 OFFCURVE",
"225 708 OFFCURVE",
"220 708 CURVE SMOOTH"
);
}
);
width = 633;
}
);
},
{
glyphname = brevecomb.case;
lastChange = "2017-11-28 23:36:01 +0000";
layers = (
{
anchors = (
{
name = _top;
position = "{212, 498}";
},
{
name = top;
position = "{212, 656}";
}
);
layerId = "3F211455-7DB7-4737-9D97-BF0B219628E9";
paths = (
{
closed = 1;
nodes = (
"288 580 OFFCURVE",
"333 612 OFFCURVE",
"333 686 CURVE",
"301 686 LINE",
"301 637 OFFCURVE",
"271 610 OFFCURVE",
"212 610 CURVE SMOOTH",
"157 610 OFFCURVE",
"123 633 OFFCURVE",
"123 686 CURVE",
"91 686 LINE",
"91 613 OFFCURVE",
"135 580 OFFCURVE",
"212 580 CURVE SMOOTH"
);
}
);
width = 423;
}
);
},
{
glyphname = ringcomb.case;
lastChange = "2017-11-28 23:36:01 +0000";
layers = (
{
anchors = (
{
name = _top;
position = "{385, 708}";
},
{
name = top;
position = "{385, 894}";
}
);
layerId = "3F211455-7DB7-4737-9D97-BF0B219628E9";
paths = (
{
closed = 1;
nodes = (
"431 736 OFFCURVE",
"469 772 OFFCURVE",
"469 815 CURVE SMOOTH",
"469 859 OFFCURVE",
"431 894 OFFCURVE",
"385 894 CURVE SMOOTH",
"340 894 OFFCURVE",
"301 859 OFFCURVE",
"301 815 CURVE SMOOTH",
"301 772 OFFCURVE",
"340 736 OFFCURVE",
"385 736 CURVE SMOOTH"
);
},
{
closed = 1;
nodes = (
"355 760 OFFCURVE",
"330 785 OFFCURVE",
"330 815 CURVE SMOOTH",
"330 845 OFFCURVE",
"355 870 OFFCURVE",
"385 870 CURVE SMOOTH",
"415 870 OFFCURVE",
"440 845 OFFCURVE",
"440 815 CURVE SMOOTH",
"440 785 OFFCURVE",
"415 760 OFFCURVE",
"385 760 CURVE SMOOTH"
);
}
);
width = 771;
}
);
},
{
glyphname = tildecomb.case;
lastChange = "2017-11-28 23:36:01 +0000";
layers = (
{
anchors = (
{
name = _top;
position = "{388, 708}";
},
{
name = top;
position = "{388, 858}";
}
);
layerId = "3F211455-7DB7-4737-9D97-BF0B219628E9";
paths = (
{
closed = 1;
nodes = (
"455 796 OFFCURVE",
"418 816 CURVE SMOOTH",
"423 813 OFFCURVE",
"373 845 OFFCURVE",
"362 850 CURVE SMOOTH",
"311 875 OFFCURVE",
"260 843 OFFCURVE",
"260 776 CURVE",
"288 776 LINE",
"291 821 OFFCURVE",
"322 837 OFFCURVE",
"358 817 CURVE SMOOTH",
"353 820 OFFCURVE",
"403 788 OFFCURVE",
"414 783 CURVE SMOOTH",
"465 758 OFFCURVE",
"515 791 OFFCURVE",
"515 857 CURVE",
"488 857 LINE",
"488 815 OFFCURVE"
);
}
);
width = 771;
}
);
},
{
glyphname = macroncomb.case;
lastChange = "2017-11-28 23:36:01 +0000";
layers = (
{
anchors = (
{
name = _top;
position = "{196, 498}";
},
{
name = top;
position = "{196, 594}";
}
);
layerId = "3F211455-7DB7-4737-9D97-BF0B219628E9";
paths = (
{
closed = 1;
nodes = (
"60 642 LINE",
"60 610 LINE",
"332 610 LINE",
"332 642 LINE"
);
}
);
width = 391;
}
);
},
